<svg xmlns="http://www.w3.org/2000/svg" xmlns:xlink="http://www.w3.org/1999/xlink" xml:lang="en" height="387.20000000000005pt" width="549.2pt" viewBox="-202.60000000000002 -31.6 549.2 387.20000000000005"><path d="M 0.0,-0.0 L 0.0,-27.0 L 144.0,-27.0 L 144.0,27.0 L 0.0,27.0 L 0.0,-0.0" style="stroke:black;fill:#e8f5e9;stroke-width:2.0;stroke-dasharray:-;stroke-linecap:round;stroke-linejoin:round;" /><path d="M 72.0,27.0 L 71.99999999999999,54.0 L 71.99999999999999,72.0" style="stroke:black;fill:none;stroke-width:2.0;stroke-dasharray:-;stroke-linecap:round;stroke-linejoin:round;" /><path d="M 71.99999999999999 79.0 L 69.29999999999998 72.0 L 74.69999999999999 72.0 Z" style="stroke:black;fill:black;stroke-linecap:butt;stroke-linejoin:miter;" /><path d="M -7.993605777301127e-15,108.0 L -7.993605777301127e-15,81.0 L 144.0,81.0 L 144.0,135.0 L -7.993605777301127e-15,135.0 L -7.993605777301127e-15,108.0" style="stroke:black;fill:#e3f2fd;stroke-width:2.0;stroke-dasharray:-;stroke-linecap:round;stroke-linejoin:round;" /><path d="M -7.993605777301127e-15,108.0 L -36.00000000000001,108.0 L -63.0,107.99999999999999" style="stroke:black;fill:none;stroke-width:2.0;stroke-dasharray:-;stroke-linecap:round;stroke-linejoin:round;" /><path d="M -70.0 107.99999999999999 L -63.0 105.29999999999998 L -63.0 110.69999999999999 Z" style="stroke:black;fill:black;stroke-linecap:butt;stroke-linejoin:miter;" /><path d="M -198.0,107.99999999999999 L -198.0,80.99999999999999 L -72.0,80.99999999999999 L -72.0,134.99999999999997 L -198.0,134.99999999999997 L -198.0,107.99999999999999" style="stroke:black;fill:#fff3e0;stroke-width:2.0;stroke-dasharray:-;stroke-linecap:round;stroke-linejoin:round;" /><path d="M 144.0,108.0 L 180.0,108.0 L 207.0,108.0" style="stroke:black;fill:none;stroke-width:2.0;stroke-dasharray:-;stroke-linecap:round;stroke-linejoin:round;" /><path d="M 214.0 108.0 L 207.0 110.7 L 207.0 105.3 Z" style="stroke:black;fill:black;stroke-linecap:butt;stroke-linejoin:miter;" /><path d="M 216.0,108.0 L 216.0,81.0 L 342.0,81.0 L 342.0,135.0 L 216.0,135.0 L 216.0,108.0" style="stroke:black;fill:#f3e5f5;stroke-width:2.0;stroke-dasharray:-;stroke-linecap:round;stroke-linejoin:round;" /><path d="M 71.99999999999999,135.0 L 71.99999999999999,162.0 L 71.99999999999999,180.0" style="stroke:black;fill:none;stroke-width:2.0;stroke-dasharray:-;stroke-linecap:round;stroke-linejoin:round;" /><path d="M 71.99999999999999 187.0 L 69.29999999999998 180.0 L 74.69999999999999 180.0 Z" style="stroke:black;fill:black;stroke-linecap:butt;stroke-linejoin:miter;" /><path d="M -1.5987211554602254e-14,216.0 L -1.5987211554602254e-14,189.0 L 143.99999999999997,189.0 L 143.99999999999997,243.0 L -1.5987211554602254e-14,243.0 L -1.5987211554602254e-14,216.0" style="stroke:black;fill:#e3f2fd;stroke-width:2.0;stroke-dasharray:-;stroke-linecap:round;stroke-linejoin:round;" /><path d="M 71.99999999999999,243.0 L 71.99999999999997,270.0 L 71.99999999999997,288.0" style="stroke:black;fill:none;stroke-width:2.0;stroke-dasharray:-;stroke-linecap:round;stroke-linejoin:round;" /><path d="M 71.99999999999997 295.0 L 69.29999999999997 288.0 L 74.69999999999997 288.0 Z" style="stroke:black;fill:black;stroke-linecap:butt;stroke-linejoin:miter;" /><path d="M -2.398081733190338e-14,324.0 L -2.398081733190338e-14,297.0 L 143.99999999999997,297.0 L 143.99999999999997,351.0 L -2.398081733190338e-14,351.0 L -2.398081733190338e-14,324.0" style="stroke:black;fill:#fce4ec;stroke-width:2.0;stroke-dasharray:-;stroke-linecap:round;stroke-linejoin:round;" /><text x="72.0" y="-12.0" dominant-baseline="central" fill="black" font-size="12" font-family="sans" text-anchor="middle"><tspan x="72.0" dy="12">Web Browser</tspan></text><text x="71.99999999999999" y="96.0" dominant-baseline="central" fill="black" font-size="12" font-family="sans" text-anchor="middle"><tspan x="71.99999999999999" dy="12">API Gateway</tspan></text><text x="-135.0" y="89.99999999999999" dominant-baseline="central" fill="black" font-size="12" font-family="sans" text-anchor="middle"><tspan x="-135.0" dy="12">Auth</tspan><tspan x="-135.0" dy="12">Service</tspan></text><text x="279.0" y="90.0" dominant-baseline="central" fill="black" font-size="12" font-family="sans" text-anchor="middle"><tspan x="279.0" dy="12">Redis</tspan><tspan x="279.0" dy="12">Cache</tspan></text><text x="71.99999999999999" y="204.0" dominant-baseline="central" fill="black" font-size="12" font-family="sans" text-anchor="middle"><tspan x="71.99999999999999" dy="12">App Server</tspan></text><text x="71.99999999999997" y="312.0" dominant-baseline="central" fill="black" font-size="12" font-family="sans" text-anchor="middle"><tspan x="71.99999999999997" dy="12">PostgreSQL</tspan></text></svg>