<?xml version="1.0" encoding="UTF-8" standalone="no"?>
<!DOCTYPE svg PUBLIC "-//W3C//DTD SVG 1.1//EN"
 "http://www.w3.org/Graphics/SVG/1.1/DTD/svg11.dtd">
<!-- Generated by graphviz version 12.2.1 (20241206.2353)
 -->
<!-- Title: Web Application Architecture Pages: 1 -->
<svg width="708pt" height="1228pt"
 viewBox="0.00 0.00 708.00 1227.75" xmlns="http://www.w3.org/2000/svg" xmlns:xlink="http://www.w3.org/1999/xlink">
<g id="graph0" class="graph" transform="scale(1 1) rotate(0) translate(144 1083.75)">
<title>Web Application Architecture</title>
<polygon fill="white" stroke="none" points="-144,144 -144,-1083.75 564,-1083.75 564,144 -144,144"/>
<text text-anchor="middle" x="210" y="-5.5" font-family="Sans-Serif" font-size="15.00" fill="#2d3436">Web Application Architecture</text>
<g id="clust1" class="cluster">
<title>cluster_Web Tier</title>
<path fill="#e5f5fd" stroke="#aeb6be" d="M20,-413.35C20,-413.35 400,-413.35 400,-413.35 406,-413.35 412,-419.35 412,-425.35 412,-425.35 412,-574.9 412,-574.9 412,-580.9 406,-586.9 400,-586.9 400,-586.9 20,-586.9 20,-586.9 14,-586.9 8,-580.9 8,-574.9 8,-574.9 8,-425.35 8,-425.35 8,-419.35 14,-413.35 20,-413.35"/>
<text text-anchor="middle" x="39.62" y="-571.5" font-family="Sans-Serif" font-size="12.00" fill="#2d3436">Web Tier</text>
</g>
<g id="clust2" class="cluster">
<title>cluster_Data Tier</title>
<path fill="#e5f5fd" stroke="#aeb6be" d="M20,-31.75C20,-31.75 112,-31.75 112,-31.75 118,-31.75 124,-37.75 124,-43.75 124,-43.75 124,-384.1 124,-384.1 124,-390.1 118,-396.1 112,-396.1 112,-396.1 20,-396.1 20,-396.1 14,-396.1 8,-390.1 8,-384.1 8,-384.1 8,-43.75 8,-43.75 8,-37.75 14,-31.75 20,-31.75"/>
<text text-anchor="middle" x="40" y="-380.7" font-family="Sans-Serif" font-size="12.00" fill="#2d3436">Data Tier</text>
</g>
<!-- 211085edadd54f6681df7536be15e4eb -->
<g id="node1" class="node">
<title>211085edadd54f6681df7536be15e4eb</title>
<image xlink:href="/Users/eporcu/.cache/uv/environments-v2/cloud-arch-diagrams-dda1180a91263b3a/lib/python3.12/site-packages/resources/aws/network/route-53.png" width="100.8px" height="100.8px" preserveAspectRatio="xMinYMin meet" x="159.6" y="-921.75"/>
<text text-anchor="middle" x="210" y="-804.1" font-family="Sans-Serif" font-size="13.00" fill="#2d3436">DNS</text>
</g>
<!-- 32842d034e6c4b12939f2a93f0aae2b4 -->
<g id="node2" class="node">
<title>32842d034e6c4b12939f2a93f0aae2b4</title>
<image xlink:href="/Users/eporcu/.cache/uv/environments-v2/cloud-arch-diagrams-dda1180a91263b3a/lib/python3.12/site-packages/resources/aws/network/elastic-load-balancing.png" width="100.8px" height="100.8px" preserveAspectRatio="xMinYMin meet" x="159.6" y="-730.95"/>
<text text-anchor="middle" x="210" y="-613.3" font-family="Sans-Serif" font-size="13.00" fill="#2d3436">Load Balancer</text>
</g>
<!-- 211085edadd54f6681df7536be15e4eb&#45;&gt;32842d034e6c4b12939f2a93f0aae2b4 -->
<g id="edge2" class="edge">
<title>211085edadd54f6681df7536be15e4eb&#45;&gt;32842d034e6c4b12939f2a93f0aae2b4</title>
<path fill="none" stroke="#7b8894" d="M210,-803.01C210,-803.01 210,-760.25 210,-760.25"/>
<polygon fill="#7b8894" stroke="#7b8894" points="213.5,-760.25 210,-750.25 206.5,-760.25 213.5,-760.25"/>
</g>
<!-- 4a2bb6aa36db482580ca7d71fde06f32 -->
<g id="node3" class="node">
<title>4a2bb6aa36db482580ca7d71fde06f32</title>
<image xlink:href="/Users/eporcu/.cache/uv/environments-v2/cloud-arch-diagrams-dda1180a91263b3a/lib/python3.12/site-packages/resources/aws/compute/ec2.png" width="100.8px" height="100.8px" preserveAspectRatio="xMinYMin meet" x="303.6" y="-540.15"/>
<text text-anchor="middle" x="354" y="-422.5" font-family="Sans-Serif" font-size="13.00" fill="#2d3436">web&#45;1</text>
</g>
<!-- 32842d034e6c4b12939f2a93f0aae2b4&#45;&gt;4a2bb6aa36db482580ca7d71fde06f32 -->
<g id="edge3" class="edge">
<title>32842d034e6c4b12939f2a93f0aae2b4&#45;&gt;4a2bb6aa36db482580ca7d71fde06f32</title>
<path fill="none" stroke="#7b8894" d="M260.36,-680.75C301.89,-680.75 354,-680.75 354,-680.75 354,-680.75 354,-569.41 354,-569.41"/>
<polygon fill="#7b8894" stroke="#7b8894" points="357.5,-569.41 354,-559.41 350.5,-569.41 357.5,-569.41"/>
</g>
<!-- ab875cd108a547a38260c25721cf588b -->
<g id="node4" class="node">
<title>ab875cd108a547a38260c25721cf588b</title>
<image xlink:href="/Users/eporcu/.cache/uv/environments-v2/cloud-arch-diagrams-dda1180a91263b3a/lib/python3.12/site-packages/resources/aws/compute/ec2.png" width="100.8px" height="100.8px" preserveAspectRatio="xMinYMin meet" x="15.6" y="-540.15"/>
<text text-anchor="middle" x="66" y="-422.5" font-family="Sans-Serif" font-size="13.00" fill="#2d3436">web&#45;2</text>
</g>
<!-- 32842d034e6c4b12939f2a93f0aae2b4&#45;&gt;ab875cd108a547a38260c25721cf588b -->
<g id="edge4" class="edge">
<title>32842d034e6c4b12939f2a93f0aae2b4&#45;&gt;ab875cd108a547a38260c25721cf588b</title>
<path fill="none" stroke="#7b8894" d="M159.64,-680.75C118.11,-680.75 66,-680.75 66,-680.75 66,-680.75 66,-569.41 66,-569.41"/>
<polygon fill="#7b8894" stroke="#7b8894" points="69.5,-569.41 66,-559.41 62.5,-569.41 69.5,-569.41"/>
</g>
<!-- 938562313ebf44a29067a45b8c76a731 -->
<g id="node5" class="node">
<title>938562313ebf44a29067a45b8c76a731</title>
<image xlink:href="/Users/eporcu/.cache/uv/environments-v2/cloud-arch-diagrams-dda1180a91263b3a/lib/python3.12/site-packages/resources/aws/compute/ec2.png" width="100.8px" height="100.8px" preserveAspectRatio="xMinYMin meet" x="159.6" y="-540.15"/>
<text text-anchor="middle" x="210" y="-422.5" font-family="Sans-Serif" font-size="13.00" fill="#2d3436">web&#45;3</text>
</g>
<!-- 32842d034e6c4b12939f2a93f0aae2b4&#45;&gt;938562313ebf44a29067a45b8c76a731 -->
<g id="edge5" class="edge">
<title>32842d034e6c4b12939f2a93f0aae2b4&#45;&gt;938562313ebf44a29067a45b8c76a731</title>
<path fill="none" stroke="#7b8894" d="M210,-612.21C210,-612.21 210,-569.45 210,-569.45"/>
<polygon fill="#7b8894" stroke="#7b8894" points="213.5,-569.45 210,-559.45 206.5,-569.45 213.5,-569.45"/>
</g>
<!-- 606cf849485044feac6d610372edfbf0 -->
<g id="node6" class="node">
<title>606cf849485044feac6d610372edfbf0</title>
<image xlink:href="/Users/eporcu/.cache/uv/environments-v2/cloud-arch-diagrams-dda1180a91263b3a/lib/python3.12/site-packages/resources/aws/database/rds.png" width="100.8px" height="100.8px" preserveAspectRatio="xMinYMin meet" x="15.6" y="-349.35"/>
<text text-anchor="middle" x="66" y="-231.7" font-family="Sans-Serif" font-size="13.00" fill="#2d3436">PostgreSQL</text>
</g>
<!-- 4a2bb6aa36db482580ca7d71fde06f32&#45;&gt;606cf849485044feac6d610372edfbf0 -->
<g id="edge6" class="edge">
<title>4a2bb6aa36db482580ca7d71fde06f32&#45;&gt;606cf849485044feac6d610372edfbf0</title>
<path fill="none" stroke="#7b8894" d="M337.2,-421.55C337.2,-412.21 337.2,-405.75 337.2,-405.75 337.2,-405.75 66,-405.75 66,-405.75 66,-405.75 66,-378.71 66,-378.71"/>
<polygon fill="#7b8894" stroke="#7b8894" points="69.5,-378.71 66,-368.71 62.5,-378.71 69.5,-378.71"/>
</g>
<!-- a342485cd4f74f808e01dfc8ad17f22d -->
<g id="node8" class="node">
<title>a342485cd4f74f808e01dfc8ad17f22d</title>
<image xlink:href="/Users/eporcu/.cache/uv/environments-v2/cloud-arch-diagrams-dda1180a91263b3a/lib/python3.12/site-packages/resources/aws/database/elasticache.png" width="100.8px" height="100.8px" preserveAspectRatio="xMinYMin meet" x="159.6" y="-349.35"/>
<text text-anchor="middle" x="210" y="-231.7" font-family="Sans-Serif" font-size="13.00" fill="#2d3436">Redis</text>
</g>
<!-- 4a2bb6aa36db482580ca7d71fde06f32&#45;&gt;a342485cd4f74f808e01dfc8ad17f22d -->
<g id="edge9" class="edge">
<title>4a2bb6aa36db482580ca7d71fde06f32&#45;&gt;a342485cd4f74f808e01dfc8ad17f22d</title>
<path fill="none" stroke="#7b8894" d="M370.8,-421.52C370.8,-396.76 370.8,-374.75 370.8,-374.75 370.8,-374.75 243.6,-374.75 243.6,-374.75 243.6,-374.75 243.6,-374 243.6,-374"/>
<polygon fill="#7b8894" stroke="#7b8894" points="247.1,-378.72 243.6,-368.72 240.1,-378.72 247.1,-378.72"/>
</g>
<!-- dc04b5e60bac4641a021035e973cbebe -->
<g id="node9" class="node">
<title>dc04b5e60bac4641a021035e973cbebe</title>
<image xlink:href="/Users/eporcu/.cache/uv/environments-v2/cloud-arch-diagrams-dda1180a91263b3a/lib/python3.12/site-packages/resources/aws/storage/simple-storage-service-s3.png" width="100.8px" height="100.8px" preserveAspectRatio="xMinYMin meet" x="303.6" y="-349.35"/>
<text text-anchor="middle" x="354" y="-231.7" font-family="Sans-Serif" font-size="13.00" fill="#2d3436">Static Assets</text>
</g>
<!-- 4a2bb6aa36db482580ca7d71fde06f32&#45;&gt;dc04b5e60bac4641a021035e973cbebe -->
<g id="edge12" class="edge">
<title>4a2bb6aa36db482580ca7d71fde06f32&#45;&gt;dc04b5e60bac4641a021035e973cbebe</title>
<path fill="none" stroke="#7b8894" d="M387.6,-421.41C387.6,-421.41 387.6,-378.65 387.6,-378.65"/>
<polygon fill="#7b8894" stroke="#7b8894" points="391.1,-378.65 387.6,-368.65 384.1,-378.65 391.1,-378.65"/>
</g>
<!-- ab875cd108a547a38260c25721cf588b&#45;&gt;606cf849485044feac6d610372edfbf0 -->
<g id="edge7" class="edge">
<title>ab875cd108a547a38260c25721cf588b&#45;&gt;606cf849485044feac6d610372edfbf0</title>
<path fill="none" stroke="#7b8894" d="M32.4,-421.41C32.4,-421.41 32.4,-378.65 32.4,-378.65"/>
<polygon fill="#7b8894" stroke="#7b8894" points="35.9,-378.65 32.4,-368.65 28.9,-378.65 35.9,-378.65"/>
</g>
<!-- ab875cd108a547a38260c25721cf588b&#45;&gt;a342485cd4f74f808e01dfc8ad17f22d -->
<g id="edge10" class="edge">
<title>ab875cd108a547a38260c25721cf588b&#45;&gt;a342485cd4f74f808e01dfc8ad17f22d</title>
<path fill="none" stroke="#7b8894" d="M82.8,-421.38C82.8,-400.41 82.8,-382.75 82.8,-382.75 82.8,-382.75 193.2,-382.75 193.2,-382.75 193.2,-382.75 193.2,-378.5 193.2,-378.5"/>
<polygon fill="#7b8894" stroke="#7b8894" points="196.7,-378.5 193.2,-368.5 189.7,-378.5 196.7,-378.5"/>
</g>
<!-- ab875cd108a547a38260c25721cf588b&#45;&gt;dc04b5e60bac4641a021035e973cbebe -->
<g id="edge13" class="edge">
<title>ab875cd108a547a38260c25721cf588b&#45;&gt;dc04b5e60bac4641a021035e973cbebe</title>
<path fill="none" stroke="#7b8894" d="M99.6,-421.53C99.6,-404.38 99.6,-390.75 99.6,-390.75 99.6,-390.75 320.4,-390.75 320.4,-390.75 320.4,-390.75 320.4,-378.62 320.4,-378.62"/>
<polygon fill="#7b8894" stroke="#7b8894" points="323.9,-378.62 320.4,-368.62 316.9,-378.62 323.9,-378.62"/>
</g>
<!-- 938562313ebf44a29067a45b8c76a731&#45;&gt;606cf849485044feac6d610372edfbf0 -->
<g id="edge8" class="edge">
<title>938562313ebf44a29067a45b8c76a731&#45;&gt;606cf849485044feac6d610372edfbf0</title>
<path fill="none" stroke="#7b8894" d="M176.4,-421.6C176.4,-416.77 176.4,-413.75 176.4,-413.75 176.4,-413.75 49.2,-413.75 49.2,-413.75 49.2,-413.75 49.2,-378.57 49.2,-378.57"/>
<polygon fill="#7b8894" stroke="#7b8894" points="52.7,-378.57 49.2,-368.57 45.7,-378.57 52.7,-378.57"/>
</g>
<!-- 938562313ebf44a29067a45b8c76a731&#45;&gt;a342485cd4f74f808e01dfc8ad17f22d -->
<g id="edge11" class="edge">
<title>938562313ebf44a29067a45b8c76a731&#45;&gt;a342485cd4f74f808e01dfc8ad17f22d</title>
<path fill="none" stroke="#7b8894" d="M210,-421.41C210,-421.41 210,-378.65 210,-378.65"/>
<polygon fill="#7b8894" stroke="#7b8894" points="213.5,-378.65 210,-368.65 206.5,-378.65 213.5,-378.65"/>
</g>
<!-- 938562313ebf44a29067a45b8c76a731&#45;&gt;dc04b5e60bac4641a021035e973cbebe -->
<g id="edge14" class="edge">
<title>938562313ebf44a29067a45b8c76a731&#45;&gt;dc04b5e60bac4641a021035e973cbebe</title>
<path fill="none" stroke="#7b8894" d="M226.8,-421.44C226.8,-407.89 226.8,-397.75 226.8,-397.75 226.8,-397.75 354,-397.75 354,-397.75 354,-397.75 354,-378.81 354,-378.81"/>
<polygon fill="#7b8894" stroke="#7b8894" points="357.5,-378.81 354,-368.81 350.5,-378.81 357.5,-378.81"/>
</g>
<!-- e5d22292845c46ab9940473456c588da -->
<g id="node7" class="node">
<title>e5d22292845c46ab9940473456c588da</title>
<image xlink:href="/Users/eporcu/.cache/uv/environments-v2/cloud-arch-diagrams-dda1180a91263b3a/lib/python3.12/site-packages/resources/aws/database/rds.png" width="100.8px" height="100.8px" preserveAspectRatio="xMinYMin meet" x="15.6" y="-158.55"/>
<text text-anchor="middle" x="66" y="-40.9" font-family="Sans-Serif" font-size="13.00" fill="#2d3436">read&#45;replica</text>
</g>
<!-- 606cf849485044feac6d610372edfbf0&#45;&gt;e5d22292845c46ab9940473456c588da -->
<g id="edge1" class="edge">
<title>606cf849485044feac6d610372edfbf0&#45;&gt;e5d22292845c46ab9940473456c588da</title>
<path fill="none" stroke="#7b8894" d="M66,-230.61C66,-212.96 66,-193.97 66,-176.34"/>
</g>
</g>
</svg>
