<?xml version="1.0" encoding="UTF-8" standalone="no"?>
<!DOCTYPE svg PUBLIC "-//W3C//DTD SVG 1.1//EN"
 "http://www.w3.org/Graphics/SVG/1.1/DTD/svg11.dtd">
<!-- Generated by graphviz version 2.43.0 (0)
 -->
<!-- Title: erd Pages: 1 -->
<svg width="819pt" height="394pt"
 viewBox="0.00 0.00 818.60 394.10" xmlns="http://www.w3.org/2000/svg" xmlns:xlink="http://www.w3.org/1999/xlink">
<g id="graph0" class="graph" transform="scale(1 1) rotate(0) translate(28.8 365.3)">
<title>erd</title>
<polygon fill="white" stroke="transparent" points="-28.8,28.8 -28.8,-365.3 789.8,-365.3 789.8,28.8 -28.8,28.8"/>
<text text-anchor="middle" x="380.5" y="-318.1" font-family="Helvetica,sans-Serif" font-size="18.00">E&#45;Commerce ERD</text>
<!-- user -->
<g id="node1" class="node">
<title>user</title>
<polygon fill="#2196f3" stroke="transparent" points="619,-277.5 619,-298.5 756,-298.5 756,-277.5 619,-277.5"/>
<polygon fill="none" stroke="#888888" points="619,-277.5 619,-298.5 756,-298.5 756,-277.5 619,-277.5"/>
<text text-anchor="start" x="676.5" y="-286.5" font-family="Helvetica,sans-Serif" font-weight="bold" font-size="10.00" fill="white">User</text>
<polygon fill="none" stroke="#888888" points="619,-256.5 619,-277.5 644,-277.5 644,-256.5 619,-256.5"/>
<text text-anchor="start" x="624" y="-265.5" font-family="Helvetica,sans-Serif" font-weight="bold" font-size="10.00" fill="#888888">PK</text>
<polygon fill="none" stroke="#888888" points="644,-256.5 644,-277.5 700,-277.5 700,-256.5 644,-256.5"/>
<text text-anchor="start" x="649" y="-264.5" font-family="Helvetica,sans-Serif" font-size="10.00">id</text>
<polygon fill="none" stroke="#888888" points="700,-256.5 700,-277.5 756,-277.5 756,-256.5 700,-256.5"/>
<text text-anchor="start" x="705" y="-264.5" font-family="Helvetica,sans-Serif" font-size="10.00" fill="#888888">uuid</text>
<polygon fill="none" stroke="#888888" points="619,-235.5 619,-256.5 644,-256.5 644,-235.5 619,-235.5"/>
<polygon fill="none" stroke="#888888" points="644,-235.5 644,-256.5 700,-256.5 700,-235.5 644,-235.5"/>
<text text-anchor="start" x="649" y="-243.5" font-family="Helvetica,sans-Serif" font-size="10.00">email</text>
<polygon fill="none" stroke="#888888" points="700,-235.5 700,-256.5 756,-256.5 756,-235.5 700,-235.5"/>
<text text-anchor="start" x="705" y="-243.5" font-family="Helvetica,sans-Serif" font-size="10.00" fill="#888888">varchar</text>
<polygon fill="none" stroke="#888888" points="619,-214.5 619,-235.5 644,-235.5 644,-214.5 619,-214.5"/>
<polygon fill="none" stroke="#888888" points="644,-214.5 644,-235.5 700,-235.5 700,-214.5 644,-214.5"/>
<text text-anchor="start" x="649" y="-222.5" font-family="Helvetica,sans-Serif" font-size="10.00">name</text>
<polygon fill="none" stroke="#888888" points="700,-214.5 700,-235.5 756,-235.5 756,-214.5 700,-214.5"/>
<text text-anchor="start" x="705" y="-222.5" font-family="Helvetica,sans-Serif" font-size="10.00" fill="#888888">varchar</text>
<polygon fill="none" stroke="#888888" points="619,-193.5 619,-214.5 644,-214.5 644,-193.5 619,-193.5"/>
<polygon fill="none" stroke="#888888" points="644,-193.5 644,-214.5 700,-214.5 700,-193.5 644,-193.5"/>
<text text-anchor="start" x="649" y="-201.5" font-family="Helvetica,sans-Serif" font-size="10.00">created_at</text>
<polygon fill="none" stroke="#888888" points="700,-193.5 700,-214.5 756,-214.5 756,-193.5 700,-193.5"/>
<text text-anchor="start" x="705" y="-201.5" font-family="Helvetica,sans-Serif" font-size="10.00" fill="#888888">timestamp</text>
<polygon fill="none" stroke="#888888" points="617.5,-193 617.5,-300 756.5,-300 756.5,-193 617.5,-193"/>
</g>
<!-- order -->
<g id="node2" class="node">
<title>order</title>
<polygon fill="#4caf50" stroke="transparent" points="303,-286.5 303,-307.5 443,-307.5 443,-286.5 303,-286.5"/>
<polygon fill="none" stroke="#888888" points="303,-286.5 303,-307.5 443,-307.5 443,-286.5 303,-286.5"/>
<text text-anchor="start" x="359.5" y="-295.5" font-family="Helvetica,sans-Serif" font-weight="bold" font-size="10.00" fill="white">Order</text>
<polygon fill="none" stroke="#888888" points="303,-265.5 303,-286.5 328,-286.5 328,-265.5 303,-265.5"/>
<text text-anchor="start" x="308" y="-274.5" font-family="Helvetica,sans-Serif" font-weight="bold" font-size="10.00" fill="#888888">PK</text>
<polygon fill="none" stroke="#888888" points="328,-265.5 328,-286.5 387,-286.5 387,-265.5 328,-265.5"/>
<text text-anchor="start" x="333" y="-273.5" font-family="Helvetica,sans-Serif" font-size="10.00">id</text>
<polygon fill="none" stroke="#888888" points="387,-265.5 387,-286.5 443,-286.5 443,-265.5 387,-265.5"/>
<text text-anchor="start" x="392" y="-273.5" font-family="Helvetica,sans-Serif" font-size="10.00" fill="#888888">uuid</text>
<polygon fill="none" stroke="#888888" points="303,-244.5 303,-265.5 328,-265.5 328,-244.5 303,-244.5"/>
<text text-anchor="start" x="308" y="-253.5" font-family="Helvetica,sans-Serif" font-weight="bold" font-size="10.00" fill="#888888">FK</text>
<polygon fill="none" stroke="#888888" points="328,-244.5 328,-265.5 387,-265.5 387,-244.5 328,-244.5"/>
<text text-anchor="start" x="333" y="-252.5" font-family="Helvetica,sans-Serif" font-size="10.00">user_id</text>
<polygon fill="none" stroke="#888888" points="387,-244.5 387,-265.5 443,-265.5 443,-244.5 387,-244.5"/>
<text text-anchor="start" x="392" y="-252.5" font-family="Helvetica,sans-Serif" font-size="10.00" fill="#888888">uuid</text>
<polygon fill="none" stroke="#888888" points="303,-223.5 303,-244.5 328,-244.5 328,-223.5 303,-223.5"/>
<polygon fill="none" stroke="#888888" points="328,-223.5 328,-244.5 387,-244.5 387,-223.5 328,-223.5"/>
<text text-anchor="start" x="333" y="-231.5" font-family="Helvetica,sans-Serif" font-size="10.00">status</text>
<polygon fill="none" stroke="#888888" points="387,-223.5 387,-244.5 443,-244.5 443,-223.5 387,-223.5"/>
<text text-anchor="start" x="392" y="-231.5" font-family="Helvetica,sans-Serif" font-size="10.00" fill="#888888">enum</text>
<polygon fill="none" stroke="#888888" points="303,-202.5 303,-223.5 328,-223.5 328,-202.5 303,-202.5"/>
<polygon fill="none" stroke="#888888" points="328,-202.5 328,-223.5 387,-223.5 387,-202.5 328,-202.5"/>
<text text-anchor="start" x="333" y="-210.5" font-family="Helvetica,sans-Serif" font-size="10.00">total_cents</text>
<polygon fill="none" stroke="#888888" points="387,-202.5 387,-223.5 443,-223.5 443,-202.5 387,-202.5"/>
<text text-anchor="start" x="392" y="-210.5" font-family="Helvetica,sans-Serif" font-size="10.00" fill="#888888">integer</text>
<polygon fill="none" stroke="#888888" points="303,-181.5 303,-202.5 328,-202.5 328,-181.5 303,-181.5"/>
<polygon fill="none" stroke="#888888" points="328,-181.5 328,-202.5 387,-202.5 387,-181.5 328,-181.5"/>
<text text-anchor="start" x="333" y="-189.5" font-family="Helvetica,sans-Serif" font-size="10.00">placed_at</text>
<polygon fill="none" stroke="#888888" points="387,-181.5 387,-202.5 443,-202.5 443,-181.5 387,-181.5"/>
<text text-anchor="start" x="392" y="-189.5" font-family="Helvetica,sans-Serif" font-size="10.00" fill="#888888">timestamp</text>
<polygon fill="none" stroke="#888888" points="302,-180.5 302,-308.5 444,-308.5 444,-180.5 302,-180.5"/>
</g>
<!-- order&#45;&gt;user -->
<g id="edge1" class="edge">
<title>order&#45;&gt;user</title>
<path fill="none" stroke="#555555" d="M454.24,-245.01C504.72,-245.34 569.17,-245.75 617.29,-246.06"/>
<polygon fill="#555555" stroke="#555555" points="454.02,-245.01 444.05,-240.45 449.02,-244.98 444.02,-244.95 444.02,-244.95 444.02,-244.95 449.02,-244.98 443.99,-249.45 454.02,-245.01 454.02,-245.01"/>
<text text-anchor="middle" x="528.5" y="-248.3" font-family="Helvetica,sans-Serif" font-size="9.00">belongs to</text>
</g>
<!-- order_item -->
<g id="node3" class="node">
<title>order_item</title>
<polygon fill="#ff9800" stroke="transparent" points="1.5,-193.5 1.5,-214.5 148.5,-214.5 148.5,-193.5 1.5,-193.5"/>
<polygon fill="none" stroke="#888888" points="1.5,-193.5 1.5,-214.5 148.5,-214.5 148.5,-193.5 1.5,-193.5"/>
<text text-anchor="start" x="51.5" y="-202.5" font-family="Helvetica,sans-Serif" font-weight="bold" font-size="10.00" fill="white">OrderItem</text>
<polygon fill="none" stroke="#888888" points="1.5,-172.5 1.5,-193.5 26.5,-193.5 26.5,-172.5 1.5,-172.5"/>
<text text-anchor="start" x="6.5" y="-181.5" font-family="Helvetica,sans-Serif" font-weight="bold" font-size="10.00" fill="#888888">PK</text>
<polygon fill="none" stroke="#888888" points="26.5,-172.5 26.5,-193.5 108.5,-193.5 108.5,-172.5 26.5,-172.5"/>
<text text-anchor="start" x="31.5" y="-180.5" font-family="Helvetica,sans-Serif" font-size="10.00">id</text>
<polygon fill="none" stroke="#888888" points="108.5,-172.5 108.5,-193.5 148.5,-193.5 148.5,-172.5 108.5,-172.5"/>
<text text-anchor="start" x="113.5" y="-180.5" font-family="Helvetica,sans-Serif" font-size="10.00" fill="#888888">uuid</text>
<polygon fill="none" stroke="#888888" points="1.5,-151.5 1.5,-172.5 26.5,-172.5 26.5,-151.5 1.5,-151.5"/>
<text text-anchor="start" x="6.5" y="-160.5" font-family="Helvetica,sans-Serif" font-weight="bold" font-size="10.00" fill="#888888">FK</text>
<polygon fill="none" stroke="#888888" points="26.5,-151.5 26.5,-172.5 108.5,-172.5 108.5,-151.5 26.5,-151.5"/>
<text text-anchor="start" x="31.5" y="-159.5" font-family="Helvetica,sans-Serif" font-size="10.00">order_id</text>
<polygon fill="none" stroke="#888888" points="108.5,-151.5 108.5,-172.5 148.5,-172.5 148.5,-151.5 108.5,-151.5"/>
<text text-anchor="start" x="113.5" y="-159.5" font-family="Helvetica,sans-Serif" font-size="10.00" fill="#888888">uuid</text>
<polygon fill="none" stroke="#888888" points="1.5,-130.5 1.5,-151.5 26.5,-151.5 26.5,-130.5 1.5,-130.5"/>
<text text-anchor="start" x="6.5" y="-139.5" font-family="Helvetica,sans-Serif" font-weight="bold" font-size="10.00" fill="#888888">FK</text>
<polygon fill="none" stroke="#888888" points="26.5,-130.5 26.5,-151.5 108.5,-151.5 108.5,-130.5 26.5,-130.5"/>
<text text-anchor="start" x="31.5" y="-138.5" font-family="Helvetica,sans-Serif" font-size="10.00">product_id</text>
<polygon fill="none" stroke="#888888" points="108.5,-130.5 108.5,-151.5 148.5,-151.5 148.5,-130.5 108.5,-130.5"/>
<text text-anchor="start" x="113.5" y="-138.5" font-family="Helvetica,sans-Serif" font-size="10.00" fill="#888888">uuid</text>
<polygon fill="none" stroke="#888888" points="1.5,-109.5 1.5,-130.5 26.5,-130.5 26.5,-109.5 1.5,-109.5"/>
<polygon fill="none" stroke="#888888" points="26.5,-109.5 26.5,-130.5 108.5,-130.5 108.5,-109.5 26.5,-109.5"/>
<text text-anchor="start" x="31.5" y="-117.5" font-family="Helvetica,sans-Serif" font-size="10.00">quantity</text>
<polygon fill="none" stroke="#888888" points="108.5,-109.5 108.5,-130.5 148.5,-130.5 148.5,-109.5 108.5,-109.5"/>
<text text-anchor="start" x="113.5" y="-117.5" font-family="Helvetica,sans-Serif" font-size="10.00" fill="#888888">integer</text>
<polygon fill="none" stroke="#888888" points="1.5,-88.5 1.5,-109.5 26.5,-109.5 26.5,-88.5 1.5,-88.5"/>
<polygon fill="none" stroke="#888888" points="26.5,-88.5 26.5,-109.5 108.5,-109.5 108.5,-88.5 26.5,-88.5"/>
<text text-anchor="start" x="31.5" y="-96.5" font-family="Helvetica,sans-Serif" font-size="10.00">unit_price_cents</text>
<polygon fill="none" stroke="#888888" points="108.5,-88.5 108.5,-109.5 148.5,-109.5 148.5,-88.5 108.5,-88.5"/>
<text text-anchor="start" x="113.5" y="-96.5" font-family="Helvetica,sans-Serif" font-size="10.00" fill="#888888">integer</text>
<polygon fill="none" stroke="#888888" points="0,-87.5 0,-215.5 149,-215.5 149,-87.5 0,-87.5"/>
</g>
<!-- order_item&#45;&gt;order -->
<g id="edge2" class="edge">
<title>order_item&#45;&gt;order</title>
<path fill="none" stroke="#555555" d="M158.92,-177.66C203.96,-191.79 258.94,-209.04 301.77,-222.47"/>
<polygon fill="#555555" stroke="#555555" points="158.71,-177.6 150.52,-170.31 153.94,-176.1 149.17,-174.61 149.17,-174.61 149.17,-174.61 153.94,-176.1 147.83,-178.9 158.71,-177.6 158.71,-177.6"/>
<text text-anchor="middle" x="225.5" y="-206.3" font-family="Helvetica,sans-Serif" font-size="9.00">line item of</text>
</g>
<!-- product -->
<g id="node4" class="node">
<title>product</title>
<polygon fill="#9c27b0" stroke="transparent" points="309,-95.5 309,-116.5 438,-116.5 438,-95.5 309,-95.5"/>
<polygon fill="none" stroke="#888888" points="309,-95.5 309,-116.5 438,-116.5 438,-95.5 309,-95.5"/>
<text text-anchor="start" x="355" y="-104.5" font-family="Helvetica,sans-Serif" font-weight="bold" font-size="10.00" fill="white">Product</text>
<polygon fill="none" stroke="#888888" points="309,-74.5 309,-95.5 334,-95.5 334,-74.5 309,-74.5"/>
<text text-anchor="start" x="314" y="-83.5" font-family="Helvetica,sans-Serif" font-weight="bold" font-size="10.00" fill="#888888">PK</text>
<polygon fill="none" stroke="#888888" points="334,-74.5 334,-95.5 395,-95.5 395,-74.5 334,-74.5"/>
<text text-anchor="start" x="339" y="-82.5" font-family="Helvetica,sans-Serif" font-size="10.00">id</text>
<polygon fill="none" stroke="#888888" points="395,-74.5 395,-95.5 438,-95.5 438,-74.5 395,-74.5"/>
<text text-anchor="start" x="400" y="-82.5" font-family="Helvetica,sans-Serif" font-size="10.00" fill="#888888">uuid</text>
<polygon fill="none" stroke="#888888" points="309,-53.5 309,-74.5 334,-74.5 334,-53.5 309,-53.5"/>
<text text-anchor="start" x="314" y="-62.5" font-family="Helvetica,sans-Serif" font-weight="bold" font-size="10.00" fill="#888888">FK</text>
<polygon fill="none" stroke="#888888" points="334,-53.5 334,-74.5 395,-74.5 395,-53.5 334,-53.5"/>
<text text-anchor="start" x="339" y="-61.5" font-family="Helvetica,sans-Serif" font-size="10.00">category_id</text>
<polygon fill="none" stroke="#888888" points="395,-53.5 395,-74.5 438,-74.5 438,-53.5 395,-53.5"/>
<text text-anchor="start" x="400" y="-61.5" font-family="Helvetica,sans-Serif" font-size="10.00" fill="#888888">uuid</text>
<polygon fill="none" stroke="#888888" points="309,-32.5 309,-53.5 334,-53.5 334,-32.5 309,-32.5"/>
<polygon fill="none" stroke="#888888" points="334,-32.5 334,-53.5 395,-53.5 395,-32.5 334,-32.5"/>
<text text-anchor="start" x="339" y="-40.5" font-family="Helvetica,sans-Serif" font-size="10.00">name</text>
<polygon fill="none" stroke="#888888" points="395,-32.5 395,-53.5 438,-53.5 438,-32.5 395,-32.5"/>
<text text-anchor="start" x="400" y="-40.5" font-family="Helvetica,sans-Serif" font-size="10.00" fill="#888888">varchar</text>
<polygon fill="none" stroke="#888888" points="309,-11.5 309,-32.5 334,-32.5 334,-11.5 309,-11.5"/>
<polygon fill="none" stroke="#888888" points="334,-11.5 334,-32.5 395,-32.5 395,-11.5 334,-11.5"/>
<text text-anchor="start" x="339" y="-19.5" font-family="Helvetica,sans-Serif" font-size="10.00">price_cents</text>
<polygon fill="none" stroke="#888888" points="395,-11.5 395,-32.5 438,-32.5 438,-11.5 395,-11.5"/>
<text text-anchor="start" x="400" y="-19.5" font-family="Helvetica,sans-Serif" font-size="10.00" fill="#888888">integer</text>
<polygon fill="none" stroke="#888888" points="307.5,-11 307.5,-118 438.5,-118 438.5,-11 307.5,-11"/>
</g>
<!-- order_item&#45;&gt;product -->
<g id="edge3" class="edge">
<title>order_item&#45;&gt;product</title>
<path fill="none" stroke="#555555" d="M159.02,-126.99C206,-113.21 263.76,-96.26 307.28,-83.49"/>
<polygon fill="#555555" stroke="#555555" points="158.77,-127.07 147.91,-125.56 153.97,-128.47 149.17,-129.88 149.17,-129.88 149.17,-129.88 153.97,-128.47 150.44,-134.2 158.77,-127.07 158.77,-127.07"/>
<text text-anchor="middle" x="225.5" y="-116.3" font-family="Helvetica,sans-Serif" font-size="9.00">references</text>
</g>
<!-- category -->
<g id="node5" class="node">
<title>category</title>
<polygon fill="#f44336" stroke="transparent" points="614,-84.5 614,-105.5 760,-105.5 760,-84.5 614,-84.5"/>
<polygon fill="none" stroke="#888888" points="614,-84.5 614,-105.5 760,-105.5 760,-84.5 614,-84.5"/>
<text text-anchor="start" x="665.5" y="-93.5" font-family="Helvetica,sans-Serif" font-weight="bold" font-size="10.00" fill="white">Category</text>
<polygon fill="none" stroke="#888888" points="614,-63.5 614,-84.5 639,-84.5 639,-63.5 614,-63.5"/>
<text text-anchor="start" x="619" y="-72.5" font-family="Helvetica,sans-Serif" font-weight="bold" font-size="10.00" fill="#888888">PK</text>
<polygon fill="none" stroke="#888888" points="639,-63.5 639,-84.5 689,-84.5 689,-63.5 639,-63.5"/>
<text text-anchor="start" x="644" y="-71.5" font-family="Helvetica,sans-Serif" font-size="10.00">id</text>
<polygon fill="none" stroke="#888888" points="689,-63.5 689,-84.5 760,-84.5 760,-63.5 689,-63.5"/>
<text text-anchor="start" x="694" y="-71.5" font-family="Helvetica,sans-Serif" font-size="10.00" fill="#888888">uuid</text>
<polygon fill="none" stroke="#888888" points="614,-42.5 614,-63.5 639,-63.5 639,-42.5 614,-42.5"/>
<text text-anchor="start" x="619" y="-51.5" font-family="Helvetica,sans-Serif" font-weight="bold" font-size="10.00" fill="#888888">FK</text>
<polygon fill="none" stroke="#888888" points="639,-42.5 639,-63.5 689,-63.5 689,-42.5 639,-42.5"/>
<text text-anchor="start" x="644" y="-50.5" font-family="Helvetica,sans-Serif" font-size="10.00">parent_id</text>
<polygon fill="none" stroke="#888888" points="689,-42.5 689,-63.5 760,-63.5 760,-42.5 689,-42.5"/>
<text text-anchor="start" x="694" y="-50.5" font-family="Helvetica,sans-Serif" font-size="10.00" fill="#888888">uuid (nullable)</text>
<polygon fill="none" stroke="#888888" points="614,-21.5 614,-42.5 639,-42.5 639,-21.5 614,-21.5"/>
<polygon fill="none" stroke="#888888" points="639,-21.5 639,-42.5 689,-42.5 689,-21.5 639,-21.5"/>
<text text-anchor="start" x="644" y="-29.5" font-family="Helvetica,sans-Serif" font-size="10.00">name</text>
<polygon fill="none" stroke="#888888" points="689,-21.5 689,-42.5 760,-42.5 760,-21.5 689,-21.5"/>
<text text-anchor="start" x="694" y="-29.5" font-family="Helvetica,sans-Serif" font-size="10.00" fill="#888888">varchar</text>
<polygon fill="none" stroke="#888888" points="614,-0.5 614,-21.5 639,-21.5 639,-0.5 614,-0.5"/>
<polygon fill="none" stroke="#888888" points="639,-0.5 639,-21.5 689,-21.5 689,-0.5 639,-0.5"/>
<text text-anchor="start" x="644" y="-8.5" font-family="Helvetica,sans-Serif" font-size="10.00">slug</text>
<polygon fill="none" stroke="#888888" points="689,-0.5 689,-21.5 760,-21.5 760,-0.5 689,-0.5"/>
<text text-anchor="start" x="694" y="-8.5" font-family="Helvetica,sans-Serif" font-size="10.00" fill="#888888">varchar</text>
<polygon fill="none" stroke="#888888" points="613,0 613,-107 761,-107 761,0 613,0"/>
</g>
<!-- product&#45;&gt;category -->
<g id="edge4" class="edge">
<title>product&#45;&gt;category</title>
<path fill="none" stroke="#555555" d="M448.7,-61.87C498.47,-60.11 563.55,-57.82 612.97,-56.07"/>
<polygon fill="#555555" stroke="#555555" points="448.64,-61.87 438.49,-57.72 443.64,-62.04 438.65,-62.22 438.65,-62.22 438.65,-62.22 443.64,-62.04 438.81,-66.72 448.64,-61.87 448.64,-61.87"/>
<text text-anchor="middle" x="528.5" y="-63.3" font-family="Helvetica,sans-Serif" font-size="9.00">categorised as</text>
</g>
<!-- category&#45;&gt;category -->
<g id="edge5" class="edge">
<title>category&#45;&gt;category</title>
<path fill="none" stroke="#555555" stroke-dasharray="5,2" d="M658.84,-107.13C653.47,-137.22 662.85,-165 687,-165 708.41,-165 718.22,-143.16 716.42,-117.23"/>
<polygon fill="#555555" stroke="#555555" points="719.87,-116.62 715.16,-107.13 712.92,-117.49 719.87,-116.62"/>
<text text-anchor="middle" x="687" y="-167.8" font-family="Helvetica,sans-Serif" font-size="9.00">parent</text>
</g>
</g>
</svg>
