<svg xmlns="http://www.w3.org/2000/svg" xmlns:xlink="http://www.w3.org/1999/xlink" contentStyleType="text/css" data-diagram-type="CLASS" height="585px" preserveAspectRatio="none" style="width:593px;height:585px;background:#FFFFFF;" version="1.1" viewBox="0 0 593 585" width="593px" zoomAndPan="magnify"><?plantuml 1.2026.3beta6?><defs/><g><g class="title" data-source-line="17"><text fill="#000000" font-family="sans-serif" font-size="14" font-weight="700" lengthAdjust="spacing" textLength="135.4746" x="225.5518" y="22.9951">E-Commerce ERD</text></g><!--class user--><g class="entity" data-qualified-name="user" data-source-line="19" id="ent0002"><rect fill="#FAFAFA" height="113.1875" rx="2.5" ry="2.5" style="stroke:#555555;stroke-width:1.5;" width="195.4629" x="7" y="44.2969"/><ellipse cx="86.8057" cy="60.2969" fill="#ADD1B2" rx="11" ry="11" style="stroke:#181818;stroke-width:1;"/><path d="M90.915,66.2969 L83.1963,66.2969 L83.1963,53.9063 L90.915,53.9063 L90.915,56.0625 L85.6494,56.0625 L85.6494,58.7344 L90.415,58.7344 L90.415,60.8906 L85.6494,60.8906 L85.6494,64.1406 L90.915,64.1406 L90.915,66.2969 Z " fill="#000000"/><text fill="#222222" font-family="sans-serif" font-size="12" lengthAdjust="spacing" textLength="27.3516" x="107.3057" y="64.4512">User</text><line style="stroke:#555555;stroke-width:1.5;" x1="8" x2="201.4629" y1="76.2969" y2="76.2969"/><g data-visibility-modifier="IE_MANDATORY"><ellipse cx="18" cy="89.9453" fill="#000000" rx="3" ry="3" style="stroke:#000000;stroke-width:1;"/></g><text fill="#000000" font-family="sans-serif" font-size="14" lengthAdjust="spacing" textLength="101.001" x="27" y="93.292">id : UUID &#171;PK&#187;</text><line style="stroke:#555555;stroke-width:1;" x1="8" x2="201.4629" y1="100.5938" y2="100.5938"/><g data-visibility-modifier="IE_MANDATORY"><ellipse cx="18" cy="114.2422" fill="#000000" rx="3" ry="3" style="stroke:#000000;stroke-width:1;"/></g><text fill="#000000" font-family="sans-serif" font-size="14" lengthAdjust="spacing" textLength="120.7158" x="27" y="117.5889">email : VARCHAR</text><g data-visibility-modifier="IE_MANDATORY"><ellipse cx="18" cy="130.5391" fill="#000000" rx="3" ry="3" style="stroke:#000000;stroke-width:1;"/></g><text fill="#000000" font-family="sans-serif" font-size="14" lengthAdjust="spacing" textLength="121.8096" x="27" y="133.8857">name : VARCHAR</text><g data-visibility-modifier="IE_MANDATORY"><ellipse cx="18" cy="146.8359" fill="#000000" rx="3" ry="3" style="stroke:#000000;stroke-width:1;"/></g><text fill="#000000" font-family="sans-serif" font-size="14" lengthAdjust="spacing" textLength="169.4629" x="27" y="150.1826">created_at : TIMESTAMP</text></g><!--class order--><g class="entity" data-qualified-name="order" data-source-line="27" id="ent0003"><rect fill="#FAFAFA" height="129.4844" rx="2.5" ry="2.5" style="stroke:#555555;stroke-width:1.5;" width="188.3809" x="25.54" y="234.4869"/><ellipse cx="98.3242" cy="250.4869" fill="#ADD1B2" rx="11" ry="11" style="stroke:#181818;stroke-width:1;"/><path d="M102.4336,256.4869 L94.7148,256.4869 L94.7148,244.0962 L102.4336,244.0962 L102.4336,246.2525 L97.1679,246.2525 L97.1679,248.9244 L101.9336,248.9244 L101.9336,251.0806 L97.1679,251.0806 L97.1679,254.3306 L102.4336,254.3306 L102.4336,256.4869 Z " fill="#000000"/><text fill="#222222" font-family="sans-serif" font-size="12" lengthAdjust="spacing" textLength="34.3125" x="118.8242" y="254.6412">Order</text><line style="stroke:#555555;stroke-width:1.5;" x1="26.54" x2="212.9209" y1="266.4869" y2="266.4869"/><g data-visibility-modifier="IE_MANDATORY"><ellipse cx="36.54" cy="280.1353" fill="#000000" rx="3" ry="3" style="stroke:#000000;stroke-width:1;"/></g><text fill="#000000" font-family="sans-serif" font-size="14" lengthAdjust="spacing" textLength="101.001" x="45.54" y="283.482">id : UUID &#171;PK&#187;</text><line style="stroke:#555555;stroke-width:1;" x1="26.54" x2="212.9209" y1="290.7837" y2="290.7837"/><g data-visibility-modifier="IE_MANDATORY"><ellipse cx="36.54" cy="304.4322" fill="#000000" rx="3" ry="3" style="stroke:#000000;stroke-width:1;"/></g><text fill="#000000" font-family="sans-serif" font-size="14" lengthAdjust="spacing" textLength="138.1475" x="45.54" y="307.7789">user_id : UUID &#171;FK&#187;</text><g data-visibility-modifier="IE_MANDATORY"><ellipse cx="36.54" cy="320.7291" fill="#000000" rx="3" ry="3" style="stroke:#000000;stroke-width:1;"/></g><text fill="#000000" font-family="sans-serif" font-size="14" lengthAdjust="spacing" textLength="98.2803" x="45.54" y="324.0757">status : ENUM</text><g data-visibility-modifier="IE_MANDATORY"><ellipse cx="36.54" cy="337.0259" fill="#000000" rx="3" ry="3" style="stroke:#000000;stroke-width:1;"/></g><text fill="#000000" font-family="sans-serif" font-size="14" lengthAdjust="spacing" textLength="152.0176" x="45.54" y="340.3726">total_cents : INTEGER</text><g data-visibility-modifier="IE_MANDATORY"><ellipse cx="36.54" cy="353.3228" fill="#000000" rx="3" ry="3" style="stroke:#000000;stroke-width:1;"/></g><text fill="#000000" font-family="sans-serif" font-size="14" lengthAdjust="spacing" textLength="162.3809" x="45.54" y="356.6695">placed_at : TIMESTAMP</text></g><!--class order_item--><g class="entity" data-qualified-name="order_item" data-source-line="36" id="ent0004"><rect fill="#FAFAFA" height="129.4844" rx="2.5" ry="2.5" style="stroke:#555555;stroke-width:1.5;" width="214.9727" x="125.25" y="440.9769"/><ellipse cx="197.6719" cy="456.9769" fill="#ADD1B2" rx="11" ry="11" style="stroke:#181818;stroke-width:1;"/><path d="M201.7813,462.9769 L194.0625,462.9769 L194.0625,450.5862 L201.7813,450.5862 L201.7813,452.7425 L196.5156,452.7425 L196.5156,455.4144 L201.2813,455.4144 L201.2813,457.5706 L196.5156,457.5706 L196.5156,460.8206 L201.7813,460.8206 L201.7813,462.9769 Z " fill="#000000"/><text fill="#222222" font-family="sans-serif" font-size="12" lengthAdjust="spacing" textLength="61.6289" x="218.1719" y="461.1312">OrderItem</text><line style="stroke:#555555;stroke-width:1.5;" x1="126.25" x2="339.2227" y1="472.9769" y2="472.9769"/><g data-visibility-modifier="IE_MANDATORY"><ellipse cx="136.25" cy="486.6253" fill="#000000" rx="3" ry="3" style="stroke:#000000;stroke-width:1;"/></g><text fill="#000000" font-family="sans-serif" font-size="14" lengthAdjust="spacing" textLength="101.001" x="145.25" y="489.972">id : UUID &#171;PK&#187;</text><line style="stroke:#555555;stroke-width:1;" x1="126.25" x2="339.2227" y1="497.2737" y2="497.2737"/><g data-visibility-modifier="IE_MANDATORY"><ellipse cx="136.25" cy="510.9222" fill="#000000" rx="3" ry="3" style="stroke:#000000;stroke-width:1;"/></g><text fill="#000000" font-family="sans-serif" font-size="14" lengthAdjust="spacing" textLength="145.1885" x="145.25" y="514.2689">order_id : UUID &#171;FK&#187;</text><g data-visibility-modifier="IE_MANDATORY"><ellipse cx="136.25" cy="527.2191" fill="#000000" rx="3" ry="3" style="stroke:#000000;stroke-width:1;"/></g><text fill="#000000" font-family="sans-serif" font-size="14" lengthAdjust="spacing" textLength="161.7656" x="145.25" y="530.5657">product_id : UUID &#171;FK&#187;</text><g data-visibility-modifier="IE_MANDATORY"><ellipse cx="136.25" cy="543.5159" fill="#000000" rx="3" ry="3" style="stroke:#000000;stroke-width:1;"/></g><text fill="#000000" font-family="sans-serif" font-size="14" lengthAdjust="spacing" textLength="133.4033" x="145.25" y="546.8626">quantity : INTEGER</text><g data-visibility-modifier="IE_MANDATORY"><ellipse cx="136.25" cy="559.8128" fill="#000000" rx="3" ry="3" style="stroke:#000000;stroke-width:1;"/></g><text fill="#000000" font-family="sans-serif" font-size="14" lengthAdjust="spacing" textLength="188.9727" x="145.25" y="563.1595">unit_price_cents : INTEGER</text></g><!--class product--><g class="entity" data-qualified-name="product" data-source-line="45" id="ent0005"><rect fill="#FAFAFA" height="113.1875" rx="2.5" ry="2.5" style="stroke:#555555;stroke-width:1.5;" width="195.4834" x="256.99" y="242.6369"/><ellipse cx="327.4631" cy="258.6369" fill="#ADD1B2" rx="11" ry="11" style="stroke:#181818;stroke-width:1;"/><path d="M331.5725,264.6369 L323.8538,264.6369 L323.8538,252.2462 L331.5725,252.2462 L331.5725,254.4025 L326.3069,254.4025 L326.3069,257.0744 L331.0725,257.0744 L331.0725,259.2306 L326.3069,259.2306 L326.3069,262.4806 L331.5725,262.4806 L331.5725,264.6369 Z " fill="#000000"/><text fill="#222222" font-family="sans-serif" font-size="12" lengthAdjust="spacing" textLength="46.0371" x="347.9631" y="262.7912">Product</text><line style="stroke:#555555;stroke-width:1.5;" x1="257.99" x2="451.4734" y1="274.6369" y2="274.6369"/><g data-visibility-modifier="IE_MANDATORY"><ellipse cx="267.99" cy="288.2853" fill="#000000" rx="3" ry="3" style="stroke:#000000;stroke-width:1;"/></g><text fill="#000000" font-family="sans-serif" font-size="14" lengthAdjust="spacing" textLength="101.001" x="276.99" y="291.632">id : UUID &#171;PK&#187;</text><line style="stroke:#555555;stroke-width:1;" x1="257.99" x2="451.4734" y1="298.9338" y2="298.9338"/><g data-visibility-modifier="IE_MANDATORY"><ellipse cx="267.99" cy="312.5822" fill="#000000" rx="3" ry="3" style="stroke:#000000;stroke-width:1;"/></g><text fill="#000000" font-family="sans-serif" font-size="14" lengthAdjust="spacing" textLength="169.4834" x="276.99" y="315.9289">category_id : UUID &#171;FK&#187;</text><g data-visibility-modifier="IE_MANDATORY"><ellipse cx="267.99" cy="328.8791" fill="#000000" rx="3" ry="3" style="stroke:#000000;stroke-width:1;"/></g><text fill="#000000" font-family="sans-serif" font-size="14" lengthAdjust="spacing" textLength="121.8096" x="276.99" y="332.2257">name : VARCHAR</text><g data-visibility-modifier="IE_MANDATORY"><ellipse cx="267.99" cy="345.1759" fill="#000000" rx="3" ry="3" style="stroke:#000000;stroke-width:1;"/></g><text fill="#000000" font-family="sans-serif" font-size="14" lengthAdjust="spacing" textLength="154.8477" x="276.99" y="348.5226">price_cents : INTEGER</text></g><!--class category--><g class="entity" data-qualified-name="category" data-source-line="53" id="ent0006"><rect fill="#FAFAFA" height="113.1875" rx="2.5" ry="2.5" style="stroke:#555555;stroke-width:1.5;" width="250.6768" x="237.39" y="44.2969"/><ellipse cx="331.0712" cy="60.2969" fill="#ADD1B2" rx="11" ry="11" style="stroke:#181818;stroke-width:1;"/><path d="M335.1805,66.2969 L327.4618,66.2969 L327.4618,53.9063 L335.1805,53.9063 L335.1805,56.0625 L329.9149,56.0625 L329.9149,58.7344 L334.6805,58.7344 L334.6805,60.8906 L329.9149,60.8906 L329.9149,64.1406 L335.1805,64.1406 L335.1805,66.2969 Z " fill="#000000"/><text fill="#222222" font-family="sans-serif" font-size="12" lengthAdjust="spacing" textLength="54.8145" x="351.5712" y="64.4512">Category</text><line style="stroke:#555555;stroke-width:1.5;" x1="238.39" x2="487.0668" y1="76.2969" y2="76.2969"/><g data-visibility-modifier="IE_MANDATORY"><ellipse cx="248.39" cy="89.9453" fill="#000000" rx="3" ry="3" style="stroke:#000000;stroke-width:1;"/></g><text fill="#000000" font-family="sans-serif" font-size="14" lengthAdjust="spacing" textLength="101.001" x="257.39" y="93.292">id : UUID &#171;PK&#187;</text><line style="stroke:#555555;stroke-width:1;" x1="238.39" x2="487.0668" y1="100.5938" y2="100.5938"/><g data-visibility-modifier="IE_MANDATORY"><ellipse cx="248.39" cy="114.2422" fill="#000000" rx="3" ry="3" style="stroke:#000000;stroke-width:1;"/></g><text fill="#000000" font-family="sans-serif" font-size="14" lengthAdjust="spacing" textLength="224.6768" x="257.39" y="117.5889">parent_id : UUID &#171;FK&#187; (nullable)</text><g data-visibility-modifier="IE_MANDATORY"><ellipse cx="248.39" cy="130.5391" fill="#000000" rx="3" ry="3" style="stroke:#000000;stroke-width:1;"/></g><text fill="#000000" font-family="sans-serif" font-size="14" lengthAdjust="spacing" textLength="121.8096" x="257.39" y="133.8857">name : VARCHAR</text><g data-visibility-modifier="IE_MANDATORY"><ellipse cx="248.39" cy="146.8359" fill="#000000" rx="3" ry="3" style="stroke:#000000;stroke-width:1;"/></g><text fill="#000000" font-family="sans-serif" font-size="14" lengthAdjust="spacing" textLength="111.0498" x="257.39" y="150.1826">slug : VARCHAR</text></g><g class="entity" data-qualified-name="GMN12" data-source-line="68" id="ent0013"><path d="M374.88,478.0169 L374.88,501.7169 L340.43,505.7169 L374.88,509.7169 L374.88,533.4153 A0,0 0 0 0 374.88,533.4153 L578.5782,533.4153 A0,0 0 0 0 578.5782,533.4153 L578.5782,488.0169 L568.5782,478.0169 L374.88,478.0169 A0,0 0 0 0 374.88,478.0169" fill="#FFFDE7" style="stroke:#FBC02D;stroke-width:0.5;"/><path d="M568.5782,478.0169 L568.5782,488.0169 L578.5782,488.0169 L568.5782,478.0169" fill="#FFFDE7" style="stroke:#FBC02D;stroke-width:0.5;"/><text fill="#000000" font-family="sans-serif" font-size="13" lengthAdjust="spacing" textLength="136.646" x="380.88" y="495.0838">Junction table linking</text><text fill="#000000" font-family="sans-serif" font-size="13" lengthAdjust="spacing" textLength="151.7534" x="380.88" y="510.2166">orders to products with</text><text fill="#000000" font-family="sans-serif" font-size="13" lengthAdjust="spacing" textLength="182.6982" x="380.88" y="525.3494">quantity and price snapshot</text></g><!--link user to order--><g class="link" data-entity-1="ent0002" data-entity-2="ent0003" data-link-type="crowfoot" data-source-line="61" id="lnk7"><path codeLine="61" d="M109.62,165.8736 C111.44,189.6736 111.5895,191.6291 113.4695,216.2491" fill="none" id="user-order" style="stroke:#181818;stroke-width:1;"/><line style="stroke:#181818;stroke-width:1;" x1="105.3266" x2="113.3033" y1="162.1902" y2="161.5802"/><line style="stroke:#181818;stroke-width:1;" x1="105.5554" x2="113.5321" y1="165.1815" y2="164.5715"/><line style="stroke:#181818;stroke-width:1;" x1="109.62" x2="109.01" y1="165.8736" y2="157.8969"/><line style="stroke:#181818;stroke-width:1;" x1="114.2309" x2="120.8226" y1="226.2201" y2="233.74"/><line style="stroke:#181818;stroke-width:1;" x1="114.2309" x2="108.8574" y1="226.2201" y2="234.6537"/><line style="stroke:#181818;stroke-width:1;" x1="114.2309" x2="114.84" y1="226.2201" y2="234.1969"/><ellipse cx="113.7741" cy="220.2375" fill="none" rx="4" ry="4" style="stroke:#181818;stroke-width:1;"/><text fill="#000000" font-family="sans-serif" font-size="13" lengthAdjust="spacing" textLength="41.7485" x="113.73" y="200.5538">places</text></g><!--link order to order_item--><g class="link" data-entity-1="ent0003" data-entity-2="ent0004" data-link-type="crowfoot" data-source-line="62" id="lnk8"><path codeLine="62" d="M159.049,371.3691 C172.509,395.7291 175.2542,400.7122 188.7042,425.0522" fill="none" id="order-order_item" style="stroke:#181818;stroke-width:1;"/><line style="stroke:#181818;stroke-width:1;" x1="153.6134" x2="160.6156" y1="369.8025" y2="365.9335"/><line style="stroke:#181818;stroke-width:1;" x1="155.0643" x2="162.0665" y1="372.4283" y2="368.5593"/><line style="stroke:#181818;stroke-width:1;" x1="159.049" x2="155.18" y1="371.3691" y2="364.3669"/><line style="stroke:#181818;stroke-width:1;" x1="193.5407" x2="202.6615" y1="433.8048" y2="437.9049"/><line style="stroke:#181818;stroke-width:1;" x1="193.5407" x2="192.1585" y1="433.8048" y2="443.7088"/><line style="stroke:#181818;stroke-width:1;" x1="193.5407" x2="197.41" y1="433.8048" y2="440.8069"/><ellipse cx="190.6388" cy="428.5533" fill="none" rx="4" ry="4" style="stroke:#181818;stroke-width:1;"/><text fill="#000000" font-family="sans-serif" font-size="13" lengthAdjust="spacing" textLength="55.0278" x="180.73" y="407.0438">contains</text></g><!--link product to order_item--><g class="link" data-entity-1="ent0005" data-entity-2="ent0004" data-link-type="crowfoot" data-source-line="63" id="lnk9"><path codeLine="63" d="M317.2911,362.977 C301.7011,389.107 296.3689,398.0369 280.2089,425.1369" fill="none" id="product-order_item" style="stroke:#181818;stroke-width:1;"/><line style="stroke:#181818;stroke-width:1;" x1="315.9055" x2="322.7756" y1="357.4925" y2="361.5914"/><line style="stroke:#181818;stroke-width:1;" x1="314.3684" x2="321.2385" y1="360.0688" y2="364.1677"/><line style="stroke:#181818;stroke-width:1;" x1="317.2911" x2="321.39" y1="362.977" y2="356.1069"/><line style="stroke:#181818;stroke-width:1;" x1="275.0873" x2="276.1433" y1="433.7258" y2="443.6699"/><line style="stroke:#181818;stroke-width:1;" x1="275.0873" x2="265.8367" y1="433.7258" y2="437.5239"/><line style="stroke:#181818;stroke-width:1;" x1="275.0873" x2="270.99" y1="433.7258" y2="440.5969"/><ellipse cx="278.1603" cy="428.5724" fill="none" rx="4" ry="4" style="stroke:#181818;stroke-width:1;"/><text fill="#000000" font-family="sans-serif" font-size="13" lengthAdjust="spacing" textLength="90.9746" x="298.73" y="407.0438">referenced by</text></g><!--link category to product--><g class="link" data-entity-1="ent0006" data-entity-2="ent0005" data-link-type="crowfoot" data-source-line="64" id="lnk10"><path codeLine="64" d="M360.1231,165.8902 C359.0431,192.3002 358.8184,197.7516 357.7484,224.1716" fill="none" id="category-product" style="stroke:#181818;stroke-width:1;"/><line style="stroke:#181818;stroke-width:1;" x1="356.2899" x2="364.2832" y1="161.7301" y2="162.057"/><line style="stroke:#181818;stroke-width:1;" x1="356.1673" x2="364.1606" y1="164.7276" y2="165.0545"/><line style="stroke:#181818;stroke-width:1;" x1="360.1231" x2="360.45" y1="165.8902" y2="157.8969"/><line style="stroke:#181818;stroke-width:1;" x1="357.3437" x2="363.0151" y1="234.1634" y2="242.3997"/><line style="stroke:#181818;stroke-width:1;" x1="357.3437" x2="351.0249" y1="234.1634" y2="241.9141"/><line style="stroke:#181818;stroke-width:1;" x1="357.3437" x2="357.02" y1="234.1634" y2="242.1569"/><ellipse cx="357.5865" cy="228.1683" fill="none" rx="4" ry="4" style="stroke:#181818;stroke-width:1;"/><text fill="#000000" font-family="sans-serif" font-size="13" lengthAdjust="spacing" textLength="58.8428" x="359.73" y="200.5538">classifies</text></g><!--link category to category--><g class="link" data-entity-1="ent0006" data-entity-2="ent0006" data-link-type="association" data-source-line="65" id="lnk11"><path codeLine="65" d="M496.3876,85.3109 C516.9076,87.6709 523.07,92.2569 523.07,100.8969 C523.07,109.5269 523.8618,113.313 503.3418,115.673" fill="none" id="category-category" style="stroke:#181818;stroke-width:1;"/><line style="stroke:#181818;stroke-width:1;" x1="491.9568" x2="492.8708" y1="88.8277" y2="80.8801"/><line style="stroke:#181818;stroke-width:1;" x1="494.9371" x2="495.8512" y1="89.1705" y2="81.2229"/><line style="stroke:#181818;stroke-width:1;" x1="496.3876" x2="488.44" y1="85.3109" y2="84.3969"/><line style="stroke:#181818;stroke-width:1;" x1="499.368" x2="488.44" y1="116.1301" y2="117.3869"/><ellipse cx="499.368" cy="116.1301" fill="none" rx="4" ry="4" style="stroke:#181818;stroke-width:1;"/><line style="stroke:#181818;stroke-width:1;" x1="492.8708" x2="491.9568" y1="120.9037" y2="112.956"/><text fill="#000000" font-family="sans-serif" font-size="13" lengthAdjust="spacing" textLength="42.8975" x="529.07" y="105.4638">parent</text></g><?plantuml-src XLHHRzem47xthpYbBribfXQfcbHLbIWa6vle48Mz8kCSn2AnCzjHnSh--yvEe2cbIlAIVD_vlkzyPzkjL2Ktl80L5zkDqPLAXphN1fupwP3P8ozoRYsyC827ayYBPE1VpsYJecdGc_0GccZb6gmVdWPxadyHhll7TVDCYgr2Khd-SiF-jRILTlY1T9ACug-dqid3yAe_eXGiaob2WIxJgQr_h4E3skrAj8mvwNA4k3VKHO56qETin1WgmdSGBIoQ2BY5YZw2_YN856vXiHYFuEvk-lF-di1UBp1OS9aJ-Nim6tuVp0AcU84da3387QPBxeYOZoVnqtmmcNgl1zbVlfAW6shg5FRkbcqwgUbBgfMxoX8HFouc0N7QyNmfICh3uyTv_2skVPKv5zssnWwBLsjB6f6YqryJUivWQNHQ2NUU_5FnMlgjqKf9jooD5FYkZfRRQPqvU6rKEeqAQin6czrvEsTwsUbYs6GCDWxfEttGq5E2ToxWawhodAzo_FoH8PjNcnP4JiBexlUzddvfnkaMej1h6x4QQBDrHob4q07bKb7GOVVEXXbSqt5ID3cmsaNiM68JV5Zh4_hxGwwbrtqRjd_T6Uyj51yn5WwzaPlCWLwtPAdG7vKIJce5pky6v5BHLR4X8aHPclA3ieLdwJ9YZiF4LLht3QpYfSsqeswbuOhv3m00?></g></svg>