<?xml version="1.0" encoding="UTF-8" standalone="no"?>
<!DOCTYPE svg PUBLIC "-//W3C//DTD SVG 1.1//EN"
 "http://www.w3.org/Graphics/SVG/1.1/DTD/svg11.dtd">
<!-- Generated by graphviz version 2.43.0 (0)
 -->
<!-- Title: erd Pages: 1 -->
<svg width="795pt" height="369pt"
 viewBox="0.00 0.00 794.60 369.10" xmlns="http://www.w3.org/2000/svg" xmlns:xlink="http://www.w3.org/1999/xlink">
<g id="graph0" class="graph" transform="scale(1 1) rotate(0) translate(28.8 340.3)">
<title>erd</title>
<polygon fill="white" stroke="transparent" points="-28.8,28.8 -28.8,-340.3 765.8,-340.3 765.8,28.8 -28.8,28.8"/>
<text text-anchor="middle" x="368.5" y="-293.1" font-family="Helvetica,sans-Serif" font-size="18.00">E&#45;Commerce ERD</text>
<!-- user -->
<g id="node1" class="node">
<title>user</title>
<polygon fill="#2196f3" stroke="transparent" points="602,-256.5 602,-275.5 733,-275.5 733,-256.5 602,-256.5"/>
<text text-anchor="start" x="656.5" y="-264.5" font-family="Helvetica,sans-Serif" font-weight="bold" font-size="10.00" fill="white">User</text>
<text text-anchor="start" x="606" y="-245.5" font-family="Helvetica,sans-Serif" font-weight="bold" font-size="10.00" fill="#888888">PK</text>
<text text-anchor="start" x="629" y="-244.5" font-family="Helvetica,sans-Serif" font-size="10.00">id</text>
<text text-anchor="start" x="683" y="-244.5" font-family="Helvetica,sans-Serif" font-size="10.00" fill="#888888">uuid</text>
<text text-anchor="start" x="629" y="-225.5" font-family="Helvetica,sans-Serif" font-size="10.00">email</text>
<text text-anchor="start" x="683" y="-225.5" font-family="Helvetica,sans-Serif" font-size="10.00" fill="#888888">varchar</text>
<text text-anchor="start" x="629" y="-206.5" font-family="Helvetica,sans-Serif" font-size="10.00">name</text>
<text text-anchor="start" x="683" y="-206.5" font-family="Helvetica,sans-Serif" font-size="10.00" fill="#888888">varchar</text>
<text text-anchor="start" x="629" y="-187.5" font-family="Helvetica,sans-Serif" font-size="10.00">created_at</text>
<text text-anchor="start" x="683" y="-187.5" font-family="Helvetica,sans-Serif" font-size="10.00" fill="#888888">timestamp</text>
<polygon fill="black" stroke="black" points="602,-256.5 602,-256.5 733,-256.5 733,-256.5 602,-256.5"/>
</g>
<!-- order -->
<g id="node2" class="node">
<title>order</title>
<polygon fill="#4caf50" stroke="transparent" points="294,-264.5 294,-283.5 428,-283.5 428,-264.5 294,-264.5"/>
<text text-anchor="start" x="347.5" y="-272.5" font-family="Helvetica,sans-Serif" font-weight="bold" font-size="10.00" fill="white">Order</text>
<text text-anchor="start" x="298" y="-253.5" font-family="Helvetica,sans-Serif" font-weight="bold" font-size="10.00" fill="#888888">PK</text>
<text text-anchor="start" x="321" y="-252.5" font-family="Helvetica,sans-Serif" font-size="10.00">id</text>
<text text-anchor="start" x="378" y="-252.5" font-family="Helvetica,sans-Serif" font-size="10.00" fill="#888888">uuid</text>
<text text-anchor="start" x="298" y="-234.5" font-family="Helvetica,sans-Serif" font-weight="bold" font-size="10.00" fill="#888888">FK</text>
<text text-anchor="start" x="321" y="-233.5" font-family="Helvetica,sans-Serif" font-size="10.00">user_id</text>
<text text-anchor="start" x="378" y="-233.5" font-family="Helvetica,sans-Serif" font-size="10.00" fill="#888888">uuid</text>
<text text-anchor="start" x="321" y="-214.5" font-family="Helvetica,sans-Serif" font-size="10.00">status</text>
<text text-anchor="start" x="378" y="-214.5" font-family="Helvetica,sans-Serif" font-size="10.00" fill="#888888">enum</text>
<text text-anchor="start" x="321" y="-195.5" font-family="Helvetica,sans-Serif" font-size="10.00">total_cents</text>
<text text-anchor="start" x="378" y="-195.5" font-family="Helvetica,sans-Serif" font-size="10.00" fill="#888888">integer</text>
<text text-anchor="start" x="321" y="-176.5" font-family="Helvetica,sans-Serif" font-size="10.00">placed_at</text>
<text text-anchor="start" x="378" y="-176.5" font-family="Helvetica,sans-Serif" font-size="10.00" fill="#888888">timestamp</text>
<polygon fill="black" stroke="black" points="294,-264.5 294,-264.5 428,-264.5 428,-264.5 294,-264.5"/>
</g>
<!-- order&#45;&gt;user -->
<g id="edge1" class="edge">
<title>order&#45;&gt;user</title>
<path fill="none" stroke="#555555" d="M438.5,-227C488.74,-227.33 553.72,-227.76 601.37,-228.07"/>
<polygon fill="#555555" stroke="#555555" points="438.34,-227 428.37,-222.44 433.34,-226.97 428.34,-226.94 428.34,-226.94 428.34,-226.94 433.34,-226.97 428.31,-231.44 438.34,-227 438.34,-227"/>
<text text-anchor="middle" x="512.5" y="-230.3" font-family="Helvetica,sans-Serif" font-size="9.00">belongs to</text>
</g>
<!-- order_item -->
<g id="node3" class="node">
<title>order_item</title>
<polygon fill="#ff9800" stroke="transparent" points="0.5,-178.5 0.5,-197.5 141.5,-197.5 141.5,-178.5 0.5,-178.5"/>
<text text-anchor="start" x="47.5" y="-186.5" font-family="Helvetica,sans-Serif" font-weight="bold" font-size="10.00" fill="white">OrderItem</text>
<text text-anchor="start" x="4.5" y="-167.5" font-family="Helvetica,sans-Serif" font-weight="bold" font-size="10.00" fill="#888888">PK</text>
<text text-anchor="start" x="27.5" y="-166.5" font-family="Helvetica,sans-Serif" font-size="10.00">id</text>
<text text-anchor="start" x="107.5" y="-166.5" font-family="Helvetica,sans-Serif" font-size="10.00" fill="#888888">uuid</text>
<text text-anchor="start" x="4.5" y="-148.5" font-family="Helvetica,sans-Serif" font-weight="bold" font-size="10.00" fill="#888888">FK</text>
<text text-anchor="start" x="27.5" y="-147.5" font-family="Helvetica,sans-Serif" font-size="10.00">order_id</text>
<text text-anchor="start" x="107.5" y="-147.5" font-family="Helvetica,sans-Serif" font-size="10.00" fill="#888888">uuid</text>
<text text-anchor="start" x="4.5" y="-129.5" font-family="Helvetica,sans-Serif" font-weight="bold" font-size="10.00" fill="#888888">FK</text>
<text text-anchor="start" x="27.5" y="-128.5" font-family="Helvetica,sans-Serif" font-size="10.00">product_id</text>
<text text-anchor="start" x="107.5" y="-128.5" font-family="Helvetica,sans-Serif" font-size="10.00" fill="#888888">uuid</text>
<text text-anchor="start" x="27.5" y="-109.5" font-family="Helvetica,sans-Serif" font-size="10.00">quantity</text>
<text text-anchor="start" x="107.5" y="-109.5" font-family="Helvetica,sans-Serif" font-size="10.00" fill="#888888">integer</text>
<text text-anchor="start" x="27.5" y="-90.5" font-family="Helvetica,sans-Serif" font-size="10.00">unit_price_cents</text>
<text text-anchor="start" x="107.5" y="-90.5" font-family="Helvetica,sans-Serif" font-size="10.00" fill="#888888">integer</text>
<polygon fill="black" stroke="black" points="0.5,-178.5 0.5,-178.5 141.5,-178.5 141.5,-178.5 0.5,-178.5"/>
</g>
<!-- order_item&#45;&gt;order -->
<g id="edge2" class="edge">
<title>order_item&#45;&gt;order</title>
<path fill="none" stroke="#555555" d="M151.03,-164.21C195.9,-177.58 251.3,-194.1 293.78,-206.76"/>
<polygon fill="#555555" stroke="#555555" points="150.92,-164.17 142.62,-157.01 146.13,-162.75 141.34,-161.32 141.34,-161.32 141.34,-161.32 146.13,-162.75 140.05,-165.63 150.92,-164.17 150.92,-164.17"/>
<text text-anchor="middle" x="217.5" y="-191.3" font-family="Helvetica,sans-Serif" font-size="9.00">line item of</text>
</g>
<!-- product -->
<g id="node4" class="node">
<title>product</title>
<polygon fill="#9c27b0" stroke="transparent" points="300,-87.5 300,-106.5 423,-106.5 423,-87.5 300,-87.5"/>
<text text-anchor="start" x="343" y="-95.5" font-family="Helvetica,sans-Serif" font-weight="bold" font-size="10.00" fill="white">Product</text>
<text text-anchor="start" x="304" y="-76.5" font-family="Helvetica,sans-Serif" font-weight="bold" font-size="10.00" fill="#888888">PK</text>
<text text-anchor="start" x="327" y="-75.5" font-family="Helvetica,sans-Serif" font-size="10.00">id</text>
<text text-anchor="start" x="386" y="-75.5" font-family="Helvetica,sans-Serif" font-size="10.00" fill="#888888">uuid</text>
<text text-anchor="start" x="304" y="-57.5" font-family="Helvetica,sans-Serif" font-weight="bold" font-size="10.00" fill="#888888">FK</text>
<text text-anchor="start" x="327" y="-56.5" font-family="Helvetica,sans-Serif" font-size="10.00">category_id</text>
<text text-anchor="start" x="386" y="-56.5" font-family="Helvetica,sans-Serif" font-size="10.00" fill="#888888">uuid</text>
<text text-anchor="start" x="327" y="-37.5" font-family="Helvetica,sans-Serif" font-size="10.00">name</text>
<text text-anchor="start" x="386" y="-37.5" font-family="Helvetica,sans-Serif" font-size="10.00" fill="#888888">varchar</text>
<text text-anchor="start" x="327" y="-18.5" font-family="Helvetica,sans-Serif" font-size="10.00">price_cents</text>
<text text-anchor="start" x="386" y="-18.5" font-family="Helvetica,sans-Serif" font-size="10.00" fill="#888888">integer</text>
<polygon fill="black" stroke="black" points="300,-87.5 300,-87.5 423,-87.5 423,-87.5 300,-87.5"/>
</g>
<!-- order_item&#45;&gt;product -->
<g id="edge3" class="edge">
<title>order_item&#45;&gt;product</title>
<path fill="none" stroke="#555555" d="M151.13,-118.14C197.88,-105.02 256.05,-88.69 299.12,-76.59"/>
<polygon fill="#555555" stroke="#555555" points="150.97,-118.19 140.12,-116.56 146.15,-119.54 141.34,-120.89 141.34,-120.89 141.34,-120.89 146.15,-119.54 142.55,-125.22 150.97,-118.19 150.97,-118.19"/>
<text text-anchor="middle" x="217.5" y="-108.3" font-family="Helvetica,sans-Serif" font-size="9.00">references</text>
</g>
<!-- category -->
<g id="node5" class="node">
<title>category</title>
<polygon fill="#f44336" stroke="transparent" points="597,-75.5 597,-94.5 737,-94.5 737,-75.5 597,-75.5"/>
<text text-anchor="start" x="645.5" y="-83.5" font-family="Helvetica,sans-Serif" font-weight="bold" font-size="10.00" fill="white">Category</text>
<text text-anchor="start" x="601" y="-64.5" font-family="Helvetica,sans-Serif" font-weight="bold" font-size="10.00" fill="#888888">PK</text>
<text text-anchor="start" x="624" y="-63.5" font-family="Helvetica,sans-Serif" font-size="10.00">id</text>
<text text-anchor="start" x="672" y="-63.5" font-family="Helvetica,sans-Serif" font-size="10.00" fill="#888888">uuid</text>
<text text-anchor="start" x="601" y="-45.5" font-family="Helvetica,sans-Serif" font-weight="bold" font-size="10.00" fill="#888888">FK</text>
<text text-anchor="start" x="624" y="-44.5" font-family="Helvetica,sans-Serif" font-size="10.00">parent_id</text>
<text text-anchor="start" x="672" y="-44.5" font-family="Helvetica,sans-Serif" font-size="10.00" fill="#888888">uuid (nullable)</text>
<text text-anchor="start" x="624" y="-25.5" font-family="Helvetica,sans-Serif" font-size="10.00">name</text>
<text text-anchor="start" x="672" y="-25.5" font-family="Helvetica,sans-Serif" font-size="10.00" fill="#888888">varchar</text>
<text text-anchor="start" x="624" y="-6.5" font-family="Helvetica,sans-Serif" font-size="10.00">slug</text>
<text text-anchor="start" x="672" y="-6.5" font-family="Helvetica,sans-Serif" font-size="10.00" fill="#888888">varchar</text>
<polygon fill="black" stroke="black" points="597,-75.5 597,-75.5 737,-75.5 737,-75.5 597,-75.5"/>
</g>
<!-- product&#45;&gt;category -->
<g id="edge4" class="edge">
<title>product&#45;&gt;category</title>
<path fill="none" stroke="#555555" d="M433.07,-56.69C482.43,-54.75 547.87,-52.16 596.82,-50.23"/>
<polygon fill="#555555" stroke="#555555" points="432.78,-56.71 422.61,-52.6 427.78,-56.9 422.79,-57.1 422.79,-57.1 422.79,-57.1 427.78,-56.9 422.97,-61.6 432.78,-56.71 432.78,-56.71"/>
<text text-anchor="middle" x="512.5" y="-58.3" font-family="Helvetica,sans-Serif" font-size="9.00">categorised as</text>
</g>
<!-- category&#45;&gt;category -->
<g id="edge5" class="edge">
<title>category&#45;&gt;category</title>
<path fill="none" stroke="#555555" stroke-dasharray="5,2" d="M640.16,-95.24C633.69,-124.83 642.64,-153 667,-153 688.6,-153 698.08,-130.85 695.44,-105.2"/>
<polygon fill="#555555" stroke="#555555" points="698.88,-104.56 693.84,-95.24 691.97,-105.67 698.88,-104.56"/>
<text text-anchor="middle" x="667" y="-155.8" font-family="Helvetica,sans-Serif" font-size="9.00">parent</text>
</g>
</g>
</svg>
