<?xml version="1.0" encoding="UTF-8" standalone="no"?>
<!DOCTYPE svg PUBLIC "-//W3C//DTD SVG 1.1//EN"
 "http://www.w3.org/Graphics/SVG/1.1/DTD/svg11.dtd">
<!-- Generated by graphviz version 2.43.0 (0)
 -->
<!-- Title: erd Pages: 1 -->
<svg width="1983pt" height="329pt"
 viewBox="0.00 0.00 1982.60 329.04" xmlns="http://www.w3.org/2000/svg" xmlns:xlink="http://www.w3.org/1999/xlink">
<g id="graph0" class="graph" transform="scale(1 1) rotate(0) translate(28.8 300.24)">
<title>erd</title>
<polygon fill="white" stroke="transparent" points="-28.8,28.8 -28.8,-300.24 1953.8,-300.24 1953.8,28.8 -28.8,28.8"/>
<text text-anchor="middle" x="962.5" y="-253.04" font-family="Helvetica,sans-Serif" font-size="18.00">E&#45;Commerce ERD</text>
<!-- user -->
<g id="node1" class="node">
<title>user</title>
<polygon fill="#dceefb" stroke="#2196f3" stroke-width="1.2" points="1483,-206.94 1483,-242.94 1904,-242.94 1904,-206.94 1483,-206.94"/>
<text text-anchor="middle" x="1502.5" y="-222.44" font-family="Helvetica,sans-Serif" font-size="10.00">User</text>
<polyline fill="none" stroke="#2196f3" stroke-width="1.2" points="1522,-206.94 1522,-242.94 "/>
<text text-anchor="middle" x="1557.5" y="-222.44" font-family="Helvetica,sans-Serif" font-size="10.00">PK id : uuid</text>
<polyline fill="none" stroke="#2196f3" stroke-width="1.2" points="1593,-206.94 1593,-242.94 "/>
<text text-anchor="middle" x="1638" y="-222.44" font-family="Helvetica,sans-Serif" font-size="10.00">email : varchar</text>
<polyline fill="none" stroke="#2196f3" stroke-width="1.2" points="1683,-206.94 1683,-242.94 "/>
<text text-anchor="middle" x="1728" y="-222.44" font-family="Helvetica,sans-Serif" font-size="10.00">name : varchar</text>
<polyline fill="none" stroke="#2196f3" stroke-width="1.2" points="1773,-206.94 1773,-242.94 "/>
<text text-anchor="middle" x="1838.5" y="-222.44" font-family="Helvetica,sans-Serif" font-size="10.00">created_at : timestamp</text>
</g>
<!-- order -->
<g id="node2" class="node">
<title>order</title>
<polygon fill="#e8f5e9" stroke="#4caf50" stroke-width="1.2" points="752,-206.94 752,-242.94 1288,-242.94 1288,-206.94 752,-206.94"/>
<text text-anchor="middle" x="774" y="-222.44" font-family="Helvetica,sans-Serif" font-size="10.00">Order</text>
<polyline fill="none" stroke="#4caf50" stroke-width="1.2" points="796,-206.94 796,-242.94 "/>
<text text-anchor="middle" x="831.5" y="-222.44" font-family="Helvetica,sans-Serif" font-size="10.00">PK id : uuid</text>
<polyline fill="none" stroke="#4caf50" stroke-width="1.2" points="867,-206.94 867,-242.94 "/>
<text text-anchor="middle" x="916" y="-222.44" font-family="Helvetica,sans-Serif" font-size="10.00">FK user_id : uuid</text>
<polyline fill="none" stroke="#4caf50" stroke-width="1.2" points="965,-206.94 965,-242.94 "/>
<text text-anchor="middle" x="1006.5" y="-222.44" font-family="Helvetica,sans-Serif" font-size="10.00">status : enum</text>
<polyline fill="none" stroke="#4caf50" stroke-width="1.2" points="1048,-206.94 1048,-242.94 "/>
<text text-anchor="middle" x="1105" y="-222.44" font-family="Helvetica,sans-Serif" font-size="10.00">total_cents : integer</text>
<polyline fill="none" stroke="#4caf50" stroke-width="1.2" points="1162,-206.94 1162,-242.94 "/>
<text text-anchor="middle" x="1225" y="-222.44" font-family="Helvetica,sans-Serif" font-size="10.00">placed_at : timestamp</text>
</g>
<!-- order&#45;&gt;user -->
<g id="edge1" class="edge">
<title>order:fk_user&#45;&gt;user:pk</title>
<path fill="none" stroke="#555555" d="M923.65,-199.49C996.03,-170.45 1557.5,-172.6 1557.5,-205.94"/>
<polygon fill="#555555" stroke="#555555" points="923.65,-199.5 913.1,-202.5 919.82,-202.72 916,-205.94 916,-205.94 916,-205.94 919.82,-202.72 918.9,-209.38 923.65,-199.5 923.65,-199.5"/>
<text text-anchor="middle" x="1375" y="-184.74" font-family="Helvetica,sans-Serif" font-size="9.00">belongs to</text>
</g>
<!-- order_item -->
<g id="node3" class="node">
<title>order_item</title>
<polygon fill="#fff3e0" stroke="#ff9800" stroke-width="1.2" points="0,-151.94 0,-187.94 593,-187.94 593,-151.94 0,-151.94"/>
<text text-anchor="middle" x="33" y="-167.44" font-family="Helvetica,sans-Serif" font-size="10.00">OrderItem</text>
<polyline fill="none" stroke="#ff9800" stroke-width="1.2" points="66,-151.94 66,-187.94 "/>
<text text-anchor="middle" x="101.5" y="-167.44" font-family="Helvetica,sans-Serif" font-size="10.00">PK id : uuid</text>
<polyline fill="none" stroke="#ff9800" stroke-width="1.2" points="137,-151.94 137,-187.94 "/>
<text text-anchor="middle" x="188" y="-167.44" font-family="Helvetica,sans-Serif" font-size="10.00">FK order_id : uuid</text>
<polyline fill="none" stroke="#ff9800" stroke-width="1.2" points="239,-151.94 239,-187.94 "/>
<text text-anchor="middle" x="295.5" y="-167.44" font-family="Helvetica,sans-Serif" font-size="10.00">FK product_id : uuid</text>
<polyline fill="none" stroke="#ff9800" stroke-width="1.2" points="352,-151.94 352,-187.94 "/>
<text text-anchor="middle" x="402.5" y="-167.44" font-family="Helvetica,sans-Serif" font-size="10.00">quantity : integer</text>
<polyline fill="none" stroke="#ff9800" stroke-width="1.2" points="453,-151.94 453,-187.94 "/>
<text text-anchor="middle" x="523" y="-167.44" font-family="Helvetica,sans-Serif" font-size="10.00">unit_price_cents : integer</text>
</g>
<!-- order_item&#45;&gt;order -->
<g id="edge2" class="edge">
<title>order_item:fk_order&#45;&gt;order:pk</title>
<path fill="none" stroke="#555555" d="M191.95,-198.05C248.81,-248.63 831,-137.91 831,-205.94"/>
<polygon fill="#555555" stroke="#555555" points="191.89,-197.92 191.54,-186.96 189.7,-193.43 187.5,-188.94 187.5,-188.94 187.5,-188.94 189.7,-193.43 183.46,-190.92 191.89,-197.92 191.89,-197.92"/>
<text text-anchor="middle" x="672.5" y="-188.74" font-family="Helvetica,sans-Serif" font-size="9.00">line item of</text>
</g>
<!-- product -->
<g id="node4" class="node">
<title>product</title>
<polygon fill="#f3e5f5" stroke="#9c27b0" stroke-width="1.2" points="795.5,-97.94 795.5,-133.94 1244.5,-133.94 1244.5,-97.94 795.5,-97.94"/>
<text text-anchor="middle" x="822" y="-113.44" font-family="Helvetica,sans-Serif" font-size="10.00">Product</text>
<polyline fill="none" stroke="#9c27b0" stroke-width="1.2" points="848.5,-97.94 848.5,-133.94 "/>
<text text-anchor="middle" x="884" y="-113.44" font-family="Helvetica,sans-Serif" font-size="10.00">PK id : uuid</text>
<polyline fill="none" stroke="#9c27b0" stroke-width="1.2" points="919.5,-97.94 919.5,-133.94 "/>
<text text-anchor="middle" x="979" y="-113.44" font-family="Helvetica,sans-Serif" font-size="10.00">FK category_id : uuid</text>
<polyline fill="none" stroke="#9c27b0" stroke-width="1.2" points="1038.5,-97.94 1038.5,-133.94 "/>
<text text-anchor="middle" x="1083.5" y="-113.44" font-family="Helvetica,sans-Serif" font-size="10.00">name : varchar</text>
<polyline fill="none" stroke="#9c27b0" stroke-width="1.2" points="1128.5,-97.94 1128.5,-133.94 "/>
<text text-anchor="middle" x="1186.5" y="-113.44" font-family="Helvetica,sans-Serif" font-size="10.00">price_cents : integer</text>
</g>
<!-- order_item&#45;&gt;product -->
<g id="edge3" class="edge">
<title>order_item:fk_product&#45;&gt;product:pk</title>
<path fill="none" stroke="#555555" d="M295.7,-140.82C304.17,65.33 576.81,-124.86 795.5,-133.94 834.8,-135.57 884,-174.28 884,-134.94"/>
<polygon fill="#555555" stroke="#555555" points="295.7,-140.94 291,-150.85 295.6,-145.94 295.5,-150.94 295.5,-150.94 295.5,-150.94 295.6,-145.94 300,-151.03 295.7,-140.94 295.7,-140.94"/>
<text text-anchor="middle" x="672.5" y="-121.74" font-family="Helvetica,sans-Serif" font-size="9.00">references</text>
</g>
<!-- category -->
<g id="node5" class="node">
<title>category</title>
<polygon fill="#ffebee" stroke="#f44336" stroke-width="1.2" points="1462,-97.94 1462,-133.94 1925,-133.94 1925,-97.94 1462,-97.94"/>
<text text-anchor="middle" x="1492.5" y="-113.44" font-family="Helvetica,sans-Serif" font-size="10.00">Category</text>
<polyline fill="none" stroke="#f44336" stroke-width="1.2" points="1523,-97.94 1523,-133.94 "/>
<text text-anchor="middle" x="1558.5" y="-113.44" font-family="Helvetica,sans-Serif" font-size="10.00">PK id : uuid</text>
<polyline fill="none" stroke="#f44336" stroke-width="1.2" points="1594,-97.94 1594,-133.94 "/>
<text text-anchor="middle" x="1673" y="-113.44" font-family="Helvetica,sans-Serif" font-size="10.00">FK parent_id : uuid (nullable)</text>
<polyline fill="none" stroke="#f44336" stroke-width="1.2" points="1752,-97.94 1752,-133.94 "/>
<text text-anchor="middle" x="1797" y="-113.44" font-family="Helvetica,sans-Serif" font-size="10.00">name : varchar</text>
<polyline fill="none" stroke="#f44336" stroke-width="1.2" points="1842,-97.94 1842,-133.94 "/>
<text text-anchor="middle" x="1883.5" y="-113.44" font-family="Helvetica,sans-Serif" font-size="10.00">slug : varchar</text>
</g>
<!-- product&#45;&gt;category -->
<g id="edge4" class="edge">
<title>product:fk_category&#45;&gt;category:pk</title>
<path fill="none" stroke="#555555" d="M980.28,-86.66C1010.26,31.74 1558.5,28.32 1558.5,-96.94"/>
<polygon fill="#555555" stroke="#555555" points="980.23,-87.02 974.53,-96.38 979.62,-91.98 979,-96.94 979,-96.94 979,-96.94 979.62,-91.98 983.47,-97.49 980.23,-87.02 980.23,-87.02"/>
<text text-anchor="middle" x="1375" y="-12.74" font-family="Helvetica,sans-Serif" font-size="9.00">categorised as</text>
</g>
<!-- category&#45;&gt;category -->
<g id="edge5" class="edge">
<title>category:fk_parent&#45;&gt;category:pk</title>
<path fill="none" stroke="#555555" stroke-dasharray="5,2" d="M1593.78,-131.86C1464.05,-150.78 1303,-145.47 1303,-115.94 1303,-84.17 1400.61,-80.44 1513.01,-104.74"/>
<polygon fill="#555555" stroke="#555555" points="1512.35,-108.18 1522.87,-106.94 1513.87,-101.35 1512.35,-108.18"/>
<text text-anchor="middle" x="1287.5" y="-113.74" font-family="Helvetica,sans-Serif" font-size="9.00">parent</text>
</g>
</g>
</svg>
