<?xml version="1.0" encoding="UTF-8" standalone="no"?>
<!DOCTYPE svg PUBLIC "-//W3C//DTD SVG 1.1//EN"
 "http://www.w3.org/Graphics/SVG/1.1/DTD/svg11.dtd">
<!-- Generated by graphviz version 2.43.0 (0)
 -->
<!-- Title: erd Pages: 1 -->
<svg width="1837pt" height="322pt"
 viewBox="0.00 0.00 1836.60 322.45" xmlns="http://www.w3.org/2000/svg" xmlns:xlink="http://www.w3.org/1999/xlink">
<g id="graph0" class="graph" transform="scale(1 1) rotate(0) translate(28.8 293.65)">
<title>erd</title>
<polygon fill="white" stroke="transparent" points="-28.8,28.8 -28.8,-293.65 1807.8,-293.65 1807.8,28.8 -28.8,28.8"/>
<text text-anchor="middle" x="889.5" y="-246.45" font-family="Helvetica,sans-Serif" font-size="18.00">E&#45;Commerce ERD</text>
<!-- user -->
<g id="node1" class="node">
<title>user</title>
<polygon fill="#dceefb" stroke="#2196f3" stroke-width="1.2" points="1374.5,-200.35 1374.5,-236.35 1760.5,-236.35 1760.5,-200.35 1374.5,-200.35"/>
<text text-anchor="middle" x="1393.5" y="-215.85" font-family="Helvetica,sans-Serif" font-size="10.00">User</text>
<polyline fill="none" stroke="#2196f3" stroke-width="1.2" points="1412.5,-200.35 1412.5,-236.35 "/>
<text text-anchor="middle" x="1446.5" y="-215.85" font-family="Helvetica,sans-Serif" font-size="10.00">PK id : uuid</text>
<polyline fill="none" stroke="#2196f3" stroke-width="1.2" points="1480.5,-200.35 1480.5,-236.35 "/>
<text text-anchor="middle" x="1521" y="-215.85" font-family="Helvetica,sans-Serif" font-size="10.00">email : varchar</text>
<polyline fill="none" stroke="#2196f3" stroke-width="1.2" points="1561.5,-200.35 1561.5,-236.35 "/>
<text text-anchor="middle" x="1602.5" y="-215.85" font-family="Helvetica,sans-Serif" font-size="10.00">name : varchar</text>
<polyline fill="none" stroke="#2196f3" stroke-width="1.2" points="1643.5,-200.35 1643.5,-236.35 "/>
<text text-anchor="middle" x="1702" y="-215.85" font-family="Helvetica,sans-Serif" font-size="10.00">created_at : timestamp</text>
</g>
<!-- order -->
<g id="node2" class="node">
<title>order</title>
<polygon fill="#e8f5e9" stroke="#4caf50" stroke-width="1.2" points="694,-200.35 694,-236.35 1187,-236.35 1187,-200.35 694,-200.35"/>
<text text-anchor="middle" x="714.5" y="-215.85" font-family="Helvetica,sans-Serif" font-size="10.00">Order</text>
<polyline fill="none" stroke="#4caf50" stroke-width="1.2" points="735,-200.35 735,-236.35 "/>
<text text-anchor="middle" x="769" y="-215.85" font-family="Helvetica,sans-Serif" font-size="10.00">PK id : uuid</text>
<polyline fill="none" stroke="#4caf50" stroke-width="1.2" points="803,-200.35 803,-236.35 "/>
<text text-anchor="middle" x="848.5" y="-215.85" font-family="Helvetica,sans-Serif" font-size="10.00">FK user_id : uuid</text>
<polyline fill="none" stroke="#4caf50" stroke-width="1.2" points="894,-200.35 894,-236.35 "/>
<text text-anchor="middle" x="932.5" y="-215.85" font-family="Helvetica,sans-Serif" font-size="10.00">status : enum</text>
<polyline fill="none" stroke="#4caf50" stroke-width="1.2" points="971,-200.35 971,-236.35 "/>
<text text-anchor="middle" x="1022.5" y="-215.85" font-family="Helvetica,sans-Serif" font-size="10.00">total_cents : integer</text>
<polyline fill="none" stroke="#4caf50" stroke-width="1.2" points="1074,-200.35 1074,-236.35 "/>
<text text-anchor="middle" x="1130.5" y="-215.85" font-family="Helvetica,sans-Serif" font-size="10.00">placed_at : timestamp</text>
</g>
<!-- order&#45;&gt;user -->
<g id="edge1" class="edge">
<title>order:fk_user&#45;&gt;user:pk</title>
<path fill="none" stroke="#555555" d="M856.5,-193C927.46,-166.28 1446.5,-168.4 1446.5,-199.35"/>
<polygon fill="#555555" stroke="#555555" points="856.33,-193.13 845.7,-195.82 852.42,-196.24 848.5,-199.35 848.5,-199.35 848.5,-199.35 852.42,-196.24 851.3,-202.87 856.33,-193.13 856.33,-193.13"/>
<text text-anchor="middle" x="1271.5" y="-179.15" font-family="Helvetica,sans-Serif" font-size="9.00">belongs to</text>
</g>
<!-- order_item -->
<g id="node3" class="node">
<title>order_item</title>
<polygon fill="#fff3e0" stroke="#ff9800" stroke-width="1.2" points="0,-145.35 0,-181.35 541,-181.35 541,-145.35 0,-145.35"/>
<text text-anchor="middle" x="30" y="-160.85" font-family="Helvetica,sans-Serif" font-size="10.00">OrderItem</text>
<polyline fill="none" stroke="#ff9800" stroke-width="1.2" points="60,-145.35 60,-181.35 "/>
<text text-anchor="middle" x="94" y="-160.85" font-family="Helvetica,sans-Serif" font-size="10.00">PK id : uuid</text>
<polyline fill="none" stroke="#ff9800" stroke-width="1.2" points="128,-145.35 128,-181.35 "/>
<text text-anchor="middle" x="175" y="-160.85" font-family="Helvetica,sans-Serif" font-size="10.00">FK order_id : uuid</text>
<polyline fill="none" stroke="#ff9800" stroke-width="1.2" points="222,-145.35 222,-181.35 "/>
<text text-anchor="middle" x="274" y="-160.85" font-family="Helvetica,sans-Serif" font-size="10.00">FK product_id : uuid</text>
<polyline fill="none" stroke="#ff9800" stroke-width="1.2" points="326,-145.35 326,-181.35 "/>
<text text-anchor="middle" x="370.5" y="-160.85" font-family="Helvetica,sans-Serif" font-size="10.00">quantity : integer</text>
<polyline fill="none" stroke="#ff9800" stroke-width="1.2" points="415,-145.35 415,-181.35 "/>
<text text-anchor="middle" x="478" y="-160.85" font-family="Helvetica,sans-Serif" font-size="10.00">unit_price_cents : integer</text>
</g>
<!-- order_item&#45;&gt;order -->
<g id="edge2" class="edge">
<title>order_item:fk_order&#45;&gt;order:pk</title>
<path fill="none" stroke="#555555" d="M179.28,-191.34C235.5,-236.75 768.5,-136.8 768.5,-199.35"/>
<polygon fill="#555555" stroke="#555555" points="179.2,-191.18 178.47,-180.24 176.85,-186.76 174.5,-182.35 174.5,-182.35 174.5,-182.35 176.85,-186.76 170.53,-184.46 179.2,-191.18 179.2,-191.18"/>
<text text-anchor="middle" x="617.5" y="-183.15" font-family="Helvetica,sans-Serif" font-size="9.00">line item of</text>
</g>
<!-- product -->
<g id="node4" class="node">
<title>product</title>
<polygon fill="#f3e5f5" stroke="#9c27b0" stroke-width="1.2" points="733,-91.35 733,-127.35 1148,-127.35 1148,-91.35 733,-91.35"/>
<text text-anchor="middle" x="758" y="-106.85" font-family="Helvetica,sans-Serif" font-size="10.00">Product</text>
<polyline fill="none" stroke="#9c27b0" stroke-width="1.2" points="783,-91.35 783,-127.35 "/>
<text text-anchor="middle" x="817" y="-106.85" font-family="Helvetica,sans-Serif" font-size="10.00">PK id : uuid</text>
<polyline fill="none" stroke="#9c27b0" stroke-width="1.2" points="851,-91.35 851,-127.35 "/>
<text text-anchor="middle" x="906" y="-106.85" font-family="Helvetica,sans-Serif" font-size="10.00">FK category_id : uuid</text>
<polyline fill="none" stroke="#9c27b0" stroke-width="1.2" points="961,-91.35 961,-127.35 "/>
<text text-anchor="middle" x="1002" y="-106.85" font-family="Helvetica,sans-Serif" font-size="10.00">name : varchar</text>
<polyline fill="none" stroke="#9c27b0" stroke-width="1.2" points="1043,-91.35 1043,-127.35 "/>
<text text-anchor="middle" x="1095.5" y="-106.85" font-family="Helvetica,sans-Serif" font-size="10.00">price_cents : integer</text>
</g>
<!-- order_item&#45;&gt;product -->
<g id="edge3" class="edge">
<title>order_item:fk_product&#45;&gt;product:pk</title>
<path fill="none" stroke="#555555" d="M274.72,-134.23C283.19,53.53 532.76,-118.62 733,-127.35 770.08,-128.97 816.5,-165.46 816.5,-128.35"/>
<polygon fill="#555555" stroke="#555555" points="274.72,-134.35 270,-144.25 274.61,-139.35 274.5,-144.35 274.5,-144.35 274.5,-144.35 274.61,-139.35 279,-144.45 274.72,-134.35 274.72,-134.35"/>
<text text-anchor="middle" x="617.5" y="-116.15" font-family="Helvetica,sans-Serif" font-size="9.00">references</text>
</g>
<!-- category -->
<g id="node5" class="node">
<title>category</title>
<polygon fill="#ffebee" stroke="#f44336" stroke-width="1.2" points="1356,-91.35 1356,-127.35 1779,-127.35 1779,-91.35 1356,-91.35"/>
<text text-anchor="middle" x="1384" y="-106.85" font-family="Helvetica,sans-Serif" font-size="10.00">Category</text>
<polyline fill="none" stroke="#f44336" stroke-width="1.2" points="1412,-91.35 1412,-127.35 "/>
<text text-anchor="middle" x="1446" y="-106.85" font-family="Helvetica,sans-Serif" font-size="10.00">PK id : uuid</text>
<polyline fill="none" stroke="#f44336" stroke-width="1.2" points="1480,-91.35 1480,-127.35 "/>
<text text-anchor="middle" x="1550.5" y="-106.85" font-family="Helvetica,sans-Serif" font-size="10.00">FK parent_id : uuid (nullable)</text>
<polyline fill="none" stroke="#f44336" stroke-width="1.2" points="1621,-91.35 1621,-127.35 "/>
<text text-anchor="middle" x="1662" y="-106.85" font-family="Helvetica,sans-Serif" font-size="10.00">name : varchar</text>
<polyline fill="none" stroke="#f44336" stroke-width="1.2" points="1703,-91.35 1703,-127.35 "/>
<text text-anchor="middle" x="1741" y="-106.85" font-family="Helvetica,sans-Serif" font-size="10.00">slug : varchar</text>
</g>
<!-- product&#45;&gt;category -->
<g id="edge4" class="edge">
<title>product:fk_category&#45;&gt;category:pk</title>
<path fill="none" stroke="#555555" d="M906.86,-80.11C936.68,29.55 1445.5,26.14 1445.5,-90.35"/>
<polygon fill="#555555" stroke="#555555" points="906.82,-80.44 901.04,-89.76 906.16,-85.39 905.5,-90.35 905.5,-90.35 905.5,-90.35 906.16,-85.39 909.96,-90.94 906.82,-80.44 906.82,-80.44"/>
<text text-anchor="middle" x="1271.5" y="-12.15" font-family="Helvetica,sans-Serif" font-size="9.00">categorised as</text>
</g>
<!-- category&#45;&gt;category -->
<g id="edge5" class="edge">
<title>category:fk_parent&#45;&gt;category:pk</title>
<path fill="none" stroke="#555555" stroke-dasharray="5,2" d="M1479.97,-124.93C1359.62,-144.25 1208,-139.06 1208,-109.35 1208,-77.74 1298.69,-73.89 1401.92,-97.78"/>
<polygon fill="#555555" stroke="#555555" points="1401.41,-101.25 1411.95,-100.17 1403.04,-94.44 1401.41,-101.25"/>
<text text-anchor="middle" x="1194.5" y="-107.15" font-family="Helvetica,sans-Serif" font-size="9.00">parent</text>
</g>
</g>
</svg>
