<?xml version="1.0" encoding="UTF-8" standalone="no"?>
<!DOCTYPE svg PUBLIC "-//W3C//DTD SVG 1.1//EN"
 "http://www.w3.org/Graphics/SVG/1.1/DTD/svg11.dtd">
<!-- Generated by graphviz version 12.2.1 (20241206.2353)
 -->
<!-- Title: data_pipeline Pages: 1 -->
<svg width="931pt" height="267pt"
 viewBox="0.00 0.00 931.46 267.00" xmlns="http://www.w3.org/2000/svg" xmlns:xlink="http://www.w3.org/1999/xlink">
<g id="graph0" class="graph" transform="scale(1 1) rotate(0) translate(36 231)">
<title>data_pipeline</title>
<polygon fill="white" stroke="none" points="-36,36 -36,-231 895.46,-231 895.46,36 -36,36"/>
<!-- ingest -->
<g id="node1" class="node">
<title>ingest</title>
<polygon fill="#4a90d9" stroke="black" stroke-width="1.5" points="134.26,-78 27.47,-78 0,-14 106.79,-14 134.26,-78"/>
<text text-anchor="middle" x="67.13" y="-47.55" font-family="Helvetica,sans-Serif" font-size="11.00" fill="white">Ingest</text>
<text text-anchor="middle" x="67.13" y="-35.55" font-family="Helvetica,sans-Serif" font-size="11.00" fill="white">Raw Data</text>
</g>
<!-- validate -->
<g id="node2" class="node">
<title>validate</title>
<path fill="#7b68ee" stroke="black" stroke-width="1.5" d="M255.26,-64C255.26,-64 223.51,-64 223.51,-64 217.51,-64 211.51,-58 211.51,-52 211.51,-52 211.51,-40 211.51,-40 211.51,-34 217.51,-28 223.51,-28 223.51,-28 255.26,-28 255.26,-28 261.26,-28 267.26,-34 267.26,-40 267.26,-40 267.26,-52 267.26,-52 267.26,-58 261.26,-64 255.26,-64"/>
<text text-anchor="middle" x="239.38" y="-47.55" font-family="Helvetica,sans-Serif" font-size="11.00" fill="white">Validate</text>
<text text-anchor="middle" x="239.38" y="-35.55" font-family="Helvetica,sans-Serif" font-size="11.00" fill="white">Schema</text>
</g>
<!-- ingest&#45;&gt;validate -->
<g id="edge1" class="edge">
<title>ingest&#45;&gt;validate</title>
<path fill="none" stroke="#555555" d="M121.07,-46C147.32,-46 178.36,-46 201.92,-46"/>
<polygon fill="#555555" stroke="#555555" points="201.68,-48.8 209.68,-46 201.68,-43.2 201.68,-48.8"/>
<text text-anchor="middle" x="172.88" y="-47.2" font-family="Helvetica,sans-Serif" font-size="9.00">raw JSON</text>
</g>
<!-- transform -->
<g id="node3" class="node">
<title>transform</title>
<path fill="#50c878" stroke="black" stroke-width="1.5" d="M398.01,-154C398.01,-154 356.51,-154 356.51,-154 350.51,-154 344.51,-148 344.51,-142 344.51,-142 344.51,-130 344.51,-130 344.51,-124 350.51,-118 356.51,-118 356.51,-118 398.01,-118 398.01,-118 404.01,-118 410.01,-124 410.01,-130 410.01,-130 410.01,-142 410.01,-142 410.01,-148 404.01,-154 398.01,-154"/>
<text text-anchor="middle" x="377.26" y="-137.55" font-family="Helvetica,sans-Serif" font-size="11.00" fill="white">Transform</text>
<text text-anchor="middle" x="377.26" y="-125.55" font-family="Helvetica,sans-Serif" font-size="11.00" fill="white">&amp; Enrich</text>
</g>
<!-- validate&#45;&gt;transform -->
<g id="edge2" class="edge">
<title>validate&#45;&gt;transform</title>
<path fill="none" stroke="#555555" d="M267.55,-64C288.61,-77.95 317.97,-97.39 340.87,-112.56"/>
<polygon fill="#555555" stroke="#555555" points="339.19,-114.81 347.41,-116.89 342.29,-110.14 339.19,-114.81"/>
<text text-anchor="middle" x="305.88" y="-102.91" font-family="Helvetica,sans-Serif" font-size="9.00">valid rows</text>
</g>
<!-- notify -->
<g id="node6" class="node">
<title>notify</title>
<polygon fill="#a0a0a0" stroke="black" stroke-width="1.5" points="853.46,-64 790.21,-64 790.21,-28 859.46,-28 859.46,-58 853.46,-64"/>
<polyline fill="none" stroke="black" stroke-width="1.5" points="853.46,-64 853.46,-58"/>
<polyline fill="none" stroke="black" stroke-width="1.5" points="859.46,-58 853.46,-58"/>
<text text-anchor="middle" x="824.83" y="-47.55" font-family="Helvetica,sans-Serif" font-size="11.00" fill="white">Send</text>
<text text-anchor="middle" x="824.83" y="-35.55" font-family="Helvetica,sans-Serif" font-size="11.00" fill="white">Notification</text>
</g>
<!-- validate&#45;&gt;notify -->
<g id="edge3" class="edge">
<title>validate&#45;&gt;notify</title>
<path fill="none" stroke="#cc3333" stroke-dasharray="5,2" d="M267.58,-30.94C294.38,-17.52 336.91,0 376.26,0 376.26,0 376.26,0 698.46,0 728.4,0 760.04,-11.71 784.04,-23.31"/>
<polygon fill="#cc3333" stroke="#cc3333" points="782.76,-25.8 791.17,-26.88 785.27,-20.79 782.76,-25.8"/>
<text text-anchor="middle" x="539.61" y="-1.2" font-family="Helvetica,sans-Serif" font-size="9.00" fill="#cc3333">errors</text>
</g>
<!-- dedupe -->
<g id="node4" class="node">
<title>dedupe</title>
<polygon fill="#ffb347" stroke="black" stroke-width="1.5" points="539.61,-195 482.01,-159 539.61,-123 597.21,-159 539.61,-195"/>
<text text-anchor="middle" x="539.61" y="-154.55" font-family="Helvetica,sans-Serif" font-size="11.00" fill="#333333">Deduplicate</text>
</g>
<!-- transform&#45;&gt;dedupe -->
<g id="edge4" class="edge">
<title>transform&#45;&gt;dedupe</title>
<path fill="none" stroke="#555555" d="M410.32,-140.6C431.07,-143.57 458.64,-147.53 482.9,-151.01"/>
<polygon fill="#555555" stroke="#555555" points="482.2,-153.74 490.52,-152.1 482.99,-148.19 482.2,-153.74"/>
<text text-anchor="middle" x="446.01" y="-149.39" font-family="Helvetica,sans-Serif" font-size="9.00">enriched</text>
</g>
<!-- dedupe&#45;&gt;transform -->
<g id="edge6" class="edge">
<title>dedupe&#45;&gt;transform</title>
<path fill="none" stroke="#999999" stroke-dasharray="1,5" d="M511.25,-140.25C497.68,-132.07 480.67,-123.41 464.01,-119.25 449.52,-115.63 433.5,-117.27 419.26,-120.66"/>
<polygon fill="#999999" stroke="#999999" points="418.65,-117.93 411.66,-122.71 420.11,-123.33 418.65,-117.93"/>
<text text-anchor="middle" x="446.01" y="-120.45" font-family="Helvetica,sans-Serif" font-size="9.00" fill="#999999">retry</text>
</g>
<!-- load -->
<g id="node5" class="node">
<title>load</title>
<path fill="#de6fa1" stroke="black" stroke-width="1.5" d="M733.21,-156C733.21,-158.21 717.19,-160 697.46,-160 677.73,-160 661.71,-158.21 661.71,-156 661.71,-156 661.71,-120 661.71,-120 661.71,-117.79 677.73,-116 697.46,-116 717.19,-116 733.21,-117.79 733.21,-120 733.21,-120 733.21,-156 733.21,-156"/>
<path fill="none" stroke="black" stroke-width="1.5" d="M733.21,-156C733.21,-153.79 717.19,-152 697.46,-152 677.73,-152 661.71,-153.79 661.71,-156"/>
<text text-anchor="middle" x="697.46" y="-139.55" font-family="Helvetica,sans-Serif" font-size="11.00" fill="white">Load to</text>
<text text-anchor="middle" x="697.46" y="-127.55" font-family="Helvetica,sans-Serif" font-size="11.00" fill="white">Warehouse</text>
</g>
<!-- dedupe&#45;&gt;load -->
<g id="edge5" class="edge">
<title>dedupe&#45;&gt;load</title>
<path fill="none" stroke="#555555" d="M587.79,-152.64C608.21,-149.89 631.98,-146.69 652.08,-143.98"/>
<polygon fill="#555555" stroke="#555555" points="652.27,-146.78 659.82,-142.94 651.52,-141.23 652.27,-146.78"/>
<text text-anchor="middle" x="629.46" y="-149.7" font-family="Helvetica,sans-Serif" font-size="9.00">unique</text>
</g>
<!-- load&#45;&gt;notify -->
<g id="edge7" class="edge">
<title>load&#45;&gt;notify</title>
<path fill="none" stroke="#555555" stroke-width="2" d="M727.54,-116.66C746.57,-102.7 771.47,-84.43 791.18,-69.96"/>
<polygon fill="#555555" stroke="#555555" stroke-width="2" points="791.49,-73.21 796.29,-66.21 788.18,-68.69 791.49,-73.21"/>
<text text-anchor="middle" x="761.71" y="-98.71" font-family="Helvetica,sans-Serif" font-size="9.00">done</text>
</g>
</g>
</svg>
