<svg xmlns="http://www.w3.org/2000/svg" xmlns:xlink="http://www.w3.org/1999/xlink" xml:lang="en" height="639.1999999999999pt" width="301.27227714179946pt" viewBox="-238.62677714179944 -4.6 301.27227714179946 639.1999999999999"><polygon points="26.99999999999999,53.99999999999999 27.428381023539803,53.996601447194614 27.856654204447818,53.98640664434599 28.28471172724103,53.969418157941206 28.712445830727233,53.945640264740874 29.13974883513328,53.91507895070244 29.566513169212925,53.87774190947327 29.992631397327287,53.833638540453855 30.417996246491217,53.78277994643147 30.842500633378688,53.72517893078518 31.266037691280438,53.66084999426264 31.688500797007112,53.58980933132961 32.10978359773107,53.51207482609308 32.52978003776014,53.427666047799015 32.948384385236594,53.33660424590598 33.36549125875453,53.23891234473562 33.78099565388913,53.13461493770161 34.19479296963094,53.023738281118426 34.60677903471859,52.906310287591424 35.01685013386341,52.78236051898999 35.424903033859145,52.65192017900552 35.83083500957038,52.51502210529604 36.23454386979305,52.37170076121952 36.635927982980526,52.22199222715788 37.03488630282884,52.06593419143395 37.43131839371446,51.90356594082369 37.82512445597856,51.734928350665875 38.21620535105093,51.56006387457199 38.60446262640763,51.37901653373876 38.98979854035589,51.19183190586607 39.37211608664008,50.99855711368293 39.75131901886243,50.79924081308471 40.127311874712646,50.593933180884186 40.5,50.38268590217984 40.86928957248196,50.16555215734437 41.23508762548356,49.94258660863689 41.59730207130113,49.71384538644189 41.955841724384975,49.47938607513883 42.310616324294806,49.239267698605474 42.66153655842234,48.99355070535906 43.00851408447529,48.74229695333858 43.351461552717,48.48556969433246 43.69029262795633,48.22343355805526 44.0249220112821,47.955954535877424 44.355265461536554,47.683199964212406 44.68123981652269,47.405238507564974 45.00276301393987,47.12214014124537 45.31975411204257,46.833976133753396 45.63213331001702,46.540819028836886 45.939821968070675,46.24274262722929 46.24274262722929,45.93982196807067 46.54081902883689,45.632133310017025 46.833976133753396,45.31975411204257 47.12214014124537,45.00276301393987 47.405238507564974,44.68123981652269 47.683199964212406,44.355265461536554 47.955954535877424,44.02492201128211 48.22343355805526,43.69029262795633 48.48556969433246,43.351461552717 48.74229695333858,43.00851408447529 48.99355070535906,42.66153655842234 49.23926769860548,42.310616324294806 49.47938607513883,41.955841724384975 49.713845386441896,41.59730207130113 49.94258660863689,41.23508762548356 50.16555215734438,40.86928957248196 50.382685902179844,40.49999999999999 50.59393318088419,40.127311874712646 50.79924081308471,39.75131901886243 50.99855711368293,39.37211608664008 51.19183190586607,38.98979854035589 51.37901653373877,38.60446262640763 51.560063874571995,38.21620535105093 51.73492835066588,37.82512445597856 51.9035659408237,37.43131839371447 52.06593419143395,37.03488630282884 52.22199222715788,36.63592798298054 52.37170076121952,36.23454386979305 52.51502210529605,35.83083500957038 52.65192017900552,35.424903033859145 52.78236051899,35.01685013386342 52.906310287591424,34.60677903471859 53.02373828111843,34.19479296963094 53.13461493770162,33.780995653889136 53.238912344735624,33.36549125875453 53.33660424590599,32.948384385236594 53.42766604779903,32.52978003776014 53.512074826093084,32.109783597731074 53.58980933132961,31.688500797007112 53.66084999426265,31.26603769128044 53.725178930785184,30.842500633378695 53.782779946431475,30.41799624649122 53.83363854045386,29.99263139732729 53.87774190947328,29.56651316921293 53.915078950702444,29.139748835133286 53.94564026474088,28.712445830727233 53.96941815794121,28.28471172724103 53.98640664434599,27.85665420444782 53.99660144719463,27.428381023539806 54.0,26.999999999999993 54.0,27.000000000000007 53.99660144719463,26.571618976460194 53.986406644346,26.143345795552182 53.96941815794121,25.71528827275897 53.94564026474088,25.287554169272767 53.915078950702444,24.860251164866717 53.87774190947328,24.433486830787075 53.83363854045386,24.00736860267271 53.782779946431475,23.58200375350878 53.725178930785184,23.15749936662131 53.66084999426265,22.73396230871956 53.58980933132962,22.311499202992888 53.512074826093084,21.89021640226893 53.42766604779903,21.470219962239856 53.33660424590599,21.05161561476341 53.238912344735624,20.634508741245472 53.13461493770163,20.219004346110868 53.02373828111844,19.805207030369058 52.90631028759143,19.393220965281404 52.78236051899,18.983149866136582 52.65192017900552,18.57509696614085 52.51502210529605,18.169164990429618 52.37170076121952,17.76545613020695 52.221992227157884,17.364072017019463 52.06593419143396,16.96511369717116 51.903565940823704,16.56868160628553 51.73492835066588,16.174875544021432 51.560063874572,15.783794648949069 51.37901653373878,15.395537373592369 51.19183190586607,15.010201459644101 50.998557113682935,14.627883913359922 50.799240813084715,14.248680981137568 50.59393318088419,13.872688125287349 50.382685902179844,13.500000000000002 50.16555215734438,13.13071042751803 49.94258660863689,12.764912374516436 49.713845386441896,12.402697928698869 49.47938607513883,12.044158275615024 49.23926769860548,11.689383675705189 48.99355070535906,11.338463441577652 48.74229695333858,10.99148591552471 48.48556969433247,10.648538447283002 48.22343355805526,10.309707372043661 47.95595453587743,9.975077988717892 47.68319996421241,9.64473453846344 47.405238507564974,9.318760183477304 47.122140141245374,8.997236986060123 46.833976133753396,8.680245887957433 46.54081902883689,8.367866689982979 46.24274262722929,8.060178031929324 45.939821968070675,7.757257372770702 45.632133310017025,7.459180971163104 45.31975411204257,7.1660238662466025 45.00276301393988,6.877859858754623 44.68123981652269,6.594761492435026 44.355265461536554,6.316800035787589 44.02492201128211,6.044045464122566 43.69029262795634,5.776566441944739 43.351461552717,5.514430305667535 43.00851408447529,5.257703046661419 42.66153655842235,5.006449294640937 42.31061632429481,4.760732301394516 41.955841724384975,4.520613924861172 41.59730207130113,4.2861546135581055 41.23508762548356,4.0574133913631085 40.86928957248196,3.8344478426556172 40.49999999999999,3.617314097820152 40.127311874712646,3.4060668191158037 39.75131901886243,3.200759186915282 39.37211608664008,3.001442886317064 38.98979854035589,2.8081680941339267 38.60446262640763,2.6209834662612264 38.21620535105093,2.439936125428002 37.82512445597856,2.265071649334116 37.43131839371446,2.0964340591763 37.03488630282884,1.9340658085660367 36.635927982980526,1.7780077728421153 36.23454386979305,1.6282992387804684 35.83083500957038,1.4849778947039507 35.424903033859145,1.3480798209944722 35.01685013386341,1.2176394810100044 34.60677903471859,1.093689712408568 34.19479296963094,0.9762617188815619 33.78099565388913,0.8653850622983783 33.36549125875453,0.7610876552643724 32.948384385236594,0.6633957540940068 32.52978003776013,0.5723339522009709 32.10978359773107,0.4879251739069179 31.688500797007112,0.41019066867038045 31.266037691280438,0.3391500057373502 30.842500633378688,0.27482106921481453 30.417996246491217,0.2172200535685258 29.992631397327287,0.16636145954613468 29.566513169212918,0.1222580905267141 29.13974883513328,0.08492104929755762 28.712445830727233,0.05435973525911919 28.28471172724103,0.030581842058786002 27.856654204447814,0.013593355653999772 27.428381023539803,0.0033985528053741554 26.99999999999999,-0.0 -26.999999999999993,7.993605777301127e-15 -27.428381023539806,0.003398552805382149 -27.85665420444782,0.013593355654007766 -28.28471172724104,0.030581842058793995 -28.712445830727233,0.054359735259127184 -29.13974883513328,0.08492104929756561 -29.56651316921293,0.1222580905267261 -29.99263139732729,0.16636145954614667 -30.41799624649122,0.2172200535685338 -30.84250063337869,0.2748210692148225 -31.26603769128044,0.3391500057373582 -31.688500797007112,0.41019066867038845 -32.10978359773107,0.4879251739069259 -32.52978003776014,0.5723339522009789 -32.948384385236594,0.6633957540940187 -33.36549125875453,0.7610876552643804 -33.780995653889136,0.8653850622983863 -34.19479296963094,0.9762617188815699 -34.60677903471859,1.093689712408576 -35.016850133863414,1.2176394810100124 -35.424903033859145,1.3480798209944802 -35.83083500957037,1.4849778947039587 -36.23454386979305,1.6282992387804804 -36.63592798298053,1.7780077728421233 -37.03488630282884,1.9340658085660447 -37.43131839371447,2.096434059176308 -37.82512445597856,2.265071649334124 -38.216205351050924,2.439936125428006 -38.604462626407624,2.6209834662612304 -38.98979854035589,2.8081680941339346 -39.372116086640084,3.001442886317072 -39.75131901886243,3.20075918691529 -40.127311874712646,3.4060668191158117 -40.49999999999999,3.617314097820164 -40.86928957248196,3.834447842655625 -41.23508762548356,4.057413391363113 -41.59730207130112,4.286154613558109 -41.95584172438498,4.520613924861179 -42.3106163242948,4.760732301394516 -42.66153655842235,5.006449294640941 -43.00851408447529,5.2577030466614225 -43.351461552717,5.514430305667535 -43.69029262795633,5.776566441944743 -44.0249220112821,6.044045464122566 -44.355265461536554,6.316800035787592 -44.681239816522684,6.594761492435026 -45.00276301393987,6.877859858754631 -45.31975411204257,7.166023866246606 -45.63213331001702,7.459180971163112 -45.93982196807067,7.757257372770706 -46.24274262722929,8.060178031929327 -46.540819028836886,8.367866689982975 -46.83397613375339,8.68024588795743 -47.122140141245374,8.997236986060132 -47.405238507564974,9.318760183477307 -47.683199964212406,9.644734538463442 -47.955954535877424,9.975077988717894 -48.22343355805526,10.309707372043658 -48.48556969433246,10.648538447283002 -48.742296953338574,10.991485915524706 -48.99355070535906,11.338463441577655 -49.239267698605474,11.689383675705185 -49.47938607513883,12.044158275615029 -49.713845386441896,12.402697928698867 -49.94258660863689,12.764912374516436 -50.16555215734437,13.130710427518029 -50.382685902179844,13.5 -50.59393318088419,13.872688125287352 -50.79924081308471,14.248680981137564 -50.99855711368293,14.627883913359923 -51.19183190586607,15.010201459644103 -51.37901653373877,15.395537373592369 -51.560063874571995,15.783794648949067 -51.734928350665875,16.17487554402143 -51.9035659408237,16.568681606285537 -52.06593419143395,16.96511369717115 -52.22199222715788,17.364072017019467 -52.37170076121952,17.765456130206935 -52.51502210529605,18.169164990429618 -52.65192017900552,18.57509696614085 -52.78236051898999,18.98314986613658 -52.906310287591424,19.393220965281404 -53.02373828111843,19.80520703036905 -53.13461493770162,20.219004346110868 -53.23891234473562,20.634508741245455 -53.33660424590599,21.051615614763406 -53.42766604779902,21.470219962239852 -53.512074826093084,21.890216402268926 -53.58980933132961,22.31149920299288 -53.66084999426265,22.733962308719548 -53.725178930785184,23.15749936662131 -53.78277994643147,23.582003753508765 -53.83363854045386,24.007368602672706 -53.87774190947328,24.433486830787068 -53.915078950702444,24.860251164866714 -53.94564026474088,25.28755416927276 -53.96941815794121,25.715288272758954 -53.98640664434599,26.143345795552182 -53.99660144719463,26.57161897646018 -54.0,27.000000000000004 -54.0,27.000000000000004 -53.99660144719463,27.428381023539817 -53.986406644346,27.85665420444783 -53.96941815794122,28.284711727241042 -53.94564026474088,28.712445830727248 -53.915078950702444,29.139748835133293 -53.877741909473286,29.56651316921294 -53.83363854045386,29.9926313973273 -53.78277994643148,30.417996246491235 -53.725178930785184,30.842500633378698 -53.66084999426265,31.266037691280445 -53.58980933132962,31.688500797007116 -53.512074826093084,32.10978359773108 -53.42766604779903,32.529780037760155 -53.336604245905995,32.9483843852366 -53.238912344735624,33.36549125875454 -53.13461493770163,33.78099565388914 -53.02373828111844,34.194792969630946 -52.90631028759143,34.6067790347186 -52.78236051899,35.01685013386343 -52.65192017900552,35.42490303385916 -52.51502210529605,35.83083500957039 -52.37170076121952,36.23454386979306 -52.221992227157884,36.63592798298054 -52.06593419143396,37.034886302828845 -51.903565940823704,37.43131839371447 -51.73492835066588,37.825124455978575 -51.560063874572,38.21620535105094 -51.37901653373878,38.60446262640764 -51.19183190586607,38.9897985403559 -50.998557113682935,39.37211608664009 -50.799240813084715,39.75131901886243 -50.59393318088419,40.12731187471266 -50.382685902179844,40.50000000000001 -50.16555215734438,40.869289572481975 -49.94258660863689,41.23508762548357 -49.713845386441896,41.597302071301144 -49.47938607513883,41.95584172438498 -49.23926769860549,42.31061632429481 -48.99355070535906,42.661536558422355 -48.74229695333858,43.00851408447529 -48.485569694332476,43.351461552717 -48.22343355805526,43.69029262795635 -47.95595453587743,44.024922011282115 -47.68319996421241,44.35526546153656 -47.405238507564974,44.6812398165227 -47.12214014124538,45.00276301393988 -46.833976133753396,45.31975411204257 -46.54081902883689,45.632133310017025 -46.24274262722929,45.939821968070675 -45.939821968070675,46.242742627229305 -45.632133310017025,46.54081902883689 -45.31975411204257,46.833976133753396 -45.00276301393988,47.122140141245374 -44.6812398165227,47.405238507564974 -44.355265461536575,47.68319996421241 -44.02492201128211,47.95595453587744 -43.69029262795635,48.22343355805526 -43.351461552717,48.485569694332476 -43.00851408447529,48.74229695333858 -42.66153655842235,48.99355070535906 -42.31061632429481,49.23926769860548 -41.95584172438498,49.47938607513883 -41.597302071301144,49.713845386441896 -41.23508762548357,49.94258660863689 -40.86928957248196,50.16555215734438 -40.5,50.382685902179844 -40.127311874712646,50.59393318088419 -39.75131901886243,50.799240813084715 -39.372116086640084,50.998557113682935 -38.98979854035589,51.191831905866074 -38.60446262640764,51.37901653373877 -38.21620535105093,51.560063874572 -37.825124455978575,51.73492835066588 -37.43131839371447,51.903565940823704 -37.034886302828845,52.06593419143396 -36.63592798298054,52.221992227157884 -36.23454386979306,52.37170076121952 -35.83083500957038,52.51502210529605 -35.42490303385915,52.65192017900552 -35.01685013386342,52.78236051899 -34.6067790347186,52.90631028759143 -34.19479296963094,53.02373828111844 -33.78099565388914,53.13461493770162 -33.36549125875454,53.238912344735624 -32.948384385236594,53.33660424590599 -32.52978003776015,53.42766604779903 -32.10978359773108,53.512074826093084 -31.68850079700712,53.58980933132961 -31.266037691280445,53.66084999426265 -30.842500633378698,53.725178930785184 -30.417996246491235,53.782779946431475 -29.9926313973273,53.83363854045386 -29.566513169212932,53.87774190947328 -29.13974883513329,53.915078950702444 -28.712445830727244,53.94564026474088 -28.284711727241042,53.96941815794121 -27.85665420444783,53.986406644346 -27.428381023539814,53.99660144719463 -27.000000000000004,54.0 26.99999999999999,53.99999999999999 " style="stroke:black;fill:#e8f5e9;stroke-width:2.0;stroke-dasharray:-;stroke-linecap:round;stroke-linejoin:round;" /><polygon points="-54.00000000000001,216.0 -9.919639073093561e-15,180.0 53.99999999999999,216.0 -9.919639073093561e-15,252.0 " style="stroke:black;fill:#fff9c4;stroke-width:2.0;stroke-dasharray:-;stroke-linecap:round;stroke-linejoin:round;" /><polygon points="-54.02677714179942,414.0 -1.9839278146187122e-14,378.0 54.026777141799386,414.0 -1.9839278146187122e-14,450.0 " style="stroke:black;fill:#fff9c4;stroke-width:2.0;stroke-dasharray:-;stroke-linecap:round;stroke-linejoin:round;" /><polygon points="26.99999999999996,630.0 27.428381023539774,629.9966014471947 27.85665420444779,629.986406644346 28.284711727241007,629.9694181579412 28.712445830727205,629.945640264741 29.139748835133247,629.9150789507024 29.566513169212897,629.8777419094732 29.99263139732726,629.8336385404539 30.41799624649119,629.7827799464314 30.84250063337866,629.7251789307852 31.26603769128041,629.6608499942627 31.68850079700708,629.5898093313297 32.10978359773104,629.5120748260931 32.52978003776011,629.427666047799 32.94838438523656,629.3366042459061 33.365491258754496,629.2389123447356 33.7809956538891,629.1346149377016 34.1947929696309,629.0237382811184 34.60677903471856,628.9063102875914 35.016850133863386,628.78236051899 35.42490303385911,628.6519201790056 35.83083500957035,628.5150221052961 36.234543869793015,628.3717007612196 36.635927982980505,628.2219922271579 37.0348863028288,628.0659341914339 37.43131839371444,627.9035659408237 37.825124455978525,627.7349283506659 38.216205351050895,627.5600638745719 38.604462626407596,627.3790165337388 38.98979854035587,627.1918319058661 39.37211608664004,626.998557113683 39.75131901886239,626.7992408130847 40.12731187471262,626.5939331808842 40.49999999999997,626.3826859021799 40.86928957248193,626.1655521573443 41.23508762548353,625.9425866086369 41.5973020713011,625.7138453864418 41.95584172438494,625.4793860751388 42.31061632429477,625.2392676986054 42.66153655842231,624.9935507053591 43.00851408447526,624.7422969533386 43.35146155271696,624.4855696943325 43.6902926279563,624.2234335580553 44.024922011282065,623.9559545358774 44.355265461536526,623.6831999642123 44.68123981652266,623.405238507565 45.002763013939834,623.1221401412454 45.319754112042524,622.8339761337534 45.63213331001698,622.5408190288368 45.93982196807064,622.2427426272293 46.24274262722926,621.9398219680706 46.54081902883686,621.632133310017 46.83397613375336,621.3197541120426 47.12214014124534,621.0027630139399 47.40523850756494,620.6812398165226 47.68319996421236,620.3552654615366 47.955954535877396,620.024922011282 48.22343355805522,619.6902926279564 48.485569694332426,619.3514615527171 48.74229695333854,619.0085140844753 48.99355070535902,618.6615365584223 49.239267698605445,618.3106163242949 49.47938607513879,617.955841724385 49.713845386441854,617.5973020713011 49.94258660863685,617.2350876254835 50.165552157344344,616.8692895724819 50.3826859021798,616.5 50.59393318088416,616.1273118747126 50.79924081308468,615.7513190188624 50.99855711368289,615.3721160866401 51.19183190586603,614.989798540356 51.37901653373873,614.6044626264077 51.56006387457195,614.2162053510509 51.73492835066584,613.8251244559787 51.903565940823654,613.4313183937145 52.065934191433925,613.0348863028289 52.22199222715784,612.6359279829805 52.371700761219486,612.234543869793 52.51502210529601,611.8308350095704 52.651920179005494,611.4249030338592 52.782360518989954,611.0168501338634 52.906310287591396,610.6067790347186 53.0237382811184,610.194792969631 53.13461493770158,609.7809956538891 53.23891234473558,609.3654912587546 53.336604245905946,608.9483843852366 53.42766604779898,608.5297800377601 53.51207482609304,608.109783597731 53.589809331329576,607.6885007970071 53.66084999426261,607.2660376912804 53.72517893078515,606.8425006333787 53.78277994643143,606.4179962464913 53.83363854045382,605.9926313973273 53.877741909473244,605.566513169213 53.9150789507024,605.1397488351333 53.94564026474084,604.7124458307273 53.96941815794118,604.2847117272411 53.98640664434596,603.8566542044478 53.99660144719458,603.4283810235398 53.99999999999996,603.0 53.99999999999996,603.0 53.99660144719458,602.5716189764602 53.98640664434596,602.1433457955522 53.96941815794118,601.7152882727589 53.94564026474084,601.2875541692727 53.9150789507024,600.8602511648667 53.877741909473244,600.433486830787 53.83363854045382,600.0073686026727 53.78277994643143,599.5820037535087 53.725178930785134,599.1574993666213 53.660849994262605,598.7339623087196 53.589809331329576,598.3114992029929 53.51207482609304,597.890216402269 53.42766604779898,597.4702199622399 53.336604245905946,597.0516156147634 53.23891234473558,596.6345087412454 53.13461493770158,596.2190043461109 53.0237382811184,595.805207030369 52.906310287591396,595.3932209652814 52.782360518989954,594.9831498661366 52.651920179005494,594.5750969661408 52.51502210529601,594.1691649904296 52.37170076121949,593.765456130207 52.22199222715784,593.3640720170195 52.065934191433925,592.9651136971711 51.903565940823654,592.5686816062855 51.73492835066584,592.1748755440213 51.56006387457195,591.7837946489491 51.37901653373873,591.3955373735923 51.19183190586603,591.010201459644 50.99855711368289,590.6278839133599 50.79924081308468,590.2486809811376 50.59393318088415,589.8726881252874 50.3826859021798,589.5 50.165552157344344,589.1307104275181 49.94258660863685,588.7649123745165 49.713845386441854,588.4026979286989 49.479386075138784,588.044158275615 49.239267698605445,587.6893836757051 48.99355070535902,587.3384634415777 48.74229695333854,586.9914859155247 48.485569694332426,586.6485384472829 48.22343355805522,586.3097073720436 47.955954535877396,585.9750779887179 47.68319996421236,585.6447345384634 47.40523850756494,585.3187601834774 47.12214014124534,584.9972369860601 46.83397613375336,584.6802458879574 46.54081902883685,584.367866689983 46.24274262722926,584.0601780319294 45.93982196807064,583.7572573727707 45.63213331001698,583.4591809711632 45.319754112042524,583.1660238662466 45.002763013939834,582.8778598587546 44.681239816522655,582.594761492435 44.355265461536526,582.3168000357877 44.024922011282065,582.0440454641226 43.6902926279563,581.7765664419447 43.35146155271696,581.5144303056675 43.00851408447526,581.2577030466614 42.66153655842231,581.0064492946409 42.31061632429477,580.7607323013946 41.95584172438493,580.5206139248612 41.5973020713011,580.2861546135582 41.23508762548353,580.0574133913631 40.86928957248193,579.8344478426557 40.49999999999995,579.6173140978201 40.12731187471262,579.4060668191158 39.75131901886239,579.2007591869153 39.37211608664004,579.001442886317 38.989798540355864,578.8081680941339 38.60446262640759,578.6209834662612 38.216205351050895,578.4399361254281 37.825124455978525,578.2650716493341 37.431318393714434,578.0964340591763 37.0348863028288,577.9340658085661 36.635927982980505,577.7780077728421 36.234543869793015,577.6282992387804 35.83083500957034,577.4849778947039 35.42490303385911,577.3480798209944 35.016850133863386,577.21763948101 34.606779034718556,577.0936897124086 34.1947929696309,576.9762617188816 33.7809956538891,576.8653850622984 33.365491258754496,576.7610876552644 32.94838438523655,576.6633957540939 32.529780037760105,576.572333952201 32.10978359773104,576.4879251739069 31.68850079700708,576.4101906686703 31.266037691280403,576.3391500057373 30.84250063337866,576.2748210692148 30.41799624649119,576.2172200535686 29.99263139732726,576.1663614595461 29.56651316921289,576.1222580905268 29.139748835133247,576.0849210492976 28.712445830727205,576.054359735259 28.284711727240996,576.0305818420588 27.856654204447786,576.013593355654 27.428381023539774,576.0033985528053 26.99999999999996,576.0 -27.000000000000025,576.0 -27.428381023539835,576.0033985528053 -27.85665420444785,576.013593355654 -28.284711727241067,576.0305818420588 -28.712445830727265,576.054359735259 -29.13974883513331,576.0849210492976 -29.566513169212953,576.1222580905268 -29.99263139732732,576.1663614595461 -30.41799624649125,576.2172200535686 -30.84250063337872,576.2748210692148 -31.26603769128047,576.3391500057373 -31.688500797007144,576.4101906686703 -32.109783597731095,576.4879251739069 -32.529780037760176,576.572333952201 -32.94838438523662,576.6633957540939 -33.36549125875456,576.7610876552644 -33.78099565388916,576.8653850622984 -34.19479296963097,576.9762617188816 -34.60677903471863,577.0936897124086 -35.01685013386344,577.21763948101 -35.424903033859174,577.3480798209944 -35.83083500957041,577.4849778947039 -36.23454386979308,577.6282992387804 -36.63592798298056,577.7780077728421 -37.034886302828866,577.9340658085661 -37.4313183937145,578.0964340591763 -37.825124455978596,578.2650716493341 -38.21620535105096,578.4399361254281 -38.60446262640767,578.6209834662612 -38.98979854035593,578.8081680941339 -39.372116086640105,579.001442886317 -39.75131901886245,579.2007591869153 -40.127311874712674,579.4060668191158 -40.50000000000003,579.6173140978201 -40.86928957248199,579.8344478426557 -41.235087625483594,580.0574133913631 -41.597302071301165,580.2861546135582 -41.955841724384996,580.5206139248612 -42.31061632429483,580.7607323013946 -42.66153655842237,581.0064492946409 -43.008514084475316,581.2577030466614 -43.35146155271702,581.5144303056675 -43.69029262795637,581.7765664419447 -44.02492201128213,582.0440454641226 -44.35526546153659,582.3168000357877 -44.68123981652272,582.594761492435 -45.0027630139399,582.8778598587546 -45.31975411204259,583.1660238662466 -45.63213331001704,583.4591809711632 -45.9398219680707,583.7572573727707 -46.242742627229326,584.0601780319294 -46.54081902883692,584.367866689983 -46.833976133753424,584.6802458879574 -47.1221401412454,584.9972369860601 -47.405238507564995,585.3187601834774 -47.68319996421243,585.6447345384634 -47.95595453587746,585.975077988718 -48.22343355805528,586.3097073720436 -48.4855696943325,586.6485384472829 -48.7422969533386,586.9914859155247 -48.993550705359084,587.3384634415777 -49.23926769860551,587.6893836757051 -49.47938607513885,588.044158275615 -49.71384538644191,588.4026979286989 -49.94258660863691,588.7649123745165 -50.16555215734441,589.1307104275181 -50.382685902179865,589.5 -50.593933180884214,589.8726881252874 -50.799240813084744,590.2486809811376 -50.99855711368296,590.6278839133599 -51.191831905866096,591.010201459644 -51.37901653373879,591.3955373735923 -51.560063874572016,591.7837946489491 -51.734928350665896,592.1748755440213 -51.90356594082372,592.5686816062855 -52.06593419143399,592.9651136971711 -52.22199222715791,593.3640720170195 -52.37170076121955,593.765456130207 -52.515022105296076,594.1691649904296 -52.65192017900556,594.5750969661408 -52.78236051899002,594.9831498661366 -52.90631028759145,595.3932209652814 -53.023738281118455,595.805207030369 -53.13461493770164,596.2190043461109 -53.238912344735645,596.6345087412454 -53.33660424590602,597.0516156147634 -53.42766604779904,597.4702199622399 -53.5120748260931,597.890216402269 -53.58980933132965,598.3114992029929 -53.66084999426266,598.7339623087196 -53.725178930785205,599.1574993666213 -53.782779946431496,599.5820037535087 -53.83363854045388,600.0073686026727 -53.87774190947331,600.433486830787 -53.915078950702465,600.8602511648667 -53.9456402647409,601.2875541692729 -53.969418157941234,601.7152882727589 -53.986406644346026,602.1433457955522 -53.99660144719465,602.5716189764602 -54.00000000000002,603.0 -54.00000000000003,603.0 -53.996601447194664,603.4283810235398 -53.98640664434604,603.8566542044478 -53.969418157941256,604.2847117272411 -53.945640264740916,604.7124458307273 -53.91507895070247,605.1397488351333 -53.87774190947332,605.566513169213 -53.8336385404539,605.9926313973273 -53.78277994643152,606.4179962464913 -53.72517893078522,606.8425006333787 -53.66084999426268,607.2660376912804 -53.58980933132966,607.6885007970071 -53.51207482609311,608.109783597731 -53.427666047799065,608.5297800377601 -53.33660424590603,608.9483843852366 -53.23891234473566,609.3654912587546 -53.134614937701656,609.7809956538891 -53.023738281118476,610.194792969631 -52.906310287591474,610.6067790347186 -52.78236051899003,611.0168501338634 -52.65192017900556,611.4249030338592 -52.51502210529608,611.8308350095704 -52.371700761219564,612.234543869793 -52.221992227157926,612.6359279829805 -52.065934191434,613.0348863028289 -51.90356594082374,613.4313183937145 -51.73492835066592,613.8251244559787 -51.56006387457204,614.2162053510509 -51.379016533738806,614.6044626264077 -51.1918319058661,614.989798540356 -50.99855711368298,615.3721160866401 -50.79924081308476,615.7513190188624 -50.59393318088423,616.1273118747126 -50.38268590217987,616.5 -50.165552157344415,616.8692895724819 -49.94258660863692,617.2350876254835 -49.713845386441925,617.5973020713011 -49.47938607513886,617.955841724385 -49.23926769860552,618.3106163242949 -48.993550705359105,618.6615365584223 -48.742296953338624,619.0085140844753 -48.48556969433251,619.3514615527171 -48.22343355805529,619.6902926279564 -47.955954535877474,620.0249220112821 -47.68319996421244,620.3552654615366 -47.40523850756502,620.6812398165226 -47.12214014124542,621.0027630139399 -46.83397613375344,621.3197541120425 -46.54081902883693,621.632133310017 -46.242742627229326,621.9398219680706 -45.93982196807071,622.2427426272293 -45.63213331001705,622.5408190288368 -45.3197541120426,622.8339761337534 -45.00276301393991,623.1221401412454 -44.68123981652274,623.405238507565 -44.355265461536604,623.6831999642123 -44.02492201128214,623.9559545358774 -43.69029262795638,624.2234335580553 -43.35146155271703,624.4855696943325 -43.00851408447534,624.7422969533386 -42.66153655842239,624.9935507053591 -42.310616324294855,625.2392676986054 -41.95584172438502,625.4793860751388 -41.597302071301165,625.7138453864418 -41.23508762548361,625.9425866086369 -40.869289572482,626.1655521573443 -40.50000000000002,626.3826859021799 -40.127311874712696,626.5939331808842 -39.75131901886248,626.7992408130847 -39.37211608664012,626.998557113683 -38.989798540355935,627.1918319058661 -38.60446262640768,627.3790165337388 -38.21620535105097,627.5600638745719 -37.82512445597862,627.7349283506659 -37.43131839371451,627.9035659408237 -37.034886302828895,628.0659341914339 -36.63592798298058,628.2219922271579 -36.234543869793086,628.3717007612196 -35.83083500957043,628.5150221052961 -35.42490303385919,628.6519201790056 -35.01685013386347,628.78236051899 -34.60677903471864,628.9063102875914 -34.194792969630996,629.0237382811184 -33.78099565388918,629.1346149377016 -33.36549125875457,629.2389123447356 -32.948384385236636,629.3366042459061 -32.529780037760176,629.427666047799 -32.109783597731116,629.5120748260931 -31.688500797007155,629.5898093313297 -31.2660376912805,629.6608499942627 -30.842500633378737,629.7251789307852 -30.417996246491256,629.7827799464314 -29.99263139732734,629.8336385404539 -29.566513169212964,629.8777419094732 -29.139748835133332,629.9150789507024 -28.712445830727276,629.945640264741 -28.28471172724109,629.9694181579412 -27.856654204447867,629.986406644346 -27.428381023539842,629.9966014471947 -27.00000000000004,630.0 26.99999999999996,630.0 " style="stroke:black;fill:#e8f5e9;stroke-width:2.0;stroke-dasharray:-;stroke-linecap:round;stroke-linejoin:round;" /><path d="M 0.0,54.0 L -2.4799097682733903e-15,67.5 L -3.5125091518378078e-15,72.0" style="stroke:black;fill:none;stroke-width:2.0;stroke-dasharray:-;stroke-linecap:round;stroke-linejoin:round;" /><path d="M -4.638195006611453e-15 79.0 L -2.7000000000000033 72.0 L 2.699999999999996 72.0 Z" style="stroke:black;fill:black;stroke-linecap:butt;stroke-linejoin:miter;" /><path d="M -58.04550000000001,117.0 L -58.04550000000001,81.0 L 58.0455,81.0 L 58.0455,153.0 L -58.04550000000001,153.0 L -58.04550000000001,117.0" style="stroke:black;fill:#e3f2fd;stroke-width:2.0;stroke-dasharray:-;stroke-linecap:round;stroke-linejoin:round;" /><path d="M -4.9598195365467806e-15,153.0 L -7.439729304820171e-15,166.5 L -8.472328688384588e-15,171.0" style="stroke:black;fill:none;stroke-width:2.0;stroke-dasharray:-;stroke-linecap:round;stroke-linejoin:round;" /><path d="M -9.598014543158234e-15 178.0 L -2.700000000000008 171.0 L 2.6999999999999913 171.0 Z" style="stroke:black;fill:black;stroke-linecap:butt;stroke-linejoin:miter;" /><path d="M -54.00000000000001,216.0 L -90.0,216.0 L -117.0,216.0" style="stroke:black;fill:none;stroke-width:2.0;stroke-dasharray:-;stroke-linecap:round;stroke-linejoin:round;" /><path d="M -124.0 216.0 L -117.0 213.3 L -117.0 218.7 Z" style="stroke:black;fill:black;stroke-linecap:butt;stroke-linejoin:miter;" /><path d="M -234.0,216.0 L -234.0,180.0 L -126.0,180.0 L -126.0,252.0 L -234.0,252.0 L -234.0,216.0" style="stroke:black;fill:#ffcdd2;stroke-width:2.0;stroke-dasharray:-;stroke-linecap:round;stroke-linejoin:round;" /><path d="M -9.919639073093561e-15,252.0 L -1.2399548841366951e-14,265.5 L -1.3432148224931369e-14,270.0" style="stroke:black;fill:none;stroke-width:2.0;stroke-dasharray:-;stroke-linecap:round;stroke-linejoin:round;" /><path d="M -1.4557834079705015e-14 277.0 L -2.700000000000013 270.0 L 2.6999999999999864 270.0 Z" style="stroke:black;fill:black;stroke-linecap:butt;stroke-linejoin:miter;" /><path d="M -54.000000000000014,315.0 L -54.000000000000014,279.0 L 53.999999999999986,279.0 L 53.999999999999986,351.0 L -54.000000000000014,351.0 L -54.000000000000014,315.0" style="stroke:black;fill:#e3f2fd;stroke-width:2.0;stroke-dasharray:-;stroke-linecap:round;stroke-linejoin:round;" /><path d="M -1.4879458609640343e-14,351.0 L -1.7359368377913732e-14,364.5 L -1.839196776147815e-14,369.0" style="stroke:black;fill:none;stroke-width:2.0;stroke-dasharray:-;stroke-linecap:round;stroke-linejoin:round;" /><path d="M -1.9517653616251795e-14 376.0 L -2.700000000000018 369.0 L 2.6999999999999815 369.0 Z" style="stroke:black;fill:black;stroke-linecap:butt;stroke-linejoin:miter;" /><path d="M -54.02677714179942,414.0 L -90.02677714179941,414.0 L -117.02677714179941,414.0" style="stroke:black;fill:none;stroke-width:2.0;stroke-dasharray:-;stroke-linecap:round;stroke-linejoin:round;" /><path d="M -124.02677714179941 414.0 L -117.02677714179941 411.3 L -117.02677714179941 416.7 Z" style="stroke:black;fill:black;stroke-linecap:butt;stroke-linejoin:miter;" /><path d="M -234.02677714179944,414.0 L -234.02677714179944,378.0 L -126.02677714179941,378.0 L -126.02677714179941,450.0 L -234.02677714179944,450.0 L -234.02677714179944,414.0" style="stroke:black;fill:#ffcdd2;stroke-width:2.0;stroke-dasharray:-;stroke-linecap:round;stroke-linejoin:round;" /><path d="M -1.9839278146187122e-14,450.0 L -2.2319187914460512e-14,463.5 L -2.335178729802493e-14,468.0" style="stroke:black;fill:none;stroke-width:2.0;stroke-dasharray:-;stroke-linecap:round;stroke-linejoin:round;" /><path d="M -2.4477473152798575e-14 475.0 L -2.700000000000023 468.0 L 2.6999999999999766 468.0 Z" style="stroke:black;fill:black;stroke-linecap:butt;stroke-linejoin:miter;" /><path d="M -54.00000000000002,513.0 L -54.00000000000002,477.0 L 53.99999999999998,477.0 L 53.99999999999998,549.0 L -54.00000000000002,549.0 L -54.00000000000002,513.0" style="stroke:black;fill:#e3f2fd;stroke-width:2.0;stroke-dasharray:-;stroke-linecap:round;stroke-linejoin:round;" /><path d="M -2.4799097682733902e-14,549.0 L -2.7279007451007292e-14,562.5 L -2.831160683457171e-14,567.0" style="stroke:black;fill:none;stroke-width:2.0;stroke-dasharray:-;stroke-linecap:round;stroke-linejoin:round;" /><path d="M -2.943729268934536e-14 574.0 L -2.7000000000000277 567.0 L 2.6999999999999718 567.0 Z" style="stroke:black;fill:black;stroke-linecap:butt;stroke-linejoin:miter;" /><text x="0.0" y="10.5" dominant-baseline="central" fill="black" font-size="11" font-family="sans" text-anchor="middle"><tspan x="0.0" dy="11">Receive</tspan><tspan x="0.0" dy="11">Request</tspan></text><text x="-4.9598195365467806e-15" y="100.5" dominant-baseline="central" fill="black" font-size="11" font-family="sans" text-anchor="middle"><tspan x="-4.9598195365467806e-15" dy="11">Parse and</tspan><tspan x="-4.9598195365467806e-15" dy="11">Validate Input</tspan></text><text x="4.679999999999986" y="242.68" dominant-baseline="hanging" fill="black" font-size="14" font-family="sans" text-anchor="start"><tspan x="4.679999999999986" dy="14">Yes</tspan></text><text x="-58.68000000000001" y="197.32" dominant-baseline="ideographic" fill="black" font-size="14" font-family="sans" text-anchor="end"><tspan x="-58.68000000000001" dy="14">No</tspan></text><text x="-9.919639073093561e-15" y="205.0" dominant-baseline="central" fill="black" font-size="11" font-family="sans" text-anchor="middle"><tspan x="-9.919639073093561e-15" dy="11">Valid?</tspan></text><text x="-180.0" y="199.5" dominant-baseline="central" fill="black" font-size="11" font-family="sans" text-anchor="middle"><tspan x="-180.0" dy="11">Return</tspan><tspan x="-180.0" dy="11">400 Error</tspan></text><text x="-1.4879458609640343e-14" y="298.5" dominant-baseline="central" fill="black" font-size="11" font-family="sans" text-anchor="middle"><tspan x="-1.4879458609640343e-14" dy="11">Query</tspan><tspan x="-1.4879458609640343e-14" dy="11">Database</tspan></text><text x="4.679999999999977" y="440.67999999999995" dominant-baseline="hanging" fill="black" font-size="14" font-family="sans" text-anchor="start"><tspan x="4.679999999999977" dy="14">Yes</tspan></text><text x="-58.706777141799414" y="395.32" dominant-baseline="ideographic" fill="black" font-size="14" font-family="sans" text-anchor="end"><tspan x="-58.706777141799414" dy="14">No</tspan></text><text x="-1.9839278146187122e-14" y="403.0" dominant-baseline="central" fill="black" font-size="11" font-family="sans" text-anchor="middle"><tspan x="-1.9839278146187122e-14" dy="11">Found?</tspan></text><text x="-180.02677714179944" y="397.5" dominant-baseline="central" fill="black" font-size="11" font-family="sans" text-anchor="middle"><tspan x="-180.02677714179944" dy="11">Return</tspan><tspan x="-180.02677714179944" dy="11">404 Error</tspan></text><text x="-2.4799097682733902e-14" y="496.5" dominant-baseline="central" fill="black" font-size="11" font-family="sans" text-anchor="middle"><tspan x="-2.4799097682733902e-14" dy="11">Format</tspan><tspan x="-2.4799097682733902e-14" dy="11">Response</tspan></text><text x="-2.9758917219280685e-14" y="586.5" dominant-baseline="central" fill="black" font-size="11" font-family="sans" text-anchor="middle"><tspan x="-2.9758917219280685e-14" dy="11">Return</tspan><tspan x="-2.9758917219280685e-14" dy="11">200 OK</tspan></text></svg>