<?xml version="1.0" encoding="UTF-8" standalone="no"?>
<!DOCTYPE svg PUBLIC "-//W3C//DTD SVG 1.1//EN"
 "http://www.w3.org/Graphics/SVG/1.1/DTD/svg11.dtd">
<!-- Generated by graphviz version 2.43.0 (0)
 -->
<!-- Title: order_fsm Pages: 1 -->
<svg width="1175pt" height="289pt"
 viewBox="0.00 0.00 1175.39 288.57" xmlns="http://www.w3.org/2000/svg" xmlns:xlink="http://www.w3.org/1999/xlink">
<g id="graph0" class="graph" transform="scale(1 1) rotate(0) translate(36 252.57)">
<title>order_fsm</title>
<polygon fill="white" stroke="transparent" points="-36,36 -36,-252.57 1139.39,-252.57 1139.39,36 -36,36"/>
<text text-anchor="middle" x="551.69" y="-198.17" font-family="Helvetica,sans-Serif" font-size="18.00">Order Lifecycle FSM</text>
<!-- start -->
<g id="node1" class="node">
<title>start</title>
<ellipse fill="black" stroke="black" stroke-width="1.5" cx="7.2" cy="-107.49" rx="7.2" ry="7.2"/>
</g>
<!-- pending -->
<g id="node5" class="node">
<title>pending</title>
<ellipse fill="#e3f2fd" stroke="#1976d2" stroke-width="1.5" cx="143.07" cy="-107.49" rx="33.85" ry="33.85"/>
<text text-anchor="middle" x="143.07" y="-104.69" font-family="Helvetica,sans-Serif" font-size="11.00">Pending</text>
</g>
<!-- start&#45;&gt;pending -->
<g id="edge1" class="edge">
<title>start&#45;&gt;pending</title>
<path fill="none" stroke="#444444" stroke-width="1.2" d="M14.66,-107.49C30.05,-107.49 69.93,-107.49 101.01,-107.49"/>
<polygon fill="#444444" stroke="#444444" stroke-width="1.2" points="101.11,-110.29 109.11,-107.49 101.11,-104.69 101.11,-110.29"/>
<text text-anchor="middle" x="61.9" y="-110.29" font-family="Helvetica,sans-Serif" font-size="9.00">create_order()</text>
</g>
<!-- delivered -->
<g id="node2" class="node">
<title>delivered</title>
<ellipse fill="#c8e6c9" stroke="#388e3c" stroke-width="1.5" cx="868.14" cy="-42.49" rx="37.09" ry="37.09"/>
<ellipse fill="none" stroke="#388e3c" stroke-width="1.5" cx="868.14" cy="-42.49" rx="41.07" ry="41.07"/>
<text text-anchor="middle" x="868.14" y="-39.69" font-family="Helvetica,sans-Serif" font-size="11.00">Delivered</text>
</g>
<!-- refunded -->
<g id="node3" class="node">
<title>refunded</title>
<ellipse fill="#c8e6c9" stroke="#388e3c" stroke-width="1.5" cx="1060.9" cy="-42.49" rx="38.47" ry="38.47"/>
<ellipse fill="none" stroke="#388e3c" stroke-width="1.5" cx="1060.9" cy="-42.49" rx="42.47" ry="42.47"/>
<text text-anchor="middle" x="1060.9" y="-39.69" font-family="Helvetica,sans-Serif" font-size="11.00">Refunded</text>
</g>
<!-- delivered&#45;&gt;refunded -->
<g id="edge9" class="edge">
<title>delivered&#45;&gt;refunded</title>
<path fill="none" stroke="#ff9800" stroke-width="1.2" stroke-dasharray="5,2" d="M909.59,-42.49C938.91,-42.49 978.73,-42.49 1010.02,-42.49"/>
<polygon fill="#ff9800" stroke="#ff9800" stroke-width="1.2" points="1010.19,-45.29 1018.19,-42.49 1010.19,-39.69 1010.19,-45.29"/>
<text text-anchor="middle" x="963.92" y="-45.29" font-family="Helvetica,sans-Serif" font-size="9.00" fill="#ff9800">refund_requested</text>
</g>
<!-- cancelled -->
<g id="node4" class="node">
<title>cancelled</title>
<ellipse fill="#ffcdd2" stroke="#d32f2f" stroke-width="1.5" cx="489.42" cy="-145.49" rx="39.17" ry="39.17"/>
<ellipse fill="none" stroke="#d32f2f" stroke-width="1.5" cx="489.42" cy="-145.49" rx="43.17" ry="43.17"/>
<text text-anchor="middle" x="489.42" y="-142.69" font-family="Helvetica,sans-Serif" font-size="11.00">Cancelled</text>
</g>
<!-- pending&#45;&gt;cancelled -->
<g id="edge3" class="edge">
<title>pending&#45;&gt;cancelled</title>
<path fill="none" stroke="#d32f2f" stroke-width="1.2" d="M176.78,-111.09C237.24,-117.77 366.82,-132.07 438.38,-139.96"/>
<polygon fill="#d32f2f" stroke="#d32f2f" stroke-width="1.2" points="438.13,-142.75 446.39,-140.85 438.74,-137.19 438.13,-142.75"/>
<text text-anchor="middle" x="304.04" y="-131.29" font-family="Helvetica,sans-Serif" font-size="9.00" fill="#d32f2f">timeout</text>
</g>
<!-- confirmed -->
<g id="node6" class="node">
<title>confirmed</title>
<ellipse fill="#e3f2fd" stroke="#1976d2" stroke-width="1.5" cx="304.04" cy="-69.49" rx="40.08" ry="40.08"/>
<text text-anchor="middle" x="304.04" y="-66.69" font-family="Helvetica,sans-Serif" font-size="11.00">Confirmed</text>
</g>
<!-- pending&#45;&gt;confirmed -->
<g id="edge2" class="edge">
<title>pending&#45;&gt;confirmed</title>
<path fill="none" stroke="#444444" stroke-width="1.2" d="M176.24,-99.8C199.43,-94.25 231.06,-86.69 256.93,-80.51"/>
<polygon fill="#444444" stroke="#444444" stroke-width="1.2" points="257.63,-83.22 264.75,-78.64 256.32,-77.77 257.63,-83.22"/>
<text text-anchor="middle" x="220.25" y="-97.29" font-family="Helvetica,sans-Serif" font-size="9.00">payment_ok</text>
</g>
<!-- confirmed&#45;&gt;cancelled -->
<g id="edge5" class="edge">
<title>confirmed&#45;&gt;cancelled</title>
<path fill="none" stroke="#d32f2f" stroke-width="1.2" stroke-dasharray="5,2" d="M341.71,-84.68C370.42,-96.58 410.56,-113.22 441.59,-126.08"/>
<polygon fill="#d32f2f" stroke="#d32f2f" stroke-width="1.2" points="440.81,-128.79 449.28,-129.26 442.96,-123.61 440.81,-128.79"/>
<text text-anchor="middle" x="395.33" y="-121.29" font-family="Helvetica,sans-Serif" font-size="9.00" fill="#d32f2f">fraud_detected</text>
</g>
<!-- processing -->
<g id="node7" class="node">
<title>processing</title>
<ellipse fill="#e3f2fd" stroke="#1976d2" stroke-width="1.5" cx="489.42" cy="-42.49" rx="42.19" ry="42.19"/>
<text text-anchor="middle" x="489.42" y="-39.69" font-family="Helvetica,sans-Serif" font-size="11.00">Processing</text>
</g>
<!-- confirmed&#45;&gt;processing -->
<g id="edge4" class="edge">
<title>confirmed&#45;&gt;processing</title>
<path fill="none" stroke="#444444" stroke-width="1.2" d="M343.93,-63.76C371.8,-59.66 409.54,-54.1 439.46,-49.69"/>
<polygon fill="#444444" stroke="#444444" stroke-width="1.2" points="440.17,-52.42 447.68,-48.48 439.35,-46.88 440.17,-52.42"/>
<text text-anchor="middle" x="395.33" y="-64.29" font-family="Helvetica,sans-Serif" font-size="9.00">warehouse_ack</text>
</g>
<!-- shipped -->
<g id="node8" class="node">
<title>shipped</title>
<ellipse fill="#e3f2fd" stroke="#1976d2" stroke-width="1.5" cx="678.18" cy="-42.49" rx="33.85" ry="33.85"/>
<text text-anchor="middle" x="678.18" y="-39.69" font-family="Helvetica,sans-Serif" font-size="11.00">Shipped</text>
</g>
<!-- processing&#45;&gt;shipped -->
<g id="edge6" class="edge">
<title>processing&#45;&gt;shipped</title>
<path fill="none" stroke="#444444" stroke-width="1.2" d="M531.86,-42.49C562.94,-42.49 605.26,-42.49 636.22,-42.49"/>
<polygon fill="#444444" stroke="#444444" stroke-width="1.2" points="636.23,-45.29 644.23,-42.49 636.23,-39.69 636.23,-45.29"/>
<text text-anchor="middle" x="588.5" y="-45.29" font-family="Helvetica,sans-Serif" font-size="9.00">tracking_assigned</text>
</g>
<!-- shipped&#45;&gt;delivered -->
<g id="edge7" class="edge">
<title>shipped&#45;&gt;delivered</title>
<path fill="none" stroke="#444444" stroke-width="1.2" d="M711.92,-42.49C741.3,-42.49 784.82,-42.49 818.31,-42.49"/>
<polygon fill="#444444" stroke="#444444" stroke-width="1.2" points="818.59,-45.29 826.59,-42.49 818.59,-39.69 818.59,-45.29"/>
<text text-anchor="middle" x="769.35" y="-45.29" font-family="Helvetica,sans-Serif" font-size="9.00">delivery_confirmed</text>
</g>
<!-- shipped&#45;&gt;processing -->
<g id="edge8" class="edge">
<title>shipped&#45;&gt;processing</title>
<path fill="none" stroke="#444444" stroke-width="1.2" stroke-dasharray="1,5" d="M645.82,-32.41C639.49,-30.78 632.83,-29.34 626.5,-28.49 593.03,-23.95 584.06,-24.63 550.5,-28.49 546.48,-28.95 542.34,-29.58 538.2,-30.32"/>
<polygon fill="#444444" stroke="#444444" stroke-width="1.2" points="537.59,-27.58 530.27,-31.86 538.66,-33.08 537.59,-27.58"/>
<text text-anchor="middle" x="588.5" y="-31.29" font-family="Helvetica,sans-Serif" font-size="9.00">returned</text>
</g>
</g>
</svg>
