<?xml version="1.0" encoding="UTF-8" standalone="no"?>
<!DOCTYPE svg PUBLIC "-//W3C//DTD SVG 1.1//EN"
 "http://www.w3.org/Graphics/SVG/1.1/DTD/svg11.dtd">
<!-- Generated by graphviz version 2.43.0 (0)
 -->
<!-- Title: %3 Pages: 1 -->
<svg width="270pt" height="538pt"
 viewBox="21.60 21.60 248.10 516.60" xmlns="http://www.w3.org/2000/svg" xmlns:xlink="http://www.w3.org/1999/xlink">
<g id="graph0" class="graph" transform="scale(1 1) rotate(0) translate(25.6 512.6)">
<title>%3</title>
<polygon fill="white" stroke="transparent" points="-4,4 -4,-491 222.5,-491 222.5,4 -4,4"/>
<!-- State0 -->
<g id="node1" class="node">
<title>State0</title>
<ellipse fill="#dbeafe" stroke="#2d5f8a" stroke-width="1.5" cx="36.5" cy="-451" rx="36" ry="36"/>
<text text-anchor="start" x="22" y="-449.5" font-family="Helvetica,sans-Serif" font-weight="bold" font-size="10.00" fill="#333333">State0</text>
</g>
<!-- State1 -->
<g id="node2" class="node">
<title>State1</title>
<ellipse fill="#dbeafe" stroke="#2d5f8a" stroke-width="1.5" cx="36.5" cy="-313" rx="36" ry="36"/>
<text text-anchor="start" x="22" y="-311.5" font-family="Helvetica,sans-Serif" font-weight="bold" font-size="10.00" fill="#333333">State1</text>
</g>
<!-- State0&#45;&gt;State1 -->
<g id="edge1" class="edge">
<title>State0&#45;&gt;State1</title>
<path fill="none" stroke="#333333" stroke-width="1.2" d="M36.5,-414.98C36.5,-398.06 36.5,-377.54 36.5,-359.43"/>
<polygon fill="#333333" stroke="#333333" stroke-width="1.2" points="40,-359.38 36.5,-349.38 33,-359.38 40,-359.38"/>
<text text-anchor="start" x="36.5" y="-389.8" font-family="Helvetica,sans-Serif" font-size="9.00" fill="#333333"> &#160;&#160;poll(): allocate buf,</text>
<text text-anchor="start" x="36.5" y="-379.8" font-family="Helvetica,sans-Serif" font-size="9.00" fill="#333333"> &#160;&#160;start read,</text>
<text text-anchor="start" x="36.5" y="-369.8" font-family="Helvetica,sans-Serif" font-size="9.00" fill="#333333"> &#160;&#160;return Pending</text>
</g>
<!-- State2 -->
<g id="node3" class="node">
<title>State2</title>
<ellipse fill="#fecaca" stroke="#c0392b" stroke-width="1.5" cx="36.5" cy="-165" rx="36" ry="36"/>
<text text-anchor="start" x="22" y="-163.5" font-family="Helvetica,sans-Serif" font-weight="bold" font-size="10.00" fill="#333333">State2</text>
</g>
<!-- State1&#45;&gt;State2 -->
<g id="edge2" class="edge">
<title>State1&#45;&gt;State2</title>
<path fill="none" stroke="#333333" stroke-width="1.2" d="M36.5,-276.66C36.5,-256.93 36.5,-232.15 36.5,-211.05"/>
<polygon fill="#333333" stroke="#333333" stroke-width="1.2" points="40,-211.02 36.5,-201.02 33,-211.02 40,-211.02"/>
<text text-anchor="start" x="36.5" y="-251.8" font-family="Helvetica,sans-Serif" font-size="9.00" fill="#333333"> &#160;&#160;poll(): read complete,</text>
<text text-anchor="start" x="36.5" y="-241.8" font-family="Helvetica,sans-Serif" font-size="9.00" fill="#333333"> &#160;&#160;transform(&amp;buf),</text>
<text text-anchor="start" x="36.5" y="-231.8" font-family="Helvetica,sans-Serif" font-size="9.00" fill="#333333"> &#160;&#160;start write(&amp;response),</text>
<text text-anchor="start" x="36.5" y="-221.8" font-family="Helvetica,sans-Serif" font-size="9.00" fill="#333333"> &#160;&#160;return Pending</text>
</g>
<!-- Done -->
<g id="node4" class="node">
<title>Done</title>
<ellipse fill="#dcfce7" stroke="#16a34a" stroke-width="1.5" cx="36.5" cy="-36.5" rx="32.5" ry="32.5"/>
<ellipse fill="none" stroke="#16a34a" stroke-width="1.5" cx="36.5" cy="-36.5" rx="36.5" ry="36.5"/>
<text text-anchor="start" x="24" y="-35" font-family="Helvetica,sans-Serif" font-weight="bold" font-size="10.00" fill="#333333">Done</text>
</g>
<!-- State2&#45;&gt;Done -->
<g id="edge3" class="edge">
<title>State2&#45;&gt;Done</title>
<path fill="none" stroke="#333333" stroke-width="1.2" d="M36.5,-128.76C36.5,-114.74 36.5,-98.43 36.5,-83.5"/>
<polygon fill="#333333" stroke="#333333" stroke-width="1.2" points="40,-83.43 36.5,-73.43 33,-83.43 40,-83.43"/>
<text text-anchor="start" x="36.5" y="-103.8" font-family="Helvetica,sans-Serif" font-size="9.00" fill="#333333"> &#160;&#160;poll(): write complete,</text>
<text text-anchor="start" x="36.5" y="-93.8" font-family="Helvetica,sans-Serif" font-size="9.00" fill="#333333"> &#160;&#160;return Ready</text>
</g>
<!-- note -->
<g id="node5" class="node">
<title>note</title>
<polygon fill="#fef2f2" stroke="#c0392b" stroke-width="1.5" points="212.5,-475 90.5,-475 90.5,-427 218.5,-427 218.5,-469 212.5,-475"/>
<polyline fill="none" stroke="#c0392b" stroke-width="1.5" points="212.5,-475 212.5,-469 "/>
<polyline fill="none" stroke="#c0392b" stroke-width="1.5" points="218.5,-469 212.5,-469 "/>
<text text-anchor="middle" x="154.5" y="-463.8" font-family="Helvetica,sans-Serif" font-size="9.00" fill="#c0392b">State2: write future borrows</text>
<text text-anchor="middle" x="154.5" y="-453.8" font-family="Helvetica,sans-Serif" font-size="9.00" fill="#c0392b">&amp;response, which is a field</text>
<text text-anchor="middle" x="154.5" y="-443.8" font-family="Helvetica,sans-Serif" font-size="9.00" fill="#c0392b">of this same enum variant.</text>
<text text-anchor="middle" x="154.5" y="-433.8" font-family="Helvetica,sans-Serif" font-size="9.00" fill="#c0392b">Self&#45;referential struct.</text>
</g>
<!-- note&#45;&gt;State2 -->
<g id="edge4" class="edge">
<title>note&#45;&gt;State2</title>
<path fill="none" stroke="#c0392b" stroke-width="1.2" stroke-dasharray="5,2" d="M159.5,-426.71C167.69,-382.24 179.09,-283.91 136.5,-219 123.66,-199.43 101.11,-186.59 80.68,-178.47"/>
<polygon fill="#c0392b" stroke="#c0392b" stroke-width="1.2" points="71.17,-174.95 82.11,-174.2 75.9,-176.59 80.59,-178.33 80.55,-178.42 80.52,-178.51 75.83,-176.78 78.99,-182.64 71.17,-174.95 71.17,-174.95"/>
</g>
</g>
</svg>
