<?xml version="1.0" encoding="UTF-8" standalone="no"?>
<!DOCTYPE svg PUBLIC "-//W3C//DTD SVG 1.1//EN"
 "http://www.w3.org/Graphics/SVG/1.1/DTD/svg11.dtd">
<!-- Generated by graphviz version 2.43.0 (0)
 -->
<!-- Title: network_topology Pages: 1 -->
<svg width="778pt" height="789pt"
 viewBox="0.00 0.00 777.64 789.18" xmlns="http://www.w3.org/2000/svg" xmlns:xlink="http://www.w3.org/1999/xlink">
<g id="graph0" class="graph" transform="scale(1 1) rotate(0) translate(36 753.18)">
<title>network_topology</title>
<polygon fill="white" stroke="transparent" points="-36,36 -36,-753.18 741.64,-753.18 741.64,36 -36,36"/>
<text text-anchor="middle" x="352.82" y="-698.78" font-family="Helvetica,sans-Serif" font-size="18.00">Data Center Network Topology</text>
<!-- core1 -->
<g id="node1" class="node">
<title>core1</title>
<polygon fill="#ef5350" stroke="black" stroke-width="1.5" points="330.98,-340.48 305.73,-358.48 255.23,-358.48 229.98,-340.48 255.23,-322.48 305.73,-322.48 330.98,-340.48"/>
<text text-anchor="middle" x="280.48" y="-338.28" font-family="Helvetica,sans-Serif" font-size="9.00" fill="white">Core 1</text>
</g>
<!-- core2 -->
<g id="node2" class="node">
<title>core2</title>
<polygon fill="#ef5350" stroke="black" stroke-width="1.5" points="439.99,-313.54 414.74,-331.54 364.24,-331.54 338.99,-313.54 364.24,-295.54 414.74,-295.54 439.99,-313.54"/>
<text text-anchor="middle" x="389.49" y="-311.34" font-family="Helvetica,sans-Serif" font-size="9.00" fill="white">Core 2</text>
</g>
<!-- core1&#45;&#45;core2 -->
<g id="edge1" class="edge">
<title>core1&#45;&#45;core2</title>
<path fill="none" stroke="#d32f2f" stroke-width="3" d="M317.99,-331.21C328.95,-328.5 340.94,-325.54 351.9,-322.83"/>
<text text-anchor="middle" x="350.45" y="-329.62" font-family="Helvetica,sans-Serif" font-size="8.00">10 Gbps</text>
</g>
<!-- dist_a -->
<g id="node3" class="node">
<title>dist_a</title>
<path fill="#42a5f5" stroke="black" stroke-width="1.5" d="M227.49,-214.47C227.49,-214.47 191.49,-214.47 191.49,-214.47 185.49,-214.47 179.49,-208.47 179.49,-202.47 179.49,-202.47 179.49,-190.47 179.49,-190.47 179.49,-184.47 185.49,-178.47 191.49,-178.47 191.49,-178.47 227.49,-178.47 227.49,-178.47 233.49,-178.47 239.49,-184.47 239.49,-190.47 239.49,-190.47 239.49,-202.47 239.49,-202.47 239.49,-208.47 233.49,-214.47 227.49,-214.47"/>
<text text-anchor="middle" x="209.49" y="-194.27" font-family="Helvetica,sans-Serif" font-size="9.00" fill="white">SWITCH A</text>
</g>
<!-- dist_a&#45;&#45;core1 -->
<g id="edge2" class="edge">
<title>dist_a&#45;&#45;core1</title>
<path fill="none" stroke="#1976d2" stroke-width="2" d="M218.48,-214.71C232.13,-242.41 257.95,-294.78 271.56,-322.39"/>
</g>
<!-- dist_a&#45;&#45;core2 -->
<g id="edge3" class="edge">
<title>dist_a&#45;&#45;core2</title>
<path fill="none" stroke="#1976d2" stroke-width="2" stroke-dasharray="5,2" d="M237.22,-214.51C271.44,-236.77 329.21,-274.34 362.9,-296.25"/>
</g>
<!-- web1 -->
<g id="node6" class="node">
<title>web1</title>
<ellipse fill="#66bb6a" stroke="black" stroke-width="1.5" cx="27" cy="-231.69" rx="27" ry="18"/>
<text text-anchor="middle" x="27" y="-229.49" font-family="Helvetica,sans-Serif" font-size="9.00" fill="white">web1</text>
</g>
<!-- dist_a&#45;&#45;web1 -->
<g id="edge8" class="edge">
<title>dist_a&#45;&#45;web1</title>
<path fill="none" stroke="#888888" d="M179.35,-202.29C144.12,-209.09 86.4,-220.22 53.04,-226.66"/>
</g>
<!-- web2 -->
<g id="node7" class="node">
<title>web2</title>
<ellipse fill="#66bb6a" stroke="black" stroke-width="1.5" cx="88.44" cy="-69.77" rx="27" ry="18"/>
<text text-anchor="middle" x="88.44" y="-67.57" font-family="Helvetica,sans-Serif" font-size="9.00" fill="white">web2</text>
</g>
<!-- dist_a&#45;&#45;web2 -->
<g id="edge9" class="edge">
<title>dist_a&#45;&#45;web2</title>
<path fill="none" stroke="#888888" d="M192.14,-178.32C168.22,-153.28 125.51,-108.57 103.09,-85.1"/>
</g>
<!-- web3 -->
<g id="node8" class="node">
<title>web3</title>
<ellipse fill="#66bb6a" stroke="black" stroke-width="1.5" cx="253.97" cy="-18" rx="27" ry="18"/>
<text text-anchor="middle" x="253.97" y="-15.8" font-family="Helvetica,sans-Serif" font-size="9.00" fill="white">web3</text>
</g>
<!-- dist_a&#45;&#45;web3 -->
<g id="edge10" class="edge">
<title>dist_a&#45;&#45;web3</title>
<path fill="none" stroke="#888888" d="M214,-178.38C222.54,-144.08 241.01,-70 249.51,-35.88"/>
</g>
<!-- dist_b -->
<g id="node4" class="node">
<title>dist_b</title>
<path fill="#42a5f5" stroke="black" stroke-width="1.5" d="M525.71,-286.18C525.71,-286.18 489.71,-286.18 489.71,-286.18 483.71,-286.18 477.71,-280.18 477.71,-274.18 477.71,-274.18 477.71,-262.18 477.71,-262.18 477.71,-256.18 483.71,-250.18 489.71,-250.18 489.71,-250.18 525.71,-250.18 525.71,-250.18 531.71,-250.18 537.71,-256.18 537.71,-262.18 537.71,-262.18 537.71,-274.18 537.71,-274.18 537.71,-280.18 531.71,-286.18 525.71,-286.18"/>
<text text-anchor="middle" x="507.71" y="-265.98" font-family="Helvetica,sans-Serif" font-size="9.00" fill="white">SWITCH B</text>
</g>
<!-- dist_b&#45;&#45;core1 -->
<g id="edge4" class="edge">
<title>dist_b&#45;&#45;core1</title>
<path fill="none" stroke="#1976d2" stroke-width="2" d="M477.54,-270.35C447.44,-273.23 400.23,-279.68 361.63,-293.69 341.91,-300.84 321.45,-312.67 306.02,-322.64"/>
</g>
<!-- dist_b&#45;&#45;core2 -->
<g id="edge5" class="edge">
<title>dist_b&#45;&#45;core2</title>
<path fill="none" stroke="#1976d2" stroke-width="2" stroke-dasharray="5,2" d="M477.57,-279.75C460.74,-286.2 439.75,-294.26 422.48,-300.88"/>
</g>
<!-- app1 -->
<g id="node9" class="node">
<title>app1</title>
<ellipse fill="#ffa726" stroke="black" stroke-width="1.5" cx="608.17" cy="-120.13" rx="27" ry="18"/>
<text text-anchor="middle" x="608.17" y="-117.93" font-family="Helvetica,sans-Serif" font-size="9.00" fill="white">app1</text>
</g>
<!-- dist_b&#45;&#45;app1 -->
<g id="edge11" class="edge">
<title>dist_b&#45;&#45;app1</title>
<path fill="none" stroke="#888888" d="M520.03,-250.03C539.73,-220.99 578.03,-164.55 596.99,-136.61"/>
</g>
<!-- app2 -->
<g id="node10" class="node">
<title>app2</title>
<ellipse fill="#ffa726" stroke="black" stroke-width="1.5" cx="678.64" cy="-320.53" rx="27" ry="18"/>
<text text-anchor="middle" x="678.64" y="-318.33" font-family="Helvetica,sans-Serif" font-size="9.00" fill="white">app2</text>
</g>
<!-- dist_b&#45;&#45;app2 -->
<g id="edge12" class="edge">
<title>dist_b&#45;&#45;app2</title>
<path fill="none" stroke="#888888" d="M537.88,-277.42C570.94,-287.55 623.36,-303.6 654.04,-312.99"/>
</g>
<!-- dist_c -->
<g id="node5" class="node">
<title>dist_c</title>
<path fill="#42a5f5" stroke="black" stroke-width="1.5" d="M335.02,-523.64C335.02,-523.64 298.02,-523.64 298.02,-523.64 292.02,-523.64 286.02,-517.64 286.02,-511.64 286.02,-511.64 286.02,-499.64 286.02,-499.64 286.02,-493.64 292.02,-487.64 298.02,-487.64 298.02,-487.64 335.02,-487.64 335.02,-487.64 341.02,-487.64 347.02,-493.64 347.02,-499.64 347.02,-499.64 347.02,-511.64 347.02,-511.64 347.02,-517.64 341.02,-523.64 335.02,-523.64"/>
<text text-anchor="middle" x="316.52" y="-503.44" font-family="Helvetica,sans-Serif" font-size="9.00" fill="white">SWITCH C</text>
</g>
<!-- dist_c&#45;&#45;core1 -->
<g id="edge6" class="edge">
<title>dist_c&#45;&#45;core1</title>
<path fill="none" stroke="#1976d2" stroke-width="2" d="M312.53,-487.34C305.58,-455.51 291.35,-390.33 284.43,-358.62"/>
</g>
<!-- dist_c&#45;&#45;core2 -->
<g id="edge7" class="edge">
<title>dist_c&#45;&#45;core2</title>
<path fill="none" stroke="#1976d2" stroke-width="2" stroke-dasharray="5,2" d="M323.38,-487.57C337.29,-450.96 368.65,-368.4 382.59,-331.71"/>
</g>
<!-- db1 -->
<g id="node11" class="node">
<title>db1</title>
<ellipse fill="#ab47bc" stroke="black" stroke-width="1.5" cx="159.8" cy="-598.33" rx="27" ry="18"/>
<text text-anchor="middle" x="159.8" y="-596.13" font-family="Helvetica,sans-Serif" font-size="9.00" fill="white">db1</text>
</g>
<!-- dist_c&#45;&#45;db1 -->
<g id="edge13" class="edge">
<title>dist_c&#45;&#45;db1</title>
<path fill="none" stroke="#888888" d="M285.93,-523.73C254.75,-542.17 207.26,-570.26 180.32,-586.19"/>
</g>
<!-- db2 -->
<g id="node12" class="node">
<title>db2</title>
<ellipse fill="#ab47bc" stroke="black" stroke-width="1.5" cx="268.56" cy="-671.18" rx="27" ry="18"/>
<text text-anchor="middle" x="268.56" y="-668.98" font-family="Helvetica,sans-Serif" font-size="9.00" fill="white">db2</text>
</g>
<!-- dist_c&#45;&#45;db2 -->
<g id="edge14" class="edge">
<title>dist_c&#45;&#45;db2</title>
<path fill="none" stroke="#888888" d="M311.3,-523.68C302.07,-555.52 283,-621.35 273.77,-653.17"/>
</g>
<!-- cache1 -->
<g id="node13" class="node">
<title>cache1</title>
<ellipse fill="#26c6da" stroke="black" stroke-width="1.5" cx="455.08" cy="-627.55" rx="27.27" ry="18"/>
<text text-anchor="middle" x="455.08" y="-625.35" font-family="Helvetica,sans-Serif" font-size="9.00" fill="white">cache1</text>
</g>
<!-- dist_c&#45;&#45;cache1 -->
<g id="edge15" class="edge">
<title>dist_c&#45;&#45;cache1</title>
<path fill="none" stroke="#888888" d="M337.26,-523.89C364.9,-548.2 413.23,-590.73 438.55,-613"/>
</g>
<!-- db1&#45;&#45;db2 -->
<g id="edge16" class="edge">
<title>db1&#45;&#45;db2</title>
<path fill="none" stroke="#7b1fa2" stroke-dasharray="1,5" d="M178.99,-611.18C198.75,-624.42 229.37,-644.93 249.19,-658.21"/>
<text text-anchor="middle" x="195.57" y="-637.28" font-family="Helvetica,sans-Serif" font-size="8.00">replication</text>
</g>
</g>
</svg>
