<?xml version="1.0" encoding="UTF-8" standalone="no"?>
<!DOCTYPE svg PUBLIC "-//W3C//DTD SVG 1.1//EN"
 "http://www.w3.org/Graphics/SVG/1.1/DTD/svg11.dtd">
<!-- Generated by graphviz version 12.2.1 (20241206.2353)
 -->
<!-- Title: network_topology Pages: 1 -->
<svg width="777pt" height="787pt"
 viewBox="0.00 0.00 776.89 787.17" xmlns="http://www.w3.org/2000/svg" xmlns:xlink="http://www.w3.org/1999/xlink">
<g id="graph0" class="graph" transform="scale(1 1) rotate(0) translate(36 751.17)">
<title>network_topology</title>
<polygon fill="white" stroke="none" points="-36,36 -36,-751.17 740.89,-751.17 740.89,36 -36,36"/>
<text text-anchor="middle" x="352.44" y="-694.07" font-family="Helvetica,sans-Serif" font-size="18.00">Data Center Network Topology</text>
<!-- core1 -->
<g id="node1" class="node">
<title>core1</title>
<polygon fill="#ef5350" stroke="black" stroke-width="1.5" points="330.59,-340.1 305.39,-358.1 254.99,-358.1 229.79,-340.1 254.99,-322.1 305.39,-322.1 330.59,-340.1"/>
<text text-anchor="middle" x="280.19" y="-336.43" font-family="Helvetica,sans-Serif" font-size="9.00" fill="white">Core 1</text>
</g>
<!-- core2 -->
<g id="node2" class="node">
<title>core2</title>
<polygon fill="#ef5350" stroke="black" stroke-width="1.5" points="439.45,-313.2 414.25,-331.2 363.85,-331.2 338.65,-313.2 363.85,-295.2 414.25,-295.2 439.45,-313.2"/>
<text text-anchor="middle" x="389.05" y="-309.53" font-family="Helvetica,sans-Serif" font-size="9.00" fill="white">Core 2</text>
</g>
<!-- core1&#45;&#45;core2 -->
<g id="edge1" class="edge">
<title>core1&#45;&#45;core2</title>
<path fill="none" stroke="#d32f2f" stroke-width="3" d="M318.27,-330.7C328.94,-328.06 340.53,-325.19 351.18,-322.56"/>
<text text-anchor="middle" x="319.73" y="-319.03" font-family="Helvetica,sans-Serif" font-size="8.00">10 Gbps</text>
</g>
<!-- dist_a -->
<g id="node3" class="node">
<title>dist_a</title>
<path fill="#42a5f5" stroke="black" stroke-width="1.5" d="M227.03,-214.27C227.03,-214.27 191.53,-214.27 191.53,-214.27 185.53,-214.27 179.53,-208.27 179.53,-202.27 179.53,-202.27 179.53,-190.27 179.53,-190.27 179.53,-184.27 185.53,-178.27 191.53,-178.27 191.53,-178.27 227.03,-178.27 227.03,-178.27 233.03,-178.27 239.03,-184.27 239.03,-190.27 239.03,-190.27 239.03,-202.27 239.03,-202.27 239.03,-208.27 233.03,-214.27 227.03,-214.27"/>
<text text-anchor="middle" x="209.28" y="-192.59" font-family="Helvetica,sans-Serif" font-size="9.00" fill="white">SWITCH A</text>
</g>
<!-- dist_a&#45;&#45;core1 -->
<g id="edge2" class="edge">
<title>dist_a&#45;&#45;core1</title>
<path fill="none" stroke="#1976d2" stroke-width="2" d="M218.26,-214.48C231.9,-242.15 257.69,-294.46 271.28,-322.04"/>
</g>
<!-- dist_a&#45;&#45;core2 -->
<g id="edge3" class="edge">
<title>dist_a&#45;&#45;core2</title>
<path fill="none" stroke="#1976d2" stroke-width="2" stroke-dasharray="5,2" d="M237.37,-214.54C271.53,-236.76 328.8,-274.01 362.33,-295.82"/>
</g>
<!-- web1 -->
<g id="node6" class="node">
<title>web1</title>
<ellipse fill="#66bb6a" stroke="black" stroke-width="1.5" cx="27" cy="-231.44" rx="27" ry="18"/>
<text text-anchor="middle" x="27" y="-227.76" font-family="Helvetica,sans-Serif" font-size="9.00" fill="white">web1</text>
</g>
<!-- dist_a&#45;&#45;web1 -->
<g id="edge8" class="edge">
<title>dist_a&#45;&#45;web1</title>
<path fill="none" stroke="#888888" d="M179.18,-202.07C144.09,-208.84 86.66,-219.92 53.29,-226.36"/>
</g>
<!-- web2 -->
<g id="node7" class="node">
<title>web2</title>
<ellipse fill="#66bb6a" stroke="black" stroke-width="1.5" cx="88.37" cy="-69.71" rx="27" ry="18"/>
<text text-anchor="middle" x="88.37" y="-66.03" font-family="Helvetica,sans-Serif" font-size="9.00" fill="white">web2</text>
</g>
<!-- dist_a&#45;&#45;web2 -->
<g id="edge9" class="edge">
<title>dist_a&#45;&#45;web2</title>
<path fill="none" stroke="#888888" d="M191.69,-177.86C167.72,-152.77 125.22,-108.28 102.93,-84.95"/>
</g>
<!-- web3 -->
<g id="node8" class="node">
<title>web3</title>
<ellipse fill="#66bb6a" stroke="black" stroke-width="1.5" cx="253.7" cy="-18" rx="27" ry="18"/>
<text text-anchor="middle" x="253.7" y="-14.32" font-family="Helvetica,sans-Serif" font-size="9.00" fill="white">web3</text>
</g>
<!-- dist_a&#45;&#45;web3 -->
<g id="edge10" class="edge">
<title>dist_a&#45;&#45;web3</title>
<path fill="none" stroke="#888888" d="M213.86,-177.86C222.42,-143.52 240.72,-70.1 249.21,-36.04"/>
</g>
<!-- dist_b -->
<g id="node4" class="node">
<title>dist_b</title>
<path fill="#42a5f5" stroke="black" stroke-width="1.5" d="M524.9,-285.89C524.9,-285.89 489.4,-285.89 489.4,-285.89 483.4,-285.89 477.4,-279.89 477.4,-273.89 477.4,-273.89 477.4,-261.89 477.4,-261.89 477.4,-255.89 483.4,-249.89 489.4,-249.89 489.4,-249.89 524.9,-249.89 524.9,-249.89 530.9,-249.89 536.9,-255.89 536.9,-261.89 536.9,-261.89 536.9,-273.89 536.9,-273.89 536.9,-279.89 530.9,-285.89 524.9,-285.89"/>
<text text-anchor="middle" x="507.15" y="-264.22" font-family="Helvetica,sans-Serif" font-size="9.00" fill="white">SWITCH B</text>
</g>
<!-- dist_b&#45;&#45;core1 -->
<g id="edge4" class="edge">
<title>dist_b&#45;&#45;core1</title>
<path fill="none" stroke="#1976d2" stroke-width="2" d="M476.98,-269.87C446.87,-272.57 399.66,-278.79 361.11,-292.82 341.38,-299.99 320.99,-311.94 305.61,-322.04"/>
</g>
<!-- dist_b&#45;&#45;core2 -->
<g id="edge5" class="edge">
<title>dist_b&#45;&#45;core2</title>
<path fill="none" stroke="#1976d2" stroke-width="2" stroke-dasharray="5,2" d="M477.04,-279.44C460.23,-285.89 439.26,-293.94 422.01,-300.56"/>
</g>
<!-- app1 -->
<g id="node9" class="node">
<title>app1</title>
<ellipse fill="#ffa726" stroke="black" stroke-width="1.5" cx="607.5" cy="-120.01" rx="27" ry="18"/>
<text text-anchor="middle" x="607.5" y="-116.33" font-family="Helvetica,sans-Serif" font-size="9.00" fill="white">app1</text>
</g>
<!-- dist_b&#45;&#45;app1 -->
<g id="edge11" class="edge">
<title>dist_b&#45;&#45;app1</title>
<path fill="none" stroke="#888888" d="M519.66,-249.46C539.41,-220.35 577.52,-164.18 596.38,-136.39"/>
</g>
<!-- app2 -->
<g id="node10" class="node">
<title>app2</title>
<ellipse fill="#ffa726" stroke="black" stroke-width="1.5" cx="677.89" cy="-320.17" rx="27" ry="18"/>
<text text-anchor="middle" x="677.89" y="-316.5" font-family="Helvetica,sans-Serif" font-size="9.00" fill="white">app2</text>
</g>
<!-- dist_b&#45;&#45;app2 -->
<g id="edge12" class="edge">
<title>dist_b&#45;&#45;app2</title>
<path fill="none" stroke="#888888" d="M537.28,-277.12C570.21,-287.2 622.36,-303.17 653.04,-312.57"/>
</g>
<!-- dist_c -->
<g id="node5" class="node">
<title>dist_c</title>
<path fill="#42a5f5" stroke="black" stroke-width="1.5" d="M334.31,-523.08C334.31,-523.08 298.06,-523.08 298.06,-523.08 292.06,-523.08 286.06,-517.08 286.06,-511.08 286.06,-511.08 286.06,-499.08 286.06,-499.08 286.06,-493.08 292.06,-487.08 298.06,-487.08 298.06,-487.08 334.31,-487.08 334.31,-487.08 340.31,-487.08 346.31,-493.08 346.31,-499.08 346.31,-499.08 346.31,-511.08 346.31,-511.08 346.31,-517.08 340.31,-523.08 334.31,-523.08"/>
<text text-anchor="middle" x="316.18" y="-501.4" font-family="Helvetica,sans-Serif" font-size="9.00" fill="white">SWITCH C</text>
</g>
<!-- dist_c&#45;&#45;core1 -->
<g id="edge6" class="edge">
<title>dist_c&#45;&#45;core1</title>
<path fill="none" stroke="#1976d2" stroke-width="2" d="M312.19,-486.79C305.28,-455.08 291.13,-390.24 284.2,-358.47"/>
</g>
<!-- dist_c&#45;&#45;core2 -->
<g id="edge7" class="edge">
<title>dist_c&#45;&#45;core2</title>
<path fill="none" stroke="#1976d2" stroke-width="2" stroke-dasharray="5,2" d="M323.17,-486.68C337.1,-450 368.18,-368.17 382.09,-331.54"/>
</g>
<!-- db1 -->
<g id="node11" class="node">
<title>db1</title>
<ellipse fill="#ab47bc" stroke="black" stroke-width="1.5" cx="159.64" cy="-597.65" rx="27" ry="18"/>
<text text-anchor="middle" x="159.64" y="-593.98" font-family="Helvetica,sans-Serif" font-size="9.00" fill="white">db1</text>
</g>
<!-- dist_c&#45;&#45;db1 -->
<g id="edge13" class="edge">
<title>dist_c&#45;&#45;db1</title>
<path fill="none" stroke="#888888" d="M285.63,-523.15C254.49,-541.56 207.05,-569.62 180.15,-585.53"/>
</g>
<!-- db2 -->
<g id="node12" class="node">
<title>db2</title>
<ellipse fill="#ab47bc" stroke="black" stroke-width="1.5" cx="268.28" cy="-670.42" rx="27" ry="18"/>
<text text-anchor="middle" x="268.28" y="-666.75" font-family="Helvetica,sans-Serif" font-size="9.00" fill="white">db2</text>
</g>
<!-- dist_c&#45;&#45;db2 -->
<g id="edge14" class="edge">
<title>dist_c&#45;&#45;db2</title>
<path fill="none" stroke="#888888" d="M310.87,-523.4C301.64,-555.27 282.74,-620.52 273.54,-652.27"/>
</g>
<!-- cache1 -->
<g id="node13" class="node">
<title>cache1</title>
<ellipse fill="#26c6da" stroke="black" stroke-width="1.5" cx="454.59" cy="-626.84" rx="27" ry="18"/>
<text text-anchor="middle" x="454.59" y="-623.16" font-family="Helvetica,sans-Serif" font-size="9.00" fill="white">cache1</text>
</g>
<!-- dist_c&#45;&#45;cache1 -->
<g id="edge15" class="edge">
<title>dist_c&#45;&#45;cache1</title>
<path fill="none" stroke="#888888" d="M337.2,-523.57C364.88,-547.92 412.97,-590.23 438.15,-612.38"/>
</g>
<!-- db1&#45;&#45;db2 -->
<g id="edge16" class="edge">
<title>db1&#45;&#45;db2</title>
<path fill="none" stroke="#7b1fa2" stroke-dasharray="1,5" d="M179.06,-610.66C198.84,-623.91 229.31,-644.32 249.02,-657.53"/>
<text text-anchor="middle" x="196.07" y="-635.51" font-family="Helvetica,sans-Serif" font-size="8.00">replication</text>
</g>
</g>
</svg>
