<?xml version="1.0" encoding="utf-8" ?>
<svg baseProfile="full" height="400" version="1.1" viewBox="0 0 720 400" width="720" xmlns="http://www.w3.org/2000/svg" xmlns:ev="http://www.w3.org/2001/xml-events" xmlns:xlink="http://www.w3.org/1999/xlink"><defs /><polygon fill="#E8D5C4" points="360,45.0 418.0,113.0 302.0,113.0" stroke="none" /><polygon fill="#C9D6E3" points="302.0,113.0 418.0,113.0 476.0,181.0 244.0,181.0" stroke="none" /><polygon fill="#D5DEDA" points="244.0,181.0 476.0,181.0 534.0,249.0 186.0,249.0" stroke="none" /><polygon fill="#D4DACC" points="186.0,249.0 534.0,249.0 592.0,317.0 128.0,317.0" stroke="none" /><polygon fill="#DEDAE0" points="128.0,317.0 592.0,317.0 650.0,385.0 70.0,385.0" stroke="none" /><polygon fill="none" points="360,45 70,385 650,385" stroke="black" stroke-linejoin="round" stroke-width="2" /><line stroke="black" stroke-width="1.5" x1="302.0" x2="418.0" y1="113.0" y2="113.0" /><line stroke="black" stroke-width="1.5" x1="244.0" x2="476.0" y1="181.0" y2="181.0" /><line stroke="black" stroke-width="1.5" x1="186.0" x2="534.0" y1="249.0" y2="249.0" /><line stroke="black" stroke-width="1.5" x1="128.0" x2="592.0" y1="317.0" y2="317.0" /><text fill="black" font-family="Helvetica, Arial, sans-serif" font-size="11px" text-anchor="middle" x="360" y="86.2">E2E tests</text><text fill="black" font-family="Helvetica, Arial, sans-serif" font-size="11px" text-anchor="middle" x="360" y="101.2">(production)</text><text fill="#666" font-family="Helvetica, Arial, sans-serif" font-size="11px" text-anchor="start" x="407.7" y="93.2">hours</text><text fill="black" font-family="Helvetica, Arial, sans-serif" font-size="13px" text-anchor="middle" x="360" y="144.0">Integration</text><text fill="black" font-family="Helvetica, Arial, sans-serif" font-size="13px" text-anchor="middle" x="360" y="159.0">(remote)</text><text fill="#666" font-family="Helvetica, Arial, sans-serif" font-size="11px" text-anchor="start" x="457.0" y="151.0">hours</text><text fill="black" font-family="Helvetica, Arial, sans-serif" font-size="13px" text-anchor="middle" x="360" y="212.0">Integration</text><text fill="black" font-family="Helvetica, Arial, sans-serif" font-size="13px" text-anchor="middle" x="360" y="227.0">(local)</text><text fill="#666" font-family="Helvetica, Arial, sans-serif" font-size="11px" text-anchor="start" x="515.0" y="219.0">minutes</text><text fill="black" font-family="Helvetica, Arial, sans-serif" font-size="13px" text-anchor="middle" x="360" y="288.0">Unit tests</text><text fill="#666" font-family="Helvetica, Arial, sans-serif" font-size="11px" text-anchor="start" x="573.0" y="287.0">seconds</text><text fill="black" font-family="Helvetica, Arial, sans-serif" font-size="13px" text-anchor="middle" x="360" y="356.0">Static analysis</text><text fill="#666" font-family="Helvetica, Arial, sans-serif" font-size="11px" text-anchor="start" x="631.0" y="355.0">instant</text><line stroke="black" stroke-width="1.5" x1="25" x2="25" y1="50" y2="380" /><polygon fill="black" points="25,50 19,59.6 31,59.6" /><polygon fill="black" points="25,380 19,370.4 31,370.4" /><text fill="black" font-family="Helvetica, Arial, sans-serif" font-size="11px" text-anchor="middle" x="25" y="40">More integration</text><text fill="black" font-family="Helvetica, Arial, sans-serif" font-size="11px" text-anchor="middle" x="25" y="398">More isolation</text><line stroke="black" stroke-width="1.5" x1="695" x2="695" y1="50" y2="380" /><polygon fill="black" points="695,50 689,59.6 701,59.6" /><polygon fill="black" points="695,380 689,370.4 701,370.4" /><text fill="black" font-family="Helvetica, Arial, sans-serif" font-size="11px" text-anchor="middle" x="695" y="40">Slower</text><text fill="black" font-family="Helvetica, Arial, sans-serif" font-size="11px" text-anchor="middle" x="695" y="398">Faster</text></svg>