<?xml version="1.0" encoding="UTF-8" standalone="no"?>
<!DOCTYPE svg PUBLIC "-//W3C//DTD SVG 1.1//EN"
 "http://www.w3.org/Graphics/SVG/1.1/DTD/svg11.dtd">
<!-- Generated by graphviz version 12.2.1 (20241206.2353)
 -->
<!-- Title: microservices_arch Pages: 1 -->
<svg width="672pt" height="462pt"
 viewBox="0.00 0.00 672.00 462.25" xmlns="http://www.w3.org/2000/svg" xmlns:xlink="http://www.w3.org/1999/xlink">
<g id="graph0" class="graph" transform="scale(1 1) rotate(0) translate(36 426.25)">
<title>microservices_arch</title>
<polygon fill="#fafafa" stroke="none" points="-36,36 -36,-426.25 636,-426.25 636,36 -36,36"/>
<g id="clust1" class="cluster">
<title>cluster_frontend</title>
<path fill="#e3f2fd" stroke="#2196f3" stroke-width="2" d="M20,-309.5C20,-309.5 160,-309.5 160,-309.5 166,-309.5 172,-315.5 172,-321.5 172,-321.5 172,-370.25 172,-370.25 172,-376.25 166,-382.25 160,-382.25 160,-382.25 20,-382.25 20,-382.25 14,-382.25 8,-376.25 8,-370.25 8,-370.25 8,-321.5 8,-321.5 8,-315.5 14,-309.5 20,-309.5"/>
<text text-anchor="middle" x="90" y="-366.85" font-family="Helvetica,sans-Serif" font-size="12.00" fill="#1565c0">Frontend Tier</text>
</g>
<g id="clust2" class="cluster">
<title>cluster_gateway</title>
<path fill="#fff3e0" stroke="#ff9800" stroke-width="2" d="M57,-108.5C57,-108.5 129,-108.5 129,-108.5 135,-108.5 141,-114.5 141,-120.5 141,-120.5 141,-269.75 141,-269.75 141,-275.75 135,-281.75 129,-281.75 129,-281.75 57,-281.75 57,-281.75 51,-281.75 45,-275.75 45,-269.75 45,-269.75 45,-120.5 45,-120.5 45,-114.5 51,-108.5 57,-108.5"/>
<text text-anchor="middle" x="93" y="-266.35" font-family="Helvetica,sans-Serif" font-size="12.00" fill="#e65100">API Gateway</text>
</g>
<g id="clust3" class="cluster">
<title>cluster_backend</title>
<path fill="#e8f5e9" stroke="#4caf50" stroke-width="2" d="M161,-8C161,-8 321,-8 321,-8 327,-8 333,-14 333,-20 333,-20 333,-169.25 333,-169.25 333,-175.25 327,-181.25 321,-181.25 321,-181.25 161,-181.25 161,-181.25 155,-181.25 149,-175.25 149,-169.25 149,-169.25 149,-20 149,-20 149,-14 155,-8 161,-8"/>
<text text-anchor="middle" x="241" y="-165.85" font-family="Helvetica,sans-Serif" font-size="12.00" fill="#2e7d32">Backend Services</text>
</g>
<g id="clust4" class="cluster">
<title>cluster_data</title>
<path fill="#f3e5f5" stroke="#9c27b0" stroke-width="2" d="M353,-8C353,-8 580,-8 580,-8 586,-8 592,-14 592,-20 592,-20 592,-68.75 592,-68.75 592,-74.75 586,-80.75 580,-80.75 580,-80.75 353,-80.75 353,-80.75 347,-80.75 341,-74.75 341,-68.75 341,-68.75 341,-20 341,-20 341,-14 347,-8 353,-8"/>
<text text-anchor="middle" x="466.5" y="-65.35" font-family="Helvetica,sans-Serif" font-size="12.00" fill="#6a1b9a">Data Layer</text>
</g>
<!-- web_app -->
<g id="node1" class="node">
<title>web_app</title>
<path fill="#bbdefb" stroke="black" stroke-width="1.2" d="M68,-353.5C68,-353.5 28,-353.5 28,-353.5 22,-353.5 16,-347.5 16,-341.5 16,-341.5 16,-329.5 16,-329.5 16,-323.5 22,-317.5 28,-317.5 28,-317.5 68,-317.5 68,-317.5 74,-317.5 80,-323.5 80,-329.5 80,-329.5 80,-341.5 80,-341.5 80,-347.5 74,-353.5 68,-353.5"/>
<text text-anchor="middle" x="48" y="-331.62" font-family="Helvetica,sans-Serif" font-size="10.00">React SPA</text>
</g>
<!-- gateway -->
<g id="node3" class="node">
<title>gateway</title>
<path fill="#ffe0b2" stroke="black" stroke-width="1.2" d="M121.25,-253C121.25,-253 64.75,-253 64.75,-253 58.75,-253 52.75,-247 52.75,-241 52.75,-241 52.75,-229 52.75,-229 52.75,-223 58.75,-217 64.75,-217 64.75,-217 121.25,-217 121.25,-217 127.25,-217 133.25,-223 133.25,-229 133.25,-229 133.25,-241 133.25,-241 133.25,-247 127.25,-253 121.25,-253"/>
<text text-anchor="middle" x="93" y="-231.12" font-family="Helvetica,sans-Serif" font-size="10.00">Kong Gateway</text>
</g>
<!-- web_app&#45;&gt;gateway -->
<g id="edge1" class="edge">
<title>web_app&#45;&gt;gateway</title>
<path fill="none" stroke="#666666" d="M55.84,-317.34C62.96,-301.76 73.54,-278.59 81.6,-260.95"/>
<polygon fill="#666666" stroke="#666666" points="83.79,-262.05 84.47,-254.67 79.33,-260.02 83.79,-262.05"/>
<text text-anchor="middle" x="82.43" y="-290.95" font-family="Helvetica,sans-Serif" font-size="9.00">HTTPS</text>
</g>
<!-- mobile_bff -->
<g id="node2" class="node">
<title>mobile_bff</title>
<path fill="#bbdefb" stroke="black" stroke-width="1.2" d="M152.12,-353.5C152.12,-353.5 109.88,-353.5 109.88,-353.5 103.88,-353.5 97.88,-347.5 97.88,-341.5 97.88,-341.5 97.88,-329.5 97.88,-329.5 97.88,-323.5 103.88,-317.5 109.88,-317.5 109.88,-317.5 152.12,-317.5 152.12,-317.5 158.12,-317.5 164.12,-323.5 164.12,-329.5 164.12,-329.5 164.12,-341.5 164.12,-341.5 164.12,-347.5 158.12,-353.5 152.12,-353.5"/>
<text text-anchor="middle" x="131" y="-331.62" font-family="Helvetica,sans-Serif" font-size="10.00">Mobile BFF</text>
</g>
<!-- mobile_bff&#45;&gt;gateway -->
<g id="edge2" class="edge">
<title>mobile_bff&#45;&gt;gateway</title>
<path fill="none" stroke="#666666" d="M124.38,-317.34C118.37,-301.76 109.43,-278.59 102.63,-260.95"/>
<polygon fill="#666666" stroke="#666666" points="105.02,-260.35 100.22,-254.7 100.45,-262.12 105.02,-260.35"/>
<text text-anchor="middle" x="131.15" y="-290.95" font-family="Helvetica,sans-Serif" font-size="9.00">HTTPS</text>
</g>
<!-- auth -->
<g id="node4" class="node">
<title>auth</title>
<path fill="#ffe0b2" stroke="black" stroke-width="1.2" d="M117.12,-152.5C117.12,-152.5 68.88,-152.5 68.88,-152.5 62.87,-152.5 56.88,-146.5 56.88,-140.5 56.88,-140.5 56.88,-128.5 56.88,-128.5 56.88,-122.5 62.88,-116.5 68.88,-116.5 68.88,-116.5 117.12,-116.5 117.12,-116.5 123.12,-116.5 129.12,-122.5 129.12,-128.5 129.12,-128.5 129.12,-140.5 129.12,-140.5 129.12,-146.5 123.12,-152.5 117.12,-152.5"/>
<text text-anchor="middle" x="93" y="-130.62" font-family="Helvetica,sans-Serif" font-size="10.00">Auth Service</text>
</g>
<!-- gateway&#45;&gt;auth -->
<g id="edge3" class="edge">
<title>gateway&#45;&gt;auth</title>
<path fill="none" stroke="#666666" stroke-dasharray="5,2" d="M93,-216.84C93,-201.4 93,-178.5 93,-160.93"/>
<polygon fill="#666666" stroke="#666666" points="95.45,-161.3 93,-154.3 90.55,-161.3 95.45,-161.3"/>
</g>
<!-- user_svc -->
<g id="node5" class="node">
<title>user_svc</title>
<path fill="#c8e6c9" stroke="black" stroke-width="1.2" d="M312.5,-152.5C312.5,-152.5 263.5,-152.5 263.5,-152.5 257.5,-152.5 251.5,-146.5 251.5,-140.5 251.5,-140.5 251.5,-128.5 251.5,-128.5 251.5,-122.5 257.5,-116.5 263.5,-116.5 263.5,-116.5 312.5,-116.5 312.5,-116.5 318.5,-116.5 324.5,-122.5 324.5,-128.5 324.5,-128.5 324.5,-140.5 324.5,-140.5 324.5,-146.5 318.5,-152.5 312.5,-152.5"/>
<text text-anchor="middle" x="288" y="-130.62" font-family="Helvetica,sans-Serif" font-size="10.00">User Service</text>
</g>
<!-- gateway&#45;&gt;user_svc -->
<g id="edge4" class="edge">
<title>gateway&#45;&gt;user_svc</title>
<path fill="none" stroke="#666666" d="M133.75,-224.8C164.99,-216.54 208.32,-202.44 242,-181.25 251.72,-175.13 261,-166.63 268.65,-158.61"/>
<polygon fill="#666666" stroke="#666666" points="270.19,-160.54 273.13,-153.73 266.59,-157.23 270.19,-160.54"/>
<text text-anchor="middle" x="239.59" y="-190.45" font-family="Helvetica,sans-Serif" font-size="9.00">gRPC</text>
</g>
<!-- order_svc -->
<g id="node6" class="node">
<title>order_svc</title>
<path fill="#c8e6c9" stroke="black" stroke-width="1.2" d="M221,-152.5C221,-152.5 169,-152.5 169,-152.5 163,-152.5 157,-146.5 157,-140.5 157,-140.5 157,-128.5 157,-128.5 157,-122.5 163,-116.5 169,-116.5 169,-116.5 221,-116.5 221,-116.5 227,-116.5 233,-122.5 233,-128.5 233,-128.5 233,-140.5 233,-140.5 233,-146.5 227,-152.5 221,-152.5"/>
<text text-anchor="middle" x="195" y="-130.62" font-family="Helvetica,sans-Serif" font-size="10.00">Order Service</text>
</g>
<!-- gateway&#45;&gt;order_svc -->
<g id="edge5" class="edge">
<title>gateway&#45;&gt;order_svc</title>
<path fill="none" stroke="#666666" d="M110.77,-216.84C127.48,-200.7 152.64,-176.41 171.11,-158.57"/>
<polygon fill="#666666" stroke="#666666" points="172.67,-160.47 176.01,-153.84 169.27,-156.94 172.67,-160.47"/>
<text text-anchor="middle" x="150.27" y="-190.45" font-family="Helvetica,sans-Serif" font-size="9.00">gRPC</text>
</g>
<!-- postgres -->
<g id="node8" class="node">
<title>postgres</title>
<path fill="#ce93d8" stroke="black" stroke-width="1.2" d="M492.62,-48.73C492.62,-50.53 477.11,-52 458,-52 438.89,-52 423.38,-50.53 423.38,-48.73 423.38,-48.73 423.38,-19.27 423.38,-19.27 423.38,-17.47 438.89,-16 458,-16 477.11,-16 492.62,-17.47 492.62,-19.27 492.62,-19.27 492.62,-48.73 492.62,-48.73"/>
<path fill="none" stroke="black" stroke-width="1.2" d="M492.62,-48.73C492.62,-46.92 477.11,-45.45 458,-45.45 438.89,-45.45 423.38,-46.92 423.38,-48.73"/>
<text text-anchor="middle" x="458" y="-30.12" font-family="Helvetica,sans-Serif" font-size="10.00">PostgreSQL</text>
</g>
<!-- user_svc&#45;&gt;postgres -->
<g id="edge7" class="edge">
<title>user_svc&#45;&gt;postgres</title>
<path fill="none" stroke="#666666" d="M324.78,-129.21C350.46,-124.79 384.56,-115.96 410,-98.5 424.52,-88.54 436.47,-72.76 444.82,-59.43"/>
<polygon fill="#666666" stroke="#666666" points="446.8,-60.89 448.3,-53.62 442.6,-58.37 446.8,-60.89"/>
</g>
<!-- redis -->
<g id="node9" class="node">
<title>redis</title>
<path fill="#ce93d8" stroke="black" stroke-width="1.2" d="M583.5,-48.73C583.5,-50.53 567.14,-52 547,-52 526.86,-52 510.5,-50.53 510.5,-48.73 510.5,-48.73 510.5,-19.27 510.5,-19.27 510.5,-17.47 526.86,-16 547,-16 567.14,-16 583.5,-17.47 583.5,-19.27 583.5,-19.27 583.5,-48.73 583.5,-48.73"/>
<path fill="none" stroke="black" stroke-width="1.2" d="M583.5,-48.73C583.5,-46.92 567.14,-45.45 547,-45.45 526.86,-45.45 510.5,-46.92 510.5,-48.73"/>
<text text-anchor="middle" x="547" y="-30.12" font-family="Helvetica,sans-Serif" font-size="10.00">Redis Cache</text>
</g>
<!-- user_svc&#45;&gt;redis -->
<g id="edge9" class="edge">
<title>user_svc&#45;&gt;redis</title>
<path fill="none" stroke="#666666" stroke-dasharray="1,5" d="M324.7,-130.58C369.21,-125.71 445.31,-113.04 502,-80.75 512.03,-75.04 521.31,-66.46 528.81,-58.27"/>
<polygon fill="#666666" stroke="#666666" points="530.41,-60.15 533.18,-53.27 526.72,-56.92 530.41,-60.15"/>
<text text-anchor="middle" x="498.62" y="-89.95" font-family="Helvetica,sans-Serif" font-size="9.00">cache</text>
</g>
<!-- payment_svc -->
<g id="node7" class="node">
<title>payment_svc</title>
<path fill="#c8e6c9" stroke="black" stroke-width="1.2" d="M236.5,-52C236.5,-52 169.5,-52 169.5,-52 163.5,-52 157.5,-46 157.5,-40 157.5,-40 157.5,-28 157.5,-28 157.5,-22 163.5,-16 169.5,-16 169.5,-16 236.5,-16 236.5,-16 242.5,-16 248.5,-22 248.5,-28 248.5,-28 248.5,-40 248.5,-40 248.5,-46 242.5,-52 236.5,-52"/>
<text text-anchor="middle" x="203" y="-30.12" font-family="Helvetica,sans-Serif" font-size="10.00">Payment Service</text>
</g>
<!-- order_svc&#45;&gt;payment_svc -->
<g id="edge6" class="edge">
<title>order_svc&#45;&gt;payment_svc</title>
<path fill="none" stroke="#666666" d="M196.39,-116.34C197.65,-100.9 199.51,-78 200.93,-60.43"/>
<polygon fill="#666666" stroke="#666666" points="203.35,-60.98 201.47,-53.8 198.46,-60.58 203.35,-60.98"/>
<text text-anchor="middle" x="210.9" y="-89.95" font-family="Helvetica,sans-Serif" font-size="9.00">gRPC</text>
</g>
<!-- order_svc&#45;&gt;postgres -->
<g id="edge8" class="edge">
<title>order_svc&#45;&gt;postgres</title>
<path fill="none" stroke="#666666" d="M224.2,-116.02C230.24,-113.06 236.69,-110.35 243,-108.5 316.87,-86.79 348.04,-120.46 414,-80.75 423.63,-74.95 432.57,-66.51 439.84,-58.46"/>
<polygon fill="#666666" stroke="#666666" points="441.35,-60.46 444.07,-53.56 437.64,-57.26 441.35,-60.46"/>
</g>
<!-- kafka -->
<g id="node10" class="node">
<title>kafka</title>
<path fill="#ce93d8" stroke="black" stroke-width="1.2" d="M400.63,-40C400.63,-40 395.9,-46 395.9,-46 393.54,-49 387.36,-52 383.54,-52 383.54,-52 370.46,-52 370.46,-52 366.64,-52 360.46,-49 358.1,-46 358.1,-46 353.37,-40 353.37,-40 351.01,-37 351.01,-31 353.37,-28 353.37,-28 358.1,-22 358.1,-22 360.46,-19 366.64,-16 370.46,-16 370.46,-16 383.54,-16 383.54,-16 387.36,-16 393.54,-19 395.9,-22 395.9,-22 400.63,-28 400.63,-28 402.99,-31 402.99,-37 400.63,-40"/>
<text text-anchor="middle" x="377" y="-30.12" font-family="Helvetica,sans-Serif" font-size="10.00">Kafka</text>
</g>
<!-- order_svc&#45;&gt;kafka -->
<g id="edge10" class="edge">
<title>order_svc&#45;&gt;kafka</title>
<path fill="none" stroke="#666666" d="M226.35,-116.07C231.82,-113.35 237.51,-110.72 243,-108.5 283.39,-92.2 300.32,-104.25 337,-80.75 345.88,-75.06 353.93,-66.83 360.44,-58.92"/>
<polygon fill="#666666" stroke="#666666" points="362.22,-60.63 364.6,-53.6 358.35,-57.61 362.22,-60.63"/>
<text text-anchor="middle" x="334.23" y="-89.95" font-family="Helvetica,sans-Serif" font-size="9.00">events</text>
</g>
</g>
</svg>
