<?xml version="1.0" encoding="UTF-8" standalone="no"?>
<!DOCTYPE svg PUBLIC "-//W3C//DTD SVG 1.1//EN"
 "http://www.w3.org/Graphics/SVG/1.1/DTD/svg11.dtd">
<!-- Generated by graphviz version 12.2.1 (20241206.2353)
 -->
<!-- Pages: 1 -->
<svg width="208pt" height="192pt"
 viewBox="0.00 0.00 208.00 192.25" xmlns="http://www.w3.org/2000/svg" xmlns:xlink="http://www.w3.org/1999/xlink">
<g id="graph0" class="graph" transform="scale(1 1) rotate(0) translate(4 188.25)">
<polygon fill="white" stroke="none" points="-4,4 -4,-188.25 204,-188.25 204,4 -4,4"/>
<g id="clust1" class="cluster">
<title>cluster_svc</title>
<polygon fill="none" stroke="#222222" points="15,-102 15,-176.25 192,-176.25 192,-102 15,-102"/>
<text text-anchor="middle" x="42.88" y="-160.85" font-family="Times,serif" font-size="12.00">Services</text>
</g>
<g id="clust2" class="cluster">
<title>cluster_db</title>
<polygon fill="none" stroke="#222222" points="8,-8 8,-82.25 190,-82.25 190,-8 8,-8"/>
<text text-anchor="middle" x="40" y="-66.85" font-family="Times,serif" font-size="12.00">Databases</text>
</g>
<!-- A -->
<g id="node1" class="node">
<title>A</title>
<path fill="#e3f2fd" stroke="#222222" d="M80.62,-146C80.62,-146 35.38,-146 35.38,-146 29.38,-146 23.38,-140 23.38,-134 23.38,-134 23.38,-122 23.38,-122 23.38,-116 29.38,-110 35.38,-110 35.38,-110 80.62,-110 80.62,-110 86.62,-110 92.62,-116 92.62,-122 92.62,-122 92.62,-134 92.62,-134 92.62,-140 86.62,-146 80.62,-146"/>
<text text-anchor="middle" x="58" y="-122.95" font-family="Times,serif" font-size="14.00">Service A</text>
</g>
<!-- db1 -->
<g id="node3" class="node">
<title>db1</title>
<path fill="#e3f2fd" stroke="#222222" d="M98,-48.73C98,-50.53 79.62,-52 57,-52 34.38,-52 16,-50.53 16,-48.73 16,-48.73 16,-19.27 16,-19.27 16,-17.47 34.38,-16 57,-16 79.62,-16 98,-17.47 98,-19.27 98,-19.27 98,-48.73 98,-48.73"/>
<path fill="none" stroke="#222222" d="M98,-48.73C98,-46.92 79.62,-45.45 57,-45.45 34.38,-45.45 16,-46.92 16,-48.73"/>
<text text-anchor="middle" x="57" y="-28.95" font-family="Times,serif" font-size="14.00">PostgreSQL</text>
</g>
<!-- A&#45;&gt;db1 -->
<g id="edge1" class="edge">
<title>A&#45;&gt;db1</title>
<path fill="none" stroke="#222222" d="M57.81,-109.7C57.67,-96.72 57.47,-78.66 57.31,-63.56"/>
<polygon fill="#222222" stroke="#222222" points="60.81,-63.7 57.2,-53.74 53.81,-63.78 60.81,-63.7"/>
<text text-anchor="middle" x="38.37" y="-84.19" font-family="Times,serif" font-size="14.00"> &#160;read &#160;</text>
</g>
<!-- db2 -->
<g id="node4" class="node">
<title>db2</title>
<path fill="#e3f2fd" stroke="#222222" d="M181.5,-48.73C181.5,-50.53 167.83,-52 151,-52 134.17,-52 120.5,-50.53 120.5,-48.73 120.5,-48.73 120.5,-19.27 120.5,-19.27 120.5,-17.47 134.17,-16 151,-16 167.83,-16 181.5,-17.47 181.5,-19.27 181.5,-19.27 181.5,-48.73 181.5,-48.73"/>
<path fill="none" stroke="#222222" d="M181.5,-48.73C181.5,-46.92 167.83,-45.45 151,-45.45 134.17,-45.45 120.5,-46.92 120.5,-48.73"/>
<text text-anchor="middle" x="151" y="-28.95" font-family="Times,serif" font-size="14.00">MySQL</text>
</g>
<!-- A&#45;&gt;db2 -->
<g id="edge3" class="edge">
<title>A&#45;&gt;db2</title>
<path fill="none" stroke="#222222" d="M78.87,-109.71C88.32,-101.62 99.47,-91.71 109,-82.25 115.79,-75.51 122.82,-67.87 129.15,-60.74"/>
<polygon fill="#222222" stroke="#222222" points="131.78,-63.06 135.72,-53.22 126.51,-58.45 131.78,-63.06"/>
<text text-anchor="middle" x="90.19" y="-85.13" font-family="Times,serif" font-size="14.00"> &#160;read &#160;</text>
</g>
<!-- B -->
<g id="node2" class="node">
<title>B</title>
<path fill="#e3f2fd" stroke="#222222" d="M171.62,-146C171.62,-146 126.38,-146 126.38,-146 120.38,-146 114.38,-140 114.38,-134 114.38,-134 114.38,-122 114.38,-122 114.38,-116 120.38,-110 126.38,-110 126.38,-110 171.62,-110 171.62,-110 177.62,-110 183.62,-116 183.62,-122 183.62,-122 183.62,-134 183.62,-134 183.62,-140 177.62,-146 171.62,-146"/>
<text text-anchor="middle" x="149" y="-122.95" font-family="Times,serif" font-size="14.00">Service B</text>
</g>
<!-- B&#45;&gt;db1 -->
<g id="edge4" class="edge">
<title>B&#45;&gt;db1</title>
<path fill="none" stroke="#222222" d="M131.7,-109.7C117.69,-95.69 97.77,-75.77 82.03,-60.03"/>
<polygon fill="#222222" stroke="#222222" points="84.84,-57.89 75.3,-53.3 79.89,-62.84 84.84,-57.89"/>
<text text-anchor="middle" x="124.39" y="-67.72" font-family="Times,serif" font-size="14.00"> &#160;write &#160;</text>
</g>
<!-- B&#45;&gt;db2 -->
<g id="edge2" class="edge">
<title>B&#45;&gt;db2</title>
<path fill="none" stroke="#222222" d="M149.38,-109.7C149.66,-96.72 150.05,-78.66 150.38,-63.56"/>
<polygon fill="#222222" stroke="#222222" points="153.87,-63.81 150.59,-53.74 146.88,-63.66 153.87,-63.81"/>
<text text-anchor="middle" x="171.38" y="-84.19" font-family="Times,serif" font-size="14.00"> &#160;write &#160;</text>
</g>
</g>
</svg>
